<svg width="24" height="24" viewBox="0 0 24 24" fill="none" xmlns="http://www.w3.org/2000/svg">
<path fill-rule="evenodd" clip-rule="evenodd" d="M10.536 12L16.7225 5.51892C17.179 5.04073 17.179 4.26543 16.7225 3.78723C16.2661 3.30904 15.526 3.30904 15.0696 3.78723L8.05658 11.1342C7.60012 11.6124 7.60012 12.3877 8.05658 12.8659L15.0696 20.2128C15.526 20.691 16.2661 20.691 16.7225 20.2128C17.179 19.7346 17.179 18.9593 16.7225 18.4811L10.536 12Z" fill="#2D3892"/>
<mask id="mask0" mask-type="alpha" maskUnits="userSpaceOnUse" x="7" y="3" width="11" height="18">
<path fill-rule="evenodd" clip-rule="evenodd" d="M10.536 12L16.7225 5.51892C17.179 5.04073 17.179 4.26543 16.7225 3.78723C16.2661 3.30904 15.526 3.30904 15.0696 3.78723L8.05658 11.1342C7.60012 11.6124 7.60012 12.3877 8.05658 12.8659L15.0696 20.2128C15.526 20.691 16.2661 20.691 16.7225 20.2128C17.179 19.7346 17.179 18.9593 16.7225 18.4811L10.536 12Z" fill="white"/>
</mask>
<g mask="url(#mask0)">
</g>
</svg>
