<svg width="17" height="20" viewBox="0 0 17 20" fill="none" xmlns="http://www.w3.org/2000/svg">
<path d="M14.6875 2.5H11.25V1.875C11.25 0.839453 10.4105 0 9.375 0H6.875C5.83945 0 5 0.839453 5 1.875V2.5H1.5625C0.69957 2.5 0 3.19957 0 4.0625V5.3125C0 5.6577 0.279805 5.9375 0.625 5.9375H15.625C15.9702 5.9375 16.25 5.6577 16.25 5.3125V4.0625C16.25 3.19957 15.5504 2.5 14.6875 2.5ZM6.25 1.875C6.25 1.53047 6.53047 1.25 6.875 1.25H9.375C9.71953 1.25 10 1.53047 10 1.875V2.5H6.25V1.875Z" fill="white"/>
<path d="M1.18652 7.1875C1.07499 7.1875 0.986125 7.2807 0.991437 7.39211L1.50706 18.2141C1.55472 19.2156 2.37737 20 3.37972 20H12.8711C13.8735 20 14.6961 19.2156 14.7438 18.2141L15.2594 7.39211C15.2647 7.2807 15.1758 7.1875 15.0643 7.1875H1.18652ZM10.6254 8.75C10.6254 8.40469 10.9051 8.125 11.2504 8.125C11.5957 8.125 11.8754 8.40469 11.8754 8.75V16.875C11.8754 17.2203 11.5957 17.5 11.2504 17.5C10.9051 17.5 10.6254 17.2203 10.6254 16.875V8.75ZM7.50042 8.75C7.50042 8.40469 7.78011 8.125 8.12542 8.125C8.47073 8.125 8.75042 8.40469 8.75042 8.75V16.875C8.75042 17.2203 8.47073 17.5 8.12542 17.5C7.78011 17.5 7.50042 17.2203 7.50042 16.875V8.75ZM4.37542 8.75C4.37542 8.40469 4.65511 8.125 5.00042 8.125C5.34573 8.125 5.62542 8.40469 5.62542 8.75V16.875C5.62542 17.2203 5.34573 17.5 5.00042 17.5C4.65511 17.5 4.37542 17.2203 4.37542 16.875V8.75Z" fill="white"/>
</svg>
