<svg width="43" height="43" viewBox="0 0 43 43" fill="none" xmlns="http://www.w3.org/2000/svg">
<path d="M16.0626 32.2497C15.8496 33.7444 15.1045 35.1122 13.964 36.1017C12.8235 37.0911 11.3644 37.6359 9.85449 37.6359C8.34462 37.6359 6.88544 37.0911 5.74498 36.1017C4.60452 35.1122 3.85936 33.7444 3.64637 32.2497H1.79199V10.7497C1.79199 10.2745 1.98076 9.81878 2.31676 9.48278C2.65276 9.14677 3.10848 8.95801 3.58366 8.95801H28.667C29.1422 8.95801 29.5979 9.14677 29.9339 9.48278C30.2699 9.81878 30.4587 10.2745 30.4587 10.7497V14.333H35.8337L41.2087 21.6V32.2497H37.5626C37.3496 33.7444 36.6045 35.1122 35.464 36.1017C34.3235 37.0911 32.8644 37.6359 31.3545 37.6359C29.8446 37.6359 28.3854 37.0911 27.245 36.1017C26.1045 35.1122 25.3594 33.7444 25.1464 32.2497H16.0626ZM26.8753 12.5413H5.37533V26.9643C6.08225 26.2426 6.95307 25.7024 7.91367 25.3896C8.87428 25.0768 9.89623 25.0008 10.8925 25.1679C11.8889 25.3351 12.83 25.7404 13.636 26.3495C14.442 26.9587 15.0888 27.7535 15.5215 28.6663H25.6874C25.9884 28.0339 26.3916 27.4588 26.8753 26.9643V12.5413ZM30.4587 23.2913H37.6253V22.7807L34.0277 17.9163H30.4587V23.2913ZM31.3545 34.0413C32.0675 34.0413 32.7513 33.7581 33.2555 33.2539C33.7596 32.7498 34.0429 32.066 34.0429 31.3529C34.0429 30.6399 33.7596 29.9561 33.2555 29.452C32.7513 28.9478 32.0675 28.6646 31.3545 28.6646C30.6415 28.6646 29.9577 28.9478 29.4535 29.452C28.9493 29.9561 28.6661 30.6399 28.6661 31.3529C28.6661 32.066 28.9493 32.7498 29.4535 33.2539C29.9577 33.7581 30.6415 34.0413 31.3545 34.0413ZM12.542 31.3538C12.542 31.0009 12.4725 30.6514 12.3374 30.3254C12.2024 29.9993 12.0044 29.7031 11.7548 29.4535C11.5053 29.2039 11.209 29.006 10.883 28.8709C10.5569 28.7359 10.2074 28.6663 9.85449 28.6663C9.50156 28.6663 9.15209 28.7359 8.82603 28.8709C8.49997 29.006 8.2037 29.2039 7.95414 29.4535C7.70458 29.7031 7.50662 29.9993 7.37157 30.3254C7.23651 30.6514 7.16699 31.0009 7.16699 31.3538C7.16699 32.0666 7.45014 32.7502 7.95414 33.2542C8.45815 33.7582 9.14172 34.0413 9.85449 34.0413C10.5673 34.0413 11.2508 33.7582 11.7548 33.2542C12.2588 32.7502 12.542 32.0666 12.542 31.3538Z" fill="white"/>
</svg>
