<svg width="20" height="20" viewBox="0 0 20 20" fill="none" xmlns="http://www.w3.org/2000/svg">
<path d="M7.471 15.0001C7.37193 15.6953 7.02534 16.3315 6.49489 16.7917C5.96445 17.2519 5.28576 17.5053 4.5835 17.5053C3.88123 17.5053 3.20254 17.2519 2.6721 16.7917C2.14165 16.3315 1.79506 15.6953 1.696 15.0001H0.833496V5.00008C0.833496 4.77907 0.921293 4.56711 1.07757 4.41083C1.23385 4.25455 1.44582 4.16675 1.66683 4.16675H13.3335C13.5545 4.16675 13.7665 4.25455 13.9228 4.41083C14.079 4.56711 14.1668 4.77907 14.1668 5.00008V6.66675H16.6668L19.1668 10.0467V15.0001H17.471C17.3719 15.6953 17.0253 16.3315 16.4949 16.7917C15.9644 17.2519 15.2858 17.5053 14.5835 17.5053C13.8812 17.5053 13.2025 17.2519 12.6721 16.7917C12.1416 16.3315 11.7951 15.6953 11.696 15.0001H7.471ZM12.5002 5.83341H2.50016V12.5417C2.82896 12.2061 3.234 11.9548 3.68079 11.8093C4.12758 11.6639 4.60291 11.6285 5.06631 11.7062C5.52971 11.784 5.96747 11.9725 6.34234 12.2558C6.7172 12.5391 7.01807 12.9088 7.21933 13.3334H11.9477C12.0877 13.0392 12.2752 12.7717 12.5002 12.5417V5.83341ZM14.1668 10.8334H17.5002V10.5959L15.8268 8.33342H14.1668V10.8334ZM14.5835 15.8334C14.9151 15.8334 15.2332 15.7017 15.4677 15.4672C15.7022 15.2327 15.8339 14.9146 15.8339 14.583C15.8339 14.2514 15.7022 13.9333 15.4677 13.6988C15.2332 13.4643 14.9151 13.3326 14.5835 13.3326C14.2519 13.3326 13.9338 13.4643 13.6993 13.6988C13.4648 13.9333 13.3331 14.2514 13.3331 14.583C13.3331 14.9146 13.4648 15.2327 13.6993 15.4672C13.9338 15.7017 14.2519 15.8334 14.5835 15.8334ZM5.8335 14.5834C5.8335 14.4193 5.80116 14.2567 5.73835 14.1051C5.67553 13.9534 5.58345 13.8156 5.46738 13.6995C5.35131 13.5835 5.21351 13.4914 5.06185 13.4286C4.91019 13.3657 4.74765 13.3334 4.5835 13.3334C4.41934 13.3334 4.2568 13.3657 4.10514 13.4286C3.95348 13.4914 3.81569 13.5835 3.69961 13.6995C3.58354 13.8156 3.49146 13.9534 3.42865 14.1051C3.36583 14.2567 3.3335 14.4193 3.3335 14.5834C3.3335 14.9149 3.46519 15.2329 3.69961 15.4673C3.93403 15.7017 4.25198 15.8334 4.5835 15.8334C4.91502 15.8334 5.23296 15.7017 5.46738 15.4673C5.7018 15.2329 5.8335 14.9149 5.8335 14.5834Z" fill="white"/>
</svg>
