<svg width="30" height="89" viewBox="0 0 30 89" fill="none" xmlns="http://www.w3.org/2000/svg">
<circle cx="15" cy="74" r="15" fill="#FFCC33"/>
<path fill-rule="evenodd" clip-rule="evenodd" d="M12.4329 68C12.9997 68 13.4632 68.442 13.4976 69.0001L21.0996 69C22.2042 69 23.0996 69.8954 23.0996 71V78C23.0996 79.1046 22.2042 80 21.0996 80H9.09961C7.99504 80 7.09961 79.1046 7.09961 78V71C7.09961 69.8954 7.99504 69 9.09961 69H9.23294C9.23294 68.4477 9.68066 68 10.2329 68H12.4329Z" stroke="white" stroke-width="1.5" stroke-linecap="round" stroke-linejoin="round"/>
<path d="M15.5996 77C16.9803 77 18.0996 75.8807 18.0996 74.5C18.0996 73.1193 16.9803 72 15.5996 72C14.2189 72 13.0996 73.1193 13.0996 74.5C13.0996 75.8807 14.2189 77 15.5996 77Z" stroke="white" stroke-width="1.5" stroke-linecap="round" stroke-linejoin="round"/>
</svg>
