<svg width="37" height="16" viewBox="0 0 37 16" fill="none" xmlns="http://www.w3.org/2000/svg">
<path d="M30.887 11.1484C29.6953 11.1484 28.8014 12.0775 28.8014 13.3162C28.8014 14.5549 29.6953 15.4839 30.887 15.4839C32.0788 15.4839 32.9727 14.5549 32.9727 13.3162C32.9727 12.0775 32.0788 11.1484 30.887 11.1484Z" fill="url(#paint0_radial)"/>
<path d="M32.7743 13.1095H33.0723V12.7999L32.7743 12.9031V12.7999L33.0723 12.6966L32.973 12.3869L32.675 12.4902C32.675 12.4902 32.675 12.4902 32.675 12.3869L32.973 12.2837L32.8736 12.0773L32.675 12.2837C32.675 12.2837 32.675 12.2837 32.675 12.1805L32.8736 11.974L32.675 11.7676L32.4764 11.974C32.4764 11.974 32.4764 11.974 32.3771 11.8708L32.5757 11.6644L32.3771 11.4579L32.1784 11.6644C32.1784 11.6644 32.1784 11.6644 32.0791 11.6644L32.2778 11.4579L32.0791 11.3547L31.9798 11.6644C31.9798 11.6644 31.9798 11.6644 31.8805 11.6644L31.9798 11.3547L31.6819 11.2515L31.5825 11.5611H31.4832L31.5825 11.2515H31.2846V11.5611H31.1853V11.2515H30.8873V11.5611H30.788V11.2515H30.4901L30.5894 11.5611H30.4901L30.3908 11.2515L30.0928 11.3547L30.1921 11.6644C30.1921 11.6644 30.1921 11.6644 30.0928 11.6644L29.9935 11.3547L29.7949 11.4579L29.9935 11.6644C29.9935 11.6644 29.9935 11.6644 29.8942 11.6644L29.6956 11.4579L29.4969 11.6644L29.6956 11.8708C29.6956 11.8708 29.6956 11.8708 29.5962 11.974L29.3976 11.7676L29.199 11.974L29.3976 12.1805C29.3976 12.1805 29.3976 12.1805 29.3976 12.2837L29.199 12.0773L29.0997 12.2837L29.3976 12.3869C29.3976 12.3869 29.3976 12.3869 29.3976 12.4902L29.0997 12.3869L29.0004 12.6966L29.2983 12.7999V12.9031L29.0004 12.7999V13.1095H29.2983V13.2128H29.0004V13.5224H29.2983V13.6257H29.0004V13.9353L29.2983 13.8321V13.9353L29.0004 14.0386L29.0997 14.3482L29.3976 14.245C29.3976 14.245 29.3976 14.245 29.3976 14.3482L29.0997 14.4515L29.199 14.6579L29.3976 14.4515C29.3976 14.4515 29.3976 14.4515 29.3976 14.5547L29.199 14.7611L29.3976 14.9676L29.5962 14.7611C29.5962 14.7611 29.5962 14.7611 29.6956 14.8644L29.4969 15.0708L29.6956 15.2773L29.8942 15.0708C29.8942 15.0708 29.8942 15.0708 29.9935 15.0708L29.7949 15.2773L29.9935 15.3805L30.0928 15.0708C30.0928 15.0708 30.0928 15.0708 30.1921 15.0708L30.0928 15.3805L30.3908 15.4837L30.4901 15.174H30.5894L30.4901 15.4837H30.788V15.174H30.8873V15.4837H31.1853V15.174H31.2846V15.4837H31.5825L31.4832 15.174H31.5825L31.6819 15.4837L31.9798 15.3805L31.8805 15.0708C31.8805 15.0708 31.8805 15.0708 31.9798 15.0708L32.0791 15.3805L32.2778 15.2773L32.0791 15.0708C32.0791 15.0708 32.0791 15.0708 32.1784 15.0708L32.3771 15.2773L32.5757 15.0708L32.3771 14.8644C32.3771 14.8644 32.3771 14.8644 32.4764 14.7611L32.675 14.9676L32.8736 14.7611L32.675 14.5547C32.675 14.5547 32.675 14.5547 32.675 14.4515L32.8736 14.6579L32.973 14.4515L32.675 14.3482C32.675 14.3482 32.675 14.3482 32.675 14.245L32.973 14.3482L33.0723 14.0386L32.7743 13.9353V13.8321L33.0723 13.9353V13.6257H32.7743V13.5224H33.0723V13.1095H32.7743Z" fill="url(#paint1_radial)"/>
<path d="M30.8872 11.7676C30.0927 11.7676 29.3975 12.4902 29.3975 13.316C29.3975 14.1418 30.0927 14.8644 30.8872 14.8644C31.6817 14.8644 32.377 14.1418 32.377 13.316C32.377 12.4902 31.7811 11.7676 30.8872 11.7676Z" fill="url(#paint2_radial)"/>
<path d="M28.5032 13.626L28.7018 13.9357C28.8012 14.1421 28.9998 14.2453 29.1984 14.2453L34.8594 13.8324L34.1642 10.8389L29.7943 10.3228L28.5032 13.626Z" fill="url(#paint3_radial)"/>
<path d="M32.476 11.5615C31.3836 11.1485 30.0925 11.7679 29.6952 12.9034C29.298 14.0389 29.8939 15.3808 30.9863 15.7937C32.0788 16.2066 33.3699 15.5873 33.7671 14.4518C34.1644 13.3163 33.5685 12.0776 32.476 11.5615Z" fill="url(#paint4_radial)"/>
<path d="M33.5683 14.2452L33.8662 14.3484V14.0387H33.5683V13.9355H33.8662V13.6258H33.5683V13.5226H33.8662L33.7669 13.2129L33.4689 13.3162V13.2129L33.7669 13.1097L33.6676 12.8L33.3696 12.9033C33.3696 12.9033 33.3696 12.9033 33.3696 12.8L33.6676 12.6968L33.5683 12.4904L33.3696 12.6968C33.3696 12.6968 33.3696 12.6968 33.3696 12.5936L33.5683 12.3871L33.3696 12.1807L33.171 12.3871C33.171 12.3871 33.171 12.3871 33.0717 12.2839L33.2703 12.0775L33.0717 11.871L32.8731 12.0775C32.8731 12.0775 32.8731 12.0775 32.7737 12.0775L32.9724 11.871L32.7737 11.7678L32.6744 12.0775C32.6744 12.0775 32.6744 12.0775 32.5751 12.0775L32.6744 11.7678L32.3765 11.6646L32.2772 11.9742H32.1779L32.2772 11.6646H31.9792V11.9742H31.8799V11.6646H31.582V11.9742H31.4827V11.6646L31.1847 11.7678L31.284 12.0775H31.1847L31.0854 11.7678L30.7874 11.871L30.8868 12.1807C30.8868 12.1807 30.8868 12.1807 30.7874 12.1807L30.6881 11.871L30.4895 11.9742L30.6881 12.1807C30.6881 12.1807 30.6881 12.1807 30.5888 12.1807L30.3902 11.9742L30.1916 12.1807L30.3902 12.3871C30.3902 12.3871 30.3902 12.3871 30.2909 12.4904L30.0922 12.2839L29.8936 12.4904L30.0922 12.6968C30.0922 12.6968 30.0922 12.6968 30.0922 12.8L29.8936 12.5936L29.7943 12.8L30.0922 12.9033C30.0922 12.9033 30.0922 12.9033 30.0922 13.0065L29.7943 12.9033L29.695 13.2129L29.9929 13.3162V13.4194L29.695 13.3162V13.6258H29.9929V13.7291H29.695V14.0387H29.9929V14.142H29.695L29.7943 14.4516L30.0922 14.3484V14.4516L29.7943 14.5549L29.8936 14.8646L30.1916 14.7613C30.1916 14.7613 30.1916 14.7613 30.1916 14.8646L29.8936 14.9678L29.9929 15.1742L30.1916 14.9678C30.1916 14.9678 30.1916 14.9678 30.1916 15.071L29.9929 15.2775L30.1916 15.4839L30.3902 15.2775C30.3902 15.2775 30.3902 15.2775 30.4895 15.3807L30.2909 15.5871L30.4895 15.7936L30.6881 15.5871C30.6881 15.5871 30.6881 15.5871 30.7874 15.5871L30.5888 15.7936L30.7874 15.8968L30.8868 15.5871H30.9861L30.8868 15.8968L31.1847 16L31.284 15.6904H31.3833L31.284 16H31.582V15.6904H31.6813V16H31.9792V15.6904H32.0785V16L32.3765 15.8968L32.2772 15.5871H32.3765L32.4758 15.8968L32.7737 15.7936L32.6744 15.4839C32.6744 15.4839 32.6744 15.4839 32.7737 15.4839L32.8731 15.7936L33.0717 15.6904L32.8731 15.4839C32.8731 15.4839 32.8731 15.4839 32.9724 15.4839L33.171 15.6904L33.3696 15.4839L33.171 15.2775C33.171 15.2775 33.171 15.2775 33.2703 15.1742L33.4689 15.3807L33.6676 15.1742L33.4689 14.9678C33.4689 14.9678 33.4689 14.9678 33.4689 14.8646L33.6676 15.071L33.7669 14.8646L33.4689 14.7613C33.4689 14.7613 33.4689 14.7613 33.4689 14.6581L33.7669 14.7613L33.8662 14.4516L33.5683 14.2452Z" fill="url(#paint5_radial)"/>
<path d="M33.072 14.2457C32.774 15.0716 31.9795 15.4845 31.185 15.1748C30.3905 14.8651 29.9932 14.0393 30.2912 13.2135C30.5891 12.3877 31.3836 11.9748 32.1781 12.2845C32.9727 12.5941 33.3699 13.4199 33.072 14.2457ZM32.8733 14.2457C33.072 13.5232 32.774 12.8006 32.0788 12.4909C31.3836 12.2845 30.6884 12.5941 30.3905 13.3167C30.1918 14.0393 30.4898 14.7619 31.185 15.0716C31.9795 15.278 32.6747 14.8651 32.8733 14.2457Z" fill="url(#paint6_radial)"/>
<path d="M33.1715 14.2457C33.0722 14.5553 32.7742 14.865 32.5756 15.0715C32.377 15.1747 32.1783 15.2779 31.8804 15.2779C31.6818 15.2779 31.4831 15.2779 31.3838 15.1747C31.1852 15.0715 30.9866 14.9683 30.8872 14.865L30.7879 14.7618C30.6886 14.6586 30.6886 14.6586 30.5893 14.5553C30.5893 14.4521 30.49 14.4521 30.49 14.3489L30.3907 14.2457C30.2914 13.936 30.2914 13.5231 30.3907 13.2134V13.1102L30.5893 12.8005L30.8872 12.4908C31.1852 12.2844 31.5824 12.1812 31.9797 12.1812L32.377 12.2844L32.7742 12.4908C33.0722 12.6973 33.2708 13.007 33.3701 13.4199V13.6263C33.3701 13.8328 33.3701 13.936 33.3701 14.1424L33.1715 14.2457ZM32.5756 12.5941C32.5756 12.5941 32.4763 12.5941 32.377 12.5941C32.2777 12.6973 32.2776 12.8005 32.1783 12.9037C32.1783 13.007 32.079 13.007 32.079 13.1102C31.9797 13.3166 32.1783 13.5231 32.377 13.5231C32.4763 13.5231 32.5756 13.5231 32.6749 13.5231C32.8735 13.5231 32.9729 13.5231 33.0722 13.4199C33.1715 13.4199 33.1715 13.3166 33.1715 13.3166C32.9729 13.007 32.8735 12.8005 32.5756 12.5941ZM30.8872 12.4908C30.7879 12.4908 30.7879 12.5941 30.8872 12.6973C30.9866 12.8005 30.9866 12.9037 31.0859 13.007C31.1852 13.1102 31.1852 13.1102 31.2845 13.2134C31.4831 13.3166 31.6818 13.3166 31.6818 13.1102C31.6818 13.007 31.6818 12.9037 31.7811 12.9037C31.7811 12.8005 31.7811 12.5941 31.7811 12.4908C31.7811 12.3876 31.6818 12.3876 31.6818 12.3876C31.4831 12.2844 31.1852 12.2844 30.8872 12.4908ZM30.2914 14.1424C30.2914 14.2457 30.3907 14.2457 30.2914 14.1424C30.49 14.2457 30.5893 14.1424 30.7879 14.1424C30.8872 14.1424 30.8872 14.0392 30.9866 14.0392C31.1852 13.936 31.1852 13.6263 30.9866 13.5231C30.8872 13.4199 30.8872 13.4199 30.7879 13.4199C30.6886 13.3166 30.5893 13.3166 30.49 13.2134C30.3907 13.2134 30.3907 13.2134 30.3907 13.3166C30.2914 13.5231 30.192 13.8328 30.2914 14.1424ZM31.6818 15.2779C31.7811 15.2779 31.7811 15.2779 31.6818 15.2779C31.7811 15.0715 31.7811 14.9683 31.7811 14.7618C31.7811 14.6586 31.7811 14.5553 31.6818 14.5553C31.6818 14.3489 31.3838 14.2457 31.2845 14.3489C31.1852 14.4521 31.1852 14.4521 31.0859 14.5553C30.9866 14.6586 30.8872 14.7618 30.7879 14.865C30.7879 14.9683 30.7879 14.9683 30.7879 15.0715C30.8872 15.1747 31.0859 15.2779 31.1852 15.2779C31.3838 15.2779 31.4831 15.2779 31.6818 15.2779ZM32.377 14.9683C32.377 15.0715 32.4763 15.0715 32.5756 14.9683C32.7742 14.7618 32.9729 14.5553 33.0722 14.2457C33.0722 14.1424 33.0722 14.1424 32.9729 14.1424C32.8735 14.1424 32.7742 14.0392 32.5756 14.0392C32.4763 14.0392 32.377 14.0392 32.2777 14.0392C32.079 14.0392 31.8804 14.2457 31.9797 14.4521C31.9797 14.5553 32.079 14.6586 32.079 14.6586C32.2776 14.7618 32.377 14.865 32.377 14.9683Z" fill="url(#paint7_radial)"/>
<path d="M33.271 14.2455C32.9731 15.1746 31.9799 15.6907 31.0861 15.2778C30.2915 14.9681 29.8943 14.0391 30.0929 13.2133C30.3909 12.2842 31.384 11.7681 32.2779 12.181C33.0724 12.4907 33.5689 13.4197 33.271 14.2455ZM32.4765 12.3875C32.2778 12.5939 32.1785 12.8004 31.9799 13.2133C31.9799 13.2133 31.9799 13.3165 31.8806 13.4197C31.8806 13.5229 31.8806 13.6262 31.9799 13.6262C32.0792 13.6262 32.1785 13.6262 32.1785 13.6262C32.5758 13.6262 32.8737 13.6262 33.0724 13.5229L33.1717 13.4197C33.0724 13.0068 32.8737 12.6971 32.4765 12.3875ZM30.7881 12.5939C30.8874 12.9036 31.0861 13.11 31.384 13.3165C31.384 13.3165 31.4833 13.4197 31.5826 13.4197C31.682 13.5229 31.7813 13.4197 31.7813 13.3165C31.7813 13.2133 31.8806 13.11 31.8806 13.11C31.9799 12.6971 32.0792 12.4907 32.0792 12.181C32.0792 12.181 32.0792 12.0778 31.9799 12.0778C31.4833 12.181 31.0861 12.2842 30.7881 12.5939ZM30.3909 14.3488C30.3909 14.3488 30.4902 14.452 30.3909 14.3488C30.6888 14.2455 30.9868 14.1423 31.2847 13.9358C31.2847 13.9358 31.384 13.8326 31.4833 13.8326C31.5826 13.7294 31.5826 13.6262 31.4833 13.5229C31.384 13.4197 31.384 13.4197 31.2847 13.4197C30.9868 13.2133 30.6888 13.0068 30.4902 13.0068H30.3909C30.3909 13.11 30.2916 13.11 30.2916 13.2133C30.1922 13.6262 30.1922 13.9358 30.3909 14.3488ZM31.1854 15.1746C31.384 15.2778 31.5826 15.2778 31.7813 15.2778C31.7813 15.2778 31.8806 15.2778 31.8806 15.1746C31.8806 14.9681 31.8806 14.6584 31.7813 14.2455C31.7813 14.2455 31.7813 14.1423 31.682 14.0391C31.682 13.9359 31.5826 13.9358 31.4833 13.9358C31.384 13.9358 31.384 14.0391 31.2847 14.0391C30.9868 14.2455 30.7881 14.452 30.5895 14.6584V14.7617C30.7881 14.9681 30.9868 15.0713 31.1854 15.1746ZM33.0724 14.2455C33.0724 14.1423 33.0724 14.1423 33.1717 14.0391C33.1717 14.0391 33.1717 13.9358 33.0724 13.9358C32.8737 13.8326 32.5758 13.8326 32.1785 13.8326C32.1785 13.8326 32.0792 13.8326 31.9799 13.8326C31.8806 13.8326 31.7813 13.9359 31.7813 14.0391C31.7813 14.1423 31.7813 14.2455 31.8806 14.2455C31.9799 14.6584 32.0792 14.8649 32.2779 15.0713C32.2779 15.0713 32.3772 15.1746 32.3772 15.0713C32.6751 14.9681 32.9731 14.6584 33.0724 14.2455Z" fill="url(#paint8_radial)"/>
<path d="M31.4833 14.0393C31.4833 13.936 31.5826 13.936 31.6819 13.936C31.7812 13.936 31.7812 14.0393 31.7812 14.1425C31.7812 14.2457 31.6819 14.2457 31.5826 14.2457C31.4833 14.2457 31.4833 14.1425 31.4833 14.0393Z" fill="url(#paint9_linear)"/>
<path d="M31.583 14.0391V14.2455V14.0391C31.583 14.0391 31.4837 14.0391 31.583 14.0391Z" fill="url(#paint10_linear)"/>
<path d="M31.9798 14.0392C31.8805 14.0392 31.8805 13.936 31.9798 13.8328C32.0791 13.7296 32.0791 13.7296 32.1784 13.8328C32.2778 13.8328 32.2778 13.936 32.1784 14.0392C32.0791 14.1425 31.9798 14.1425 31.9798 14.0392Z" fill="url(#paint11_linear)"/>
<path d="M31.9795 13.936C31.8802 14.0393 31.8802 13.936 31.9795 13.936V13.936Z" fill="url(#paint12_linear)"/>
<path d="M32.0788 13.6264C31.9795 13.6264 31.9795 13.6264 31.8802 13.6264C31.8802 13.5231 31.8802 13.5231 31.8802 13.4199C31.9795 13.4199 31.9795 13.4199 32.0788 13.4199C32.1781 13.5231 32.1781 13.6264 32.0788 13.6264Z" fill="url(#paint13_linear)"/>
<path d="M31.9793 13.5229C32.0786 13.5229 31.9793 13.6262 31.9793 13.5229V13.5229Z" fill="url(#paint14_linear)"/>
<path d="M31.6807 13.3166C31.6807 13.4198 31.6807 13.4198 31.5814 13.5231C31.482 13.5231 31.482 13.5231 31.3827 13.4198C31.3827 13.3166 31.3827 13.3166 31.482 13.2134C31.6807 13.2134 31.6807 13.2134 31.6807 13.3166Z" fill="url(#paint15_linear)"/>
<path d="M31.6814 13.4198C31.6814 13.4198 31.5821 13.4198 31.6814 13.4198C31.5821 13.3166 31.5821 13.2134 31.6814 13.2134C31.6814 13.2134 31.7808 13.2134 31.6814 13.4198Z" fill="url(#paint16_linear)"/>
<path d="M31.3835 13.6265C31.4828 13.6265 31.4828 13.7297 31.3835 13.6265C31.4828 13.8329 31.3835 13.8329 31.3835 13.8329C31.2842 13.8329 31.2842 13.7297 31.3835 13.6265C31.2842 13.6265 31.1849 13.6265 31.3835 13.6265Z" fill="url(#paint17_linear)"/>
<path d="M31.3828 13.7288C31.3828 13.7288 31.3828 13.832 31.3828 13.7288C31.2835 13.832 31.1842 13.7288 31.1842 13.7288C31.2835 13.6256 31.2835 13.6256 31.3828 13.7288C31.3828 13.6256 31.3828 13.6256 31.3828 13.7288Z" fill="url(#paint18_linear)"/>
<path d="M31.8809 13.8324C31.8809 13.9357 31.7815 13.9357 31.6822 13.9357C31.5829 13.9357 31.5829 13.8324 31.5829 13.7292C31.5829 13.626 31.6822 13.626 31.7815 13.626C31.8809 13.626 31.8809 13.7292 31.8809 13.8324Z" fill="url(#paint19_radial)"/>
<path d="M9.63313 11.0449C8.44135 11.0449 7.54751 11.974 7.54751 13.2127C7.54751 14.4514 8.44135 15.3804 9.63313 15.3804C10.8249 15.3804 11.7188 14.4514 11.7188 13.2127C11.7188 12.0772 10.8249 11.0449 9.63313 11.0449Z" fill="url(#paint20_radial)"/>
<path d="M11.5204 13.0062H11.8184V12.6965L11.5204 12.7998V12.6965L11.8184 12.5933L11.7191 12.2836L11.4211 12.3869C11.4211 12.3869 11.4211 12.3869 11.4211 12.2836L11.7191 12.1804L11.6197 11.974L11.4211 12.1804C11.4211 12.1804 11.4211 12.1804 11.4211 12.0772L11.6197 11.8707L11.4211 11.6643L11.2225 11.8707C11.2225 11.8707 11.2225 11.8707 11.1232 11.7675L11.3218 11.5611L11.1232 11.3546L10.9245 11.5611C10.9245 11.5611 10.9245 11.5611 10.8252 11.5611L11.0238 11.3546L10.8252 11.2514L10.7259 11.5611C10.7259 11.5611 10.7259 11.5611 10.6266 11.5611L10.7259 11.2514L10.428 11.1481L10.3286 11.4578H10.2293L10.13 11.0449H9.83206V11.3546H9.73275V11.0449H9.43481V11.3546H9.33548V11.0449H9.03754L9.13686 11.3546H9.03754L8.93823 11.0449L8.64028 11.1481L8.7396 11.4578C8.7396 11.4578 8.7396 11.4578 8.64028 11.4578L8.54096 11.1481L8.34233 11.2514L8.54096 11.4578C8.54096 11.4578 8.54097 11.4578 8.44166 11.4578L8.24303 11.2514L8.04439 11.4578L8.24303 11.6643C8.24303 11.6643 8.24302 11.6643 8.14371 11.7675L7.94508 11.5611L7.74645 11.7675L8.14371 12.0772C8.14371 12.0772 8.14371 12.0772 8.14371 12.1804L7.94508 11.974L7.84576 12.1804L8.14371 12.2836C8.14371 12.2836 8.14371 12.2836 8.14371 12.3869L7.84576 12.2836L7.74645 12.5933L8.04439 12.6965V12.7998L7.74645 12.6965V13.0062H8.04439V13.1094H7.74645V13.4191H8.04439V13.5223H7.74645V13.832L8.04439 13.7288V13.832L7.74645 13.9352L7.84576 14.2449L8.14371 14.1417C8.14371 14.1417 8.14371 14.1417 8.14371 14.2449L7.84576 14.3481L7.94508 14.5546L8.14371 14.3481C8.14371 14.3481 8.14371 14.3481 8.14371 14.4514L7.94508 14.6578L8.14371 14.8643L8.34233 14.6578C8.34233 14.6578 8.34234 14.6578 8.44166 14.761L8.24303 14.9675L8.44166 15.174L8.64028 14.9675C8.64028 14.9675 8.64029 14.9675 8.7396 14.9675L8.54096 15.174L8.7396 15.2772L8.83891 14.9675C8.83891 14.9675 8.83892 14.9675 8.93823 14.9675L8.83891 15.2772L9.13686 15.3804V15.174H9.23618L9.13686 15.4836H9.43481V15.174H9.53411V15.4836H9.83206V15.174H9.93138V15.4836H10.2293L10.13 15.174H10.2293L10.3286 15.4836L10.6266 15.3804L10.5273 15.0707C10.5273 15.0707 10.5273 15.0707 10.6266 15.0707L10.7259 15.3804L10.9245 15.2772L10.7259 15.0707C10.7259 15.0707 10.7259 15.0707 10.8252 15.0707L11.0238 15.2772L11.2225 15.0707L11.0238 14.8643C11.0238 14.8643 11.0238 14.8643 11.1232 14.761L11.3218 14.9675L11.5204 14.761L11.3218 14.5546C11.3218 14.5546 11.3218 14.5546 11.3218 14.4514L11.5204 14.6578L11.6197 14.4514L11.3218 14.3481C11.3218 14.3481 11.3218 14.3481 11.3218 14.2449L11.6197 14.3481L11.7191 14.0385L11.4211 13.9352V13.832L11.7191 13.9352V13.6256H11.4211V13.5223H11.7191V13.1094L11.5204 13.0062C11.5204 13.1094 11.5204 13.1094 11.5204 13.0062Z" fill="url(#paint21_radial)"/>
<path d="M9.63332 11.6641C8.8388 11.6641 8.1436 12.3866 8.1436 13.2124C8.1436 14.0383 8.8388 14.7608 9.63332 14.7608C10.4278 14.7608 11.123 14.0383 11.123 13.2124C11.123 12.3866 10.4278 11.6641 9.63332 11.6641Z" fill="url(#paint22_radial)"/>
<path d="M5.36258 13.5225L5.56121 13.8321C5.66053 14.0386 5.85916 14.1418 6.05779 14.1418L11.7188 13.7289L11.0235 10.7354L6.65368 10.2192L5.36258 13.5225Z" fill="url(#paint23_radial)"/>
<path d="M9.63327 11.5615C8.54081 11.1485 7.24971 11.7679 6.85245 12.9034C6.45519 14.0389 7.05108 15.3808 8.14355 15.7937C9.23601 16.2066 10.5271 15.5873 10.9244 14.4518C11.3216 13.3163 10.7257 12.0776 9.63327 11.5615Z" fill="url(#paint24_radial)"/>
<path d="M10.7255 14.2452L11.0234 14.3484V14.0387H10.7255V13.9355H11.0234V13.6258H10.7255V13.5226H11.0234L10.9241 13.2129L10.6262 13.3162V13.2129L10.9241 13.1097L10.8248 12.8L10.5269 12.9033C10.5269 12.9033 10.5269 12.9033 10.5269 12.8L10.8248 12.6968L10.7255 12.4904L10.5269 12.6968C10.5269 12.6968 10.5269 12.6968 10.5269 12.5936L10.7255 12.3871L10.5269 12.1807L10.3282 12.3871C10.3282 12.3871 10.3282 12.3871 10.2289 12.2839L10.4276 12.0775L10.2289 11.871L10.0303 12.0775C10.0303 12.0775 10.0303 12.0775 9.93098 12.0775L10.1296 11.871L9.93098 11.7678L9.83166 12.0775C9.83166 12.0775 9.83167 12.0775 9.73236 12.0775L9.83166 11.7678L9.53371 11.6646L9.43441 11.9742H9.33509L9.43441 11.6646H9.13646V11.9742H9.03714V11.6646H8.73921V11.9742H8.63989V11.6646L8.34194 11.7678L8.44126 12.0775H8.34194L8.24263 11.7678L7.94468 11.871L8.04399 12.1807C8.04399 12.1807 8.044 12.1807 7.94468 12.1807L7.84536 11.871L7.64674 11.9742L7.84536 12.1807C7.84536 12.1807 7.84537 12.1807 7.74606 12.1807L7.54742 11.9742L7.34879 12.1807L7.54742 12.3871C7.54742 12.3871 7.54743 12.3871 7.44811 12.4904L7.24948 12.2839L7.05084 12.4904L7.24948 12.6968C7.24948 12.6968 7.24948 12.6968 7.24948 12.8L7.05084 12.5936L6.95154 12.8L7.24948 12.9033C7.24948 12.9033 7.24948 12.9033 7.24948 13.0065L6.95154 12.9033L6.85221 13.2129L7.15016 13.3162V13.4194L6.85221 13.3162V13.6258H7.15016V13.7291H6.85221V14.0387H7.15016V14.142H6.85221L6.95154 14.4516L7.24948 14.3484V14.4516L6.95154 14.5549L7.05084 14.8646L7.34879 14.7613C7.34879 14.7613 7.34879 14.7613 7.34879 14.8646L7.05084 14.9678L7.15016 15.1742L7.34879 14.9678C7.34879 14.9678 7.34879 14.9678 7.34879 15.071L7.15016 15.2775L7.34879 15.4839L7.54742 15.2775C7.54742 15.2775 7.54742 15.2775 7.64674 15.3807L7.44811 15.5871L7.64674 15.7936L7.84536 15.5871C7.84536 15.5871 7.84537 15.5871 7.94468 15.5871L7.74606 15.7936L7.94468 15.8968L8.04399 15.5871H8.14331L8.04399 15.8968L8.34194 16L8.44126 15.6904H8.54057L8.44126 16H8.73921V15.6904H8.83851V16H9.13646V15.6904H9.23578V16L9.53371 15.8968L9.43441 15.5871H9.53371L9.63303 15.8968L9.93098 15.7936L9.83166 15.4839C9.83166 15.4839 9.83167 15.4839 9.93098 15.4839L10.0303 15.7936L10.2289 15.6904L10.0303 15.4839C10.0303 15.4839 10.0303 15.4839 10.1296 15.4839L10.3282 15.6904L10.5269 15.4839L10.3282 15.2775C10.3282 15.2775 10.3282 15.2775 10.4276 15.1742L10.6262 15.3807L10.8248 15.1742L10.6262 14.9678C10.6262 14.9678 10.6262 14.9678 10.6262 14.8646L10.8248 15.071L10.9241 14.8646L10.6262 14.7613C10.6262 14.7613 10.6262 14.7613 10.6262 14.6581L10.9241 14.7613L11.0234 14.4516L10.7255 14.2452Z" fill="url(#paint25_radial)"/>
<path d="M10.2292 14.2457C9.93126 15.0716 9.13673 15.4845 8.34221 15.1748C7.54769 14.8651 7.15044 14.0393 7.44838 13.2135C7.74633 12.3877 8.54084 11.9748 9.33536 12.2845C10.1299 12.5941 10.5271 13.4199 10.2292 14.2457ZM10.1299 14.2457C10.3285 13.5232 10.0306 12.8006 9.33536 12.4909C8.64016 12.2845 7.94495 12.5941 7.64701 13.3167C7.44838 14.0393 7.74633 14.7619 8.44153 15.0716C9.13674 15.278 9.83194 14.8651 10.1299 14.2457Z" fill="url(#paint26_radial)"/>
<path d="M10.3287 14.2457C10.2294 14.5553 9.93147 14.865 9.73284 15.0715C9.53421 15.1747 9.33556 15.2779 9.03762 15.2779C8.83899 15.2779 8.64036 15.2779 8.54104 15.1747C8.34241 15.0715 8.14378 14.9683 8.04447 14.865L7.94516 14.7618C7.84585 14.6586 7.84585 14.6586 7.74654 14.5553C7.74654 14.4521 7.64722 14.4521 7.64722 14.3489L7.5479 14.2457C7.44858 13.936 7.44858 13.5231 7.5479 13.2134V13.1102L7.74654 12.8005L8.04447 12.4908C8.34241 12.2844 8.73968 12.1812 9.13694 12.1812L9.53419 12.2844L9.93146 12.4908C10.2294 12.6973 10.428 13.007 10.5273 13.4199V13.6263C10.5273 13.8328 10.5273 13.936 10.5273 14.1424L10.3287 14.2457ZM9.73284 12.5941C9.73284 12.5941 9.63351 12.5941 9.53419 12.5941C9.43488 12.6973 9.43488 12.8005 9.33557 12.9037C9.33557 13.007 9.23626 13.007 9.23626 13.1102C9.13695 13.3166 9.33556 13.5231 9.53419 13.5231C9.63351 13.5231 9.73283 13.5231 9.83214 13.5231C10.0308 13.5231 10.1301 13.5231 10.2294 13.4199C10.3287 13.4199 10.3287 13.3166 10.3287 13.3166C10.2294 13.007 10.0308 12.8005 9.73284 12.5941ZM8.04447 12.4908C7.94515 12.4908 7.94515 12.5941 8.04447 12.6973C8.14378 12.8005 8.1438 12.9037 8.24311 13.007C8.34243 13.1102 8.34242 13.1102 8.44174 13.2134C8.64037 13.3166 8.83899 13.3166 8.83899 13.1102C8.83899 13.007 8.839 12.9037 8.93831 12.9037C8.93831 12.8005 8.93831 12.5941 8.93831 12.4908C8.93831 12.3876 8.83899 12.3876 8.83899 12.3876C8.64036 12.2844 8.34241 12.2844 8.04447 12.4908ZM7.44859 14.1424C7.44859 14.2457 7.5479 14.2457 7.5479 14.2457C7.64721 14.2457 7.74653 14.1424 7.94516 14.1424C8.04448 14.1424 8.04448 14.0392 8.14379 14.0392C8.34242 13.936 8.34242 13.6263 8.14379 13.5231C8.04448 13.4199 8.04448 13.4199 7.94516 13.4199C7.84585 13.3166 7.74653 13.3166 7.64722 13.2134C7.5479 13.2134 7.5479 13.2134 7.5479 13.3166C7.44858 13.5231 7.44859 13.8328 7.44859 14.1424ZM8.83899 15.2779C8.93831 15.2779 8.93831 15.2779 8.93831 15.1747C8.93831 15.0715 8.93831 14.9683 8.93831 14.7618C8.93831 14.6586 8.93831 14.5553 8.83899 14.5553C8.83899 14.3489 8.54105 14.2457 8.44174 14.3489C8.34242 14.4521 8.34243 14.4521 8.24311 14.5553C8.1438 14.6586 8.04448 14.7618 7.94516 14.865C7.94516 14.9683 7.94516 14.9683 7.94516 15.0715C8.04448 15.1747 8.2431 15.2779 8.34242 15.2779C8.54105 15.2779 8.64036 15.2779 8.83899 15.2779ZM9.53419 14.9683C9.53419 15.0715 9.63352 15.0715 9.73284 14.9683C9.93147 14.7618 10.1301 14.5553 10.2294 14.2457C10.2294 14.1424 10.2294 14.1424 10.1301 14.1424C10.0308 14.1424 9.93147 14.0392 9.73284 14.0392C9.63352 14.0392 9.5342 14.0392 9.43489 14.0392C9.23626 14.0392 9.03763 14.2457 9.13694 14.4521C9.13694 14.5553 9.23626 14.6586 9.23626 14.6586C9.43489 14.7618 9.53419 14.865 9.53419 14.9683Z" fill="url(#paint27_radial)"/>
<path d="M10.4282 14.2455C10.1303 15.1746 9.13714 15.6907 8.2433 15.2778C7.44878 14.9681 7.05152 14.0391 7.25015 13.2133C7.5481 12.2842 8.54124 11.7681 9.43508 12.181C10.2296 12.4907 10.7262 13.4197 10.4282 14.2455ZM9.63371 12.3875H9.53438C9.43507 12.5939 9.33576 12.8004 9.13713 13.2133C9.13713 13.2133 9.13712 13.3165 9.03781 13.4197C9.03781 13.5229 9.03782 13.6262 9.13713 13.6262C9.23645 13.6262 9.33576 13.6262 9.33576 13.6262C9.73302 13.6262 10.031 13.6262 10.2296 13.5229L10.3289 13.4197C10.2296 13.0068 10.031 12.6971 9.63371 12.3875ZM7.94535 12.5939C8.04467 12.9036 8.24329 13.11 8.54123 13.3165C8.54123 13.3165 8.64056 13.4197 8.73988 13.4197C8.83919 13.5229 8.9385 13.4197 8.9385 13.3165C8.9385 13.2133 9.03781 13.11 9.03781 13.11C9.13712 12.6971 9.23645 12.4907 9.23645 12.181C9.23645 12.181 9.23645 12.0778 9.13713 12.0778C8.64056 12.181 8.2433 12.2842 7.94535 12.5939ZM7.54809 14.3488C7.54809 14.3488 7.64741 14.452 7.64741 14.3488C7.84604 14.2455 8.14398 14.1423 8.44193 13.9358C8.44193 13.9358 8.54124 13.8326 8.64056 13.8326C8.73987 13.7294 8.73987 13.6262 8.64056 13.5229C8.54124 13.4197 8.54124 13.4197 8.44193 13.4197C8.14398 13.2133 7.84604 13.0068 7.64741 13.0068H7.54809C7.54809 13.11 7.44878 13.11 7.44878 13.2133C7.34946 13.6262 7.34946 13.9358 7.54809 14.3488ZM8.34261 15.1746C8.54124 15.2778 8.73987 15.2778 8.9385 15.2778C8.9385 15.2778 9.03781 15.2778 9.03781 15.1746C9.03781 14.9681 9.03782 14.6584 8.9385 14.2455C8.9385 14.2455 8.9385 14.1423 8.83918 14.0391C8.83918 13.9359 8.73987 13.9358 8.64056 13.9358C8.54124 13.9358 8.54124 14.0391 8.44193 14.0391C8.14398 14.2455 7.94536 14.452 7.74673 14.6584V14.7617C7.94536 14.9681 8.14398 15.0713 8.34261 15.1746ZM10.2296 14.2455C10.2296 14.1423 10.2296 14.1423 10.3289 14.0391C10.3289 14.0391 10.3289 13.9358 10.2296 13.9358C10.031 13.8326 9.73302 13.8326 9.33576 13.8326C9.33576 13.8326 9.23645 13.8326 9.13713 13.8326C9.03782 13.8326 8.9385 13.9359 8.9385 14.0391C8.9385 14.1423 8.93849 14.2455 9.03781 14.2455C9.13712 14.6584 9.23645 14.8649 9.43508 15.0713C9.43508 15.0713 9.53438 15.1746 9.53438 15.0713C9.83233 14.9681 10.1303 14.6584 10.2296 14.2455Z" fill="url(#paint28_radial)"/>
<path d="M8.64053 14.0393C8.64053 13.936 8.73984 13.936 8.83916 13.936C8.93847 13.936 8.93848 14.0393 8.93848 14.1425C8.93848 14.2457 8.83916 14.2457 8.73985 14.2457C8.64053 14.2457 8.64053 14.1425 8.64053 14.0393Z" fill="url(#paint29_linear)"/>
<path d="M8.73956 14.0391L8.83887 14.1423L8.73956 14.2455L8.64024 14.1423C8.64024 14.0391 8.73956 14.0391 8.73956 14.0391Z" fill="url(#paint30_linear)"/>
<path d="M9.13704 14.0392C9.03773 14.0392 9.03773 13.936 9.13704 13.8328C9.13704 13.7296 9.23636 13.7296 9.33567 13.8328C9.43498 13.8328 9.43498 13.936 9.33567 14.0392C9.23636 14.1425 9.13704 14.1425 9.13704 14.0392Z" fill="url(#paint31_linear)"/>
<path d="M9.13701 13.936H9.23633V14.0393L9.13701 13.936C9.03769 13.936 9.13701 14.0393 9.13701 13.936Z" fill="url(#paint32_linear)"/>
<path d="M9.23606 13.6264C9.13675 13.6264 9.13673 13.6264 9.03742 13.6264C9.03742 13.5231 9.03742 13.5231 9.03742 13.4199C9.13673 13.4199 9.13675 13.4199 9.23606 13.4199C9.33538 13.5231 9.33538 13.6264 9.23606 13.6264Z" fill="url(#paint33_linear)"/>
<path d="M9.13603 13.5232L9.23535 13.4199V13.5232C9.23535 13.6264 9.13603 13.6264 9.13603 13.5232Z" fill="url(#paint34_linear)"/>
<path d="M8.93848 13.3166C8.93848 13.4198 8.93847 13.4198 8.83916 13.5231C8.73984 13.5231 8.73984 13.5231 8.64053 13.4198C8.64053 13.3166 8.64053 13.3166 8.73985 13.2134C8.83916 13.2134 8.83916 13.2134 8.93848 13.3166Z" fill="url(#paint35_linear)"/>
<path d="M8.83916 13.4198C8.83916 13.4198 8.73985 13.4198 8.73985 13.3166C8.73985 13.3166 8.73984 13.2134 8.83916 13.2134C8.83916 13.2134 8.93848 13.2134 8.93848 13.3166C8.83916 13.4198 8.83916 13.4198 8.83916 13.4198Z" fill="url(#paint36_linear)"/>
<path d="M8.5413 13.6265C8.64062 13.6265 8.64062 13.7297 8.64062 13.7297C8.64062 13.8329 8.5413 13.8329 8.5413 13.8329C8.44199 13.8329 8.442 13.7297 8.442 13.7297C8.34268 13.6265 8.44199 13.6265 8.5413 13.6265Z" fill="url(#paint37_linear)"/>
<path d="M8.54102 13.7288C8.54102 13.7288 8.54102 13.832 8.54102 13.7288C8.4417 13.832 8.34239 13.7288 8.34239 13.7288C8.4417 13.6256 8.4417 13.6256 8.54102 13.7288C8.54102 13.6256 8.54102 13.6256 8.54102 13.7288Z" fill="url(#paint38_linear)"/>
<path d="M9.03809 13.8324C9.03809 13.9357 8.93877 13.9357 8.83946 13.9357C8.74014 13.9357 8.74015 13.8324 8.74015 13.7292C8.74015 13.626 8.83946 13.626 8.93878 13.626C9.0381 13.626 9.03809 13.7292 9.03809 13.8324Z" fill="url(#paint39_radial)"/>
<path d="M20.7567 14.5547H16.4862L16.1883 14.3483H14.3013L13.904 14.5547H12.5136C12.315 14.5547 12.2157 14.3482 12.2157 14.245V14.0386H21.0547V14.245C21.0547 14.4515 20.9554 14.5547 20.7567 14.5547Z" fill="url(#paint40_radial)"/>
<path d="M5.46278 13.1097C5.46278 13.1097 5.56209 13.6258 5.56209 14.0387C5.56209 14.4516 5.46278 15.071 5.46278 15.1742C5.46278 15.1742 5.66141 14.9677 5.66141 14.8645C5.66141 14.6581 5.76072 14.3484 5.86004 13.9355C5.95935 13.0065 5.56209 12.6968 5.56209 12.6968L5.46278 13.1097Z" fill="url(#paint41_linear)"/>
<path d="M28.702 13.2127C28.702 13.2127 28.8014 13.7288 28.8014 14.1417C28.8014 14.5546 28.702 15.174 28.702 15.2772C28.702 15.2772 28.9007 15.0708 28.9007 14.9675C28.9007 14.7611 29 14.4514 29.0993 14.0385C29.1986 13.1095 28.8014 12.7998 28.8014 12.7998L28.702 13.2127Z" fill="url(#paint42_linear)"/>
<path d="M36.5473 9.39355C35.3555 8.36129 32.5747 6.8129 32.5747 6.8129H32.376C32.376 6.8129 28.9 3.2 27.8076 2.06452C26.6158 0.722581 25.0267 0 21.3521 0C21.2528 0 21.2528 0 20.6569 0H2.1843C1.29047 0 0.992523 0.51613 0.893208 1.23871C0.793892 2.7871 0.495953 4.64516 0.495953 5.78065C0.495953 6.70968 0.495945 11.6645 0.595261 13.0065C0.595261 13.2129 0.694576 13.4194 0.893208 13.4194L2.48225 14.0387H5.85895L6.45485 12.1806C6.55416 11.7677 6.95142 11.5613 7.34868 11.5613H10.2288C10.6261 11.5613 11.0233 11.871 11.1226 12.1806L11.7185 14.1419H12.9103H16.4857H29.0987V12.2839C31.3829 9.6 34.1637 11.2516 34.1637 13.5226V14.1419L34.3623 14.0387L36.5473 13.5226C36.5473 13.6258 37.3418 10.1161 36.5473 9.39355Z" fill="url(#paint43_linear)"/>
<path d="M0.596176 13.2129L2.48317 14.0387H5.85987L6.45577 12.0774C6.55508 11.6645 6.95234 11.4581 7.3496 11.4581H10.2297C10.627 11.4581 11.0243 11.7677 11.1236 12.0774L11.7195 14.0387H29.0996V12.1807C31.3838 9.49678 34.1646 11.1484 34.1646 13.4194V14.1419H34.2639L34.3633 14.0387L36.5482 13.5226C36.5482 13.5226 37.3427 10.1161 36.0516 9.39355H0.000297546L0.596176 13.2129Z" fill="url(#paint44_linear)"/>
<path d="M36.25 13.626C36.25 10.9422 34.1644 8.77441 31.5822 8.77441C29 8.77441 26.9144 10.9422 26.9144 13.626C26.9144 13.8325 26.9144 14.0389 26.9144 14.1422H29.1986V12.2841C31.4829 9.60022 34.2637 11.2518 34.2637 13.5228V14.1422L34.4623 14.0389L36.25 13.626Z" fill="url(#paint45_radial)"/>
<path d="M34.8594 13.626C34.8594 11.7679 33.3696 10.3228 31.6813 10.3228C29.8936 10.3228 28.5032 11.8711 28.5032 13.626V14.0389H29.0991V13.626C29.0991 12.1808 30.1916 10.9421 31.6813 10.9421C33.171 10.9421 34.2635 12.1808 34.2635 13.626H34.8594Z" fill="#B8B8BE"/>
<path d="M35.8532 11.4581H36.9456C37.0449 10.529 36.9456 9.70323 36.5484 9.39355H35.8532V11.4581Z" fill="url(#paint46_linear)"/>
<path d="M29.1982 13.9355H23.3387V14.3485H29.1982V13.9355Z" fill="url(#paint47_linear)"/>
<path d="M36.9453 11.5614C36.9453 11.2518 33.9659 11.355 33.8666 11.4582C33.8666 11.4582 34.3631 11.9743 34.5618 12.8001C34.7604 13.4195 34.7604 14.1421 34.7604 14.1421C34.7604 14.1421 36.3494 14.0389 36.7467 13.7292C36.9453 13.5227 36.9453 11.7679 36.9453 11.5614Z" fill="url(#paint48_linear)"/>
<path d="M34.9589 11.4579C34.9589 11.5612 35.1575 13.2128 35.4554 13.5225C35.6541 13.7289 36.5479 13.6257 36.6472 13.6257C36.7465 13.6257 37.1438 12.2837 36.9452 11.5612C36.8458 11.3547 34.9589 11.3547 34.9589 11.4579Z" fill="#7F7F83"/>
<path d="M34.9583 11.4583C34.9583 11.5615 35.1569 13.1099 35.4548 13.3163C35.6535 13.5228 36.448 13.4196 36.5473 13.4196C36.6466 13.4196 36.9446 12.0776 36.8452 11.4583C36.8452 11.3551 35.0576 11.3551 34.9583 11.4583Z" fill="#868688"/>
<path d="M35.0583 11.4584C35.0583 11.5617 35.2569 13.0068 35.4555 13.2133C35.6541 13.4197 36.3494 13.3165 36.4487 13.3165C36.548 13.3165 36.8459 12.0778 36.7466 11.5617C36.7466 11.3552 35.0583 11.3552 35.0583 11.4584Z" fill="#8C8C8E"/>
<path d="M35.1569 11.4583C35.1569 11.5615 35.3555 12.8002 35.5541 13.0067C35.7528 13.2131 36.3487 13.1099 36.5473 13.1099C36.6466 13.1099 36.9446 11.9744 36.8452 11.4583C36.7459 11.3551 35.1569 11.3551 35.1569 11.4583Z" fill="#939393"/>
<path d="M35.2572 11.5616C35.2572 11.6648 35.4558 12.8003 35.6544 13.0067C35.7538 13.2132 36.449 13.11 36.5483 13.11C36.6476 13.11 36.9455 11.9745 36.8462 11.5616C36.7469 11.4584 35.2572 11.3551 35.2572 11.5616Z" fill="#999998"/>
<path d="M35.2566 11.5616C35.2566 11.6648 35.4553 12.6971 35.6539 12.8003C35.7532 12.9035 36.3491 13.0067 36.4484 13.0067C36.5477 13.0067 36.8457 11.9745 36.6471 11.5616C36.6471 11.4584 35.356 11.3551 35.2566 11.5616Z" fill="#A0A09E"/>
<path d="M35.3557 11.5613C35.3557 11.6645 35.6536 12.4903 35.7529 12.6967C35.8522 12.8 36.3488 12.9032 36.4481 12.9032C36.5474 12.9032 36.7461 11.9742 36.6468 11.6645C36.6468 11.458 35.3557 11.3548 35.3557 11.5613Z" fill="#A6A6A3"/>
<path d="M35.4549 11.5616C35.4549 11.6648 35.7529 12.3874 35.8522 12.4906C35.9515 12.5938 36.4481 12.6971 36.4481 12.6971C36.4481 12.6971 36.746 11.8713 36.6467 11.5616C36.6467 11.4584 35.4549 11.3551 35.4549 11.5616Z" fill="#ADADA9"/>
<path d="M35.455 11.5613C35.455 11.6645 35.7529 12.2839 35.8522 12.3871C35.9516 12.4903 36.3488 12.5936 36.4481 12.5936C36.5474 12.5936 36.7461 11.7678 36.6468 11.5613C36.6468 11.4581 35.5543 11.4581 35.455 11.5613Z" fill="#B3B3AE"/>
<path d="M35.5543 11.5617C35.5543 11.6649 35.8522 12.0778 35.9516 12.1811C36.0509 12.2843 36.3488 12.3875 36.4481 12.3875C36.5474 12.3875 36.7461 11.6649 36.6468 11.4585C36.5474 11.4585 35.5543 11.4585 35.5543 11.5617Z" fill="#BABAB3"/>
<path d="M35.6543 11.5613C35.6543 11.6645 35.9523 11.9742 36.0516 12.0774C36.1509 12.1807 36.3495 12.2839 36.4488 12.2839C36.5481 12.2839 36.6475 11.6645 36.6475 11.5613C36.5481 11.4581 35.6543 11.4581 35.6543 11.5613Z" fill="#C0C0B9"/>
<path d="M35.7536 11.5615C35.7536 11.6647 36.0516 11.8712 36.1509 11.8712C36.1509 11.9744 36.4488 12.1809 36.4488 12.1809C36.4488 12.1809 36.6475 11.6647 36.6475 11.5615C36.5481 11.5615 35.7536 11.4583 35.7536 11.5615Z" fill="#C7C7BE"/>
<path d="M36.4487 13.1095C36.1508 13.2127 35.0583 13.1095 34.8597 13.1095C34.8597 13.6256 34.8597 13.9353 34.8597 13.9353C34.8597 13.9353 36.4487 13.8321 36.846 13.5224C36.9453 13.4192 36.9453 13.2127 36.9453 12.7998C36.7467 13.1095 36.6474 13.1095 36.4487 13.1095Z" fill="url(#paint49_linear)"/>
<path d="M36.9453 11.5614C36.9453 11.2518 33.9659 11.355 33.8666 11.4582L33.9659 11.6647C34.4624 11.5614 35.9522 11.4582 36.4487 11.5614C36.6474 11.5614 36.9453 11.6647 36.9453 11.5614Z" fill="url(#paint50_linear)"/>
<path d="M1.7881 0.103027C1.29153 0.309479 0.993574 0.722383 0.894259 1.23851C0.794944 2.7869 0.497005 4.64496 0.497005 5.78045C0.497005 6.70948 0.496996 11.6643 0.596311 13.0063C0.596311 13.2127 0.695629 13.4192 0.894259 13.4192L2.4833 14.0385H2.78125L1.7881 0.103027Z" fill="url(#paint51_linear)"/>
<path d="M11.719 13.9355H23.3389V14.142H11.8183L11.719 13.9355Z" fill="url(#paint52_linear)"/>
<path d="M1.68815 13.9355H5.06485L5.85938 14.142H2.48267L1.68815 13.9355Z" fill="url(#paint53_linear)"/>
<path d="M2.48242 14.1419L0.694748 13.6257C0.595433 13.6257 0.595436 13.5225 0.49612 13.5225V11.9741C0.49612 11.9741 0.496111 11.9741 0.595426 11.9741L2.48242 12.0773V14.1419Z" fill="#7F7F83"/>
<path d="M0.595428 11.8708V11.7676H2.48242V11.974L0.595428 11.8708Z" fill="url(#paint54_linear)"/>
<path d="M0.695312 11.8711H0.595991H0.496685V13.4195C0.496685 13.5227 0.595997 13.5227 0.695312 13.5227V11.8711Z" fill="url(#paint55_linear)"/>
<path d="M31.0857 6.81295C30.8871 6.6065 29.3973 4.85166 29.1987 4.54198C28.3049 3.50972 27.709 2.99359 27.8083 2.89037C27.9076 2.78714 29.0994 4.02585 29.3973 4.33553C29.6953 4.64521 30.9864 6.09037 31.2843 6.40005C31.8802 7.0194 32.2775 7.4323 32.1781 7.53553C32.1781 7.63876 31.3836 7.22585 31.0857 6.81295Z" fill="#7F7F83"/>
<path d="M31.2839 6.5032C30.986 6.19352 29.6949 4.85158 29.4962 4.54191C29.2976 4.23223 28.1058 3.09674 28.0065 3.19997C27.9072 3.30319 28.5031 3.81932 29.2976 4.74836C29.4962 5.05803 30.8866 6.60642 31.0853 6.9161C31.3832 7.22578 32.1777 7.63868 32.1777 7.63868C32.1777 7.43223 31.8798 7.01932 31.2839 6.5032Z" fill="#848488"/>
<path d="M31.2839 6.50329C30.986 6.19362 29.7942 4.95491 29.5956 4.64523C29.3969 4.43878 28.3045 3.30329 28.2051 3.40652C28.1058 3.50975 28.6024 3.92265 29.3969 4.85168C29.5956 5.16136 30.8867 6.60652 31.0853 6.81297C31.3832 7.12265 31.9791 7.43233 32.0784 7.43233C32.1777 7.3291 31.7805 7.01942 31.2839 6.50329Z" fill="#89898E"/>
<path d="M31.2848 6.50352C30.9868 6.19384 29.8944 5.05835 29.6957 4.74868C29.4971 4.54222 28.504 3.50997 28.4047 3.61319C28.3053 3.71642 28.8019 4.12932 29.4971 4.95513C29.6958 5.26481 30.8875 6.60674 31.0862 6.81319C31.2848 7.01964 31.8807 7.43255 31.98 7.32932C32.0793 7.32932 31.7814 6.91642 31.2848 6.50352Z" fill="#8F8F93"/>
<path d="M31.2843 6.50337C30.9863 6.19369 29.9932 5.16144 29.7946 4.85176C29.5959 4.64531 28.7021 3.71627 28.6028 3.8195C28.5035 3.92273 29 4.33563 29.5959 5.05821C29.7945 5.36789 30.887 6.6066 31.0856 6.81305C31.2843 7.0195 31.7809 7.32918 31.8802 7.32918C31.9795 7.22595 31.6815 6.91628 31.2843 6.50337Z" fill="#949498"/>
<path d="M31.2848 6.5035C30.9868 6.29705 30.093 5.16156 29.8943 4.95511C29.6957 4.74866 28.9012 3.92285 28.8019 3.92285C28.7026 4.02608 29.0998 4.33576 29.6957 5.05834C29.9937 5.36801 30.8875 6.5035 31.0861 6.70995C31.2848 6.9164 31.682 7.12285 31.7813 7.12285C31.8806 7.12285 31.682 6.9164 31.2848 6.5035Z" fill="#99999E"/>
<path d="M31.2847 6.5031C31.086 6.29665 30.1922 5.26439 29.9936 5.05794C29.7949 4.85149 29.0997 4.12891 29.0004 4.12891C28.9011 4.23213 29.2984 4.54181 29.8943 5.16116C30.1922 5.47084 30.9867 6.5031 31.1854 6.70955C31.384 6.81278 31.6819 7.12246 31.7812 7.01923C31.7812 7.01923 31.5826 6.81278 31.2847 6.5031Z" fill="#9E9EA3"/>
<path d="M31.2844 6.60671C31.0858 6.40026 30.2912 5.47122 30.0926 5.26477C29.894 5.05832 29.2981 4.43896 29.1988 4.43896C29.0995 4.54219 29.4967 4.85187 29.9933 5.368C30.2912 5.67767 30.9864 6.60671 31.1851 6.70993C31.2844 6.81316 31.5823 7.01961 31.6816 7.01961C31.6816 7.01961 31.5823 6.81316 31.2844 6.60671Z" fill="#A3A3A9"/>
<path d="M31.2841 6.60659C31.0855 6.40014 30.3903 5.57434 30.1916 5.36788C29.993 5.16143 29.4964 4.54208 29.3971 4.6453C29.3971 4.6453 29.5957 4.95498 30.0923 5.47111C30.3903 5.78079 30.9861 6.60659 31.1848 6.70982C31.2841 6.81304 31.4827 6.91627 31.582 6.91627C31.582 6.91627 31.4827 6.70982 31.2841 6.60659Z" fill="#A8A8AE"/>
<path d="M31.2848 6.60652C31.0861 6.40007 30.4903 5.67749 30.2916 5.57426C30.1923 5.36781 29.6957 4.85168 29.5964 4.9549C29.5964 4.9549 29.795 5.26458 30.1923 5.67748C30.4902 5.98716 30.9868 6.70974 31.1855 6.81297C31.2848 6.81297 31.3841 6.91619 31.4834 6.91619C31.4834 6.81297 31.4834 6.70974 31.2848 6.60652Z" fill="#AEAEB3"/>
<path d="M31.2845 6.60649C31.0858 6.50327 30.5893 5.78068 30.3906 5.67746C30.2913 5.57423 29.8941 5.05811 29.7948 5.05811C29.7948 5.05811 29.9934 5.36778 30.2913 5.67746C30.6886 6.09036 31.1852 6.60649 31.2845 6.60649C31.2845 6.70972 31.3838 6.81294 31.3838 6.70972C31.3838 6.70972 31.3838 6.70972 31.2845 6.60649Z" fill="#B3B3B9"/>
<path d="M31.2839 6.60659C31.1846 6.50336 30.5887 5.884 30.4894 5.78078C30.3901 5.67755 30.0921 5.26465 29.9928 5.26465C29.9928 5.26465 30.0921 5.4711 30.3901 5.78078C30.7873 6.19368 31.1846 6.70981 31.2839 6.60659C31.2839 6.70981 31.2839 6.70981 31.2839 6.60659C31.3832 6.60659 31.3832 6.70981 31.2839 6.60659Z" fill="#B8B8BE"/>
<path d="M36.5481 9.39363C35.3564 8.36138 32.5756 6.81299 32.5756 6.81299H32.3769H31.781C31.781 6.81299 31.9797 7.01944 32.079 7.12267C32.2776 7.22589 35.2571 8.87751 35.4557 9.08396C35.7536 9.29041 35.9523 9.60009 35.9523 9.60009L36.6475 9.70331C36.6475 9.49686 36.5481 9.49686 36.5481 9.39363Z" fill="url(#paint56_linear)"/>
<path d="M36.8459 10.8385C36.8459 10.8385 35.6541 10.8385 35.4555 10.7353C35.2568 10.6321 34.7603 8.98047 34.8596 8.98047C35.0582 8.98047 36.3493 9.29015 36.6472 9.70305C36.9452 10.0127 37.0445 10.7353 36.8459 10.8385Z" fill="url(#paint57_linear)"/>
<path d="M36.8459 10.8385C36.8459 10.8385 35.6541 10.8385 35.4555 10.7353C35.2568 10.6321 34.7603 8.98047 34.8596 8.98047C35.0582 8.98047 36.3493 9.29015 36.6472 9.70305C36.9452 10.0127 37.0445 10.7353 36.8459 10.8385Z" fill="url(#paint58_linear)"/>
<path d="M36.8459 10.8385C36.8459 10.8385 35.6541 10.8385 35.4555 10.7353C35.2568 10.6321 34.7603 8.98047 34.8596 8.98047C35.0582 8.98047 36.3493 9.29015 36.6472 9.70305C36.9452 10.0127 37.0445 10.7353 36.8459 10.8385Z" fill="url(#paint59_linear)"/>
<path opacity="0.5238" d="M34.959 8.98047C34.959 8.98047 35.0583 8.98047 35.1576 8.98047C35.1576 9.39337 35.5549 10.5289 35.7535 10.6321C35.8529 10.7353 36.5481 10.7353 36.9453 10.7353C36.9453 10.7353 36.9453 10.8385 36.846 10.8385C36.846 10.8385 35.6542 10.8385 35.4556 10.7353C35.3563 10.5289 34.7604 8.98047 34.959 8.98047Z" fill="white"/>
<path d="M36.2502 10.2192C35.9523 9.80628 35.1577 9.29015 34.9591 9.29015C34.9591 9.08369 34.9591 8.98047 34.9591 8.98047C35.1577 8.98047 36.4488 9.29015 36.7468 9.70305C36.9454 10.0127 37.0447 10.7353 36.9454 10.9418C36.5482 10.8385 36.4488 10.4256 36.2502 10.2192Z" fill="url(#paint60_linear)"/>
<path d="M36.0514 10.2193C36.0514 10.4258 36.0514 10.529 36.1507 10.529C36.25 10.529 36.25 10.4258 36.25 10.2193C36.25 10.0129 36.25 9.90967 36.1507 9.90967C36.1507 9.90967 36.0514 10.0129 36.0514 10.2193Z" fill="url(#paint61_linear)"/>
<path d="M36.25 9.90987C36.1507 9.90987 36.1507 10.0131 36.1507 10.2195C36.1507 10.426 36.1507 10.5292 36.25 10.5292L35.3562 10.3228L35.1575 9.80664L36.25 9.90987Z" fill="url(#paint62_linear)"/>
<path d="M36.3492 10.3225C36.3492 10.5289 36.3492 10.6322 36.4485 10.6322C36.5479 10.6322 36.5479 10.5289 36.5479 10.3225C36.5479 10.116 36.5479 10.0128 36.4485 10.0128C36.4485 9.90958 36.3492 10.116 36.3492 10.3225Z" fill="url(#paint63_linear)"/>
<path d="M34.9577 8.98075C34.9577 9.08398 36.2488 9.49688 36.4475 9.70333C36.6461 9.90978 36.8447 10.7356 36.8447 10.7356C36.8447 10.7356 36.7454 9.80656 36.5468 9.70333C36.3481 9.49688 34.9577 8.87753 34.9577 8.98075Z" fill="url(#paint64_linear)"/>
<path d="M1.19169 10.9418H0.5958C0.496485 10.9418 0.496494 10.8385 0.496494 10.8385V8.56758C0.496494 8.46436 0.5958 8.46436 0.5958 8.46436H1.19169C1.29101 8.46436 1.29102 8.56758 1.29102 8.56758V10.8385C1.29102 10.9418 1.19169 10.9418 1.19169 10.9418Z" fill="#BD0000"/>
<path d="M1.19169 10.9418H0.5958C0.496485 10.9418 0.496494 10.8385 0.496494 10.8385V8.56758C0.496494 8.46436 0.5958 8.46436 0.5958 8.46436H1.19169C1.29101 8.46436 1.29102 8.56758 1.29102 8.56758V10.8385C1.29102 10.9418 1.19169 10.9418 1.19169 10.9418Z" fill="#BD0000"/>
<path d="M0.595509 8.56738H1.19141V9.18674H0.595509V8.56738Z" fill="url(#paint65_linear)"/>
<path d="M0.4963 8.87706C0.4963 9.08351 0.595612 9.18674 0.694927 9.18674C0.794242 9.18674 0.893555 9.08351 0.893555 8.87706C0.893555 8.67061 0.794242 8.56738 0.694927 8.56738C0.595612 8.56738 0.4963 8.77383 0.4963 8.87706Z" fill="#E50000"/>
<path d="M0.595509 9.39355H1.19141V10.0129H0.595509V9.39355Z" fill="url(#paint66_linear)"/>
<path d="M0.596279 10.0129C0.486579 10.0129 0.397652 9.87426 0.397652 9.70323C0.397652 9.5322 0.486579 9.39355 0.596279 9.39355C0.70598 9.39355 0.794922 9.5322 0.794922 9.70323C0.794922 9.87426 0.70598 10.0129 0.596279 10.0129Z" fill="#E50000"/>
<path d="M0.595509 10.2192H1.19141V10.8386H0.595509V10.2192Z" fill="url(#paint67_linear)"/>
<path d="M0.596279 10.8386C0.486579 10.8386 0.397652 10.6999 0.397652 10.5289C0.397652 10.3579 0.486579 10.2192 0.596279 10.2192C0.70598 10.2192 0.794922 10.3579 0.794922 10.5289C0.794922 10.6999 0.70598 10.8386 0.596279 10.8386Z" fill="#E50000"/>
<path d="M0.69548 10.8383H0.596159C0.496844 10.8383 0.496853 10.7351 0.496853 10.7351V8.67061C0.496853 8.56738 0.596159 8.56738 0.596159 8.56738H0.69548C0.794795 8.56738 0.794801 8.67061 0.794801 8.67061V10.7351C0.894116 10.8384 0.794795 10.8383 0.69548 10.8383Z" fill="url(#paint68_linear)"/>
<path opacity="0.2" d="M0.496397 10.8385L0.397076 8.56758C0.397076 8.56758 0.397082 8.46436 0.496397 8.46436C0.496397 8.46436 0.595703 8.46436 0.595703 8.56758L0.496397 10.8385C0.595712 10.8385 0.595712 10.8385 0.496397 10.8385Z" fill="white"/>
<path d="M1.19169 8.46436H0.993069C1.09238 8.46436 1.09237 8.46436 1.09237 8.56758V10.8385C1.09237 10.9418 0.993069 10.9418 0.993069 10.9418H1.19169C1.19169 10.9418 1.29102 10.8385 1.29102 10.7353V8.56758L1.19169 8.46436Z" fill="#BD0000"/>
<path d="M11.3216 12.8H29.1982V12.1807H11.1229L11.3216 12.8Z" fill="#7F7F83"/>
<path d="M6.25645 12.8H2.48248V12.1807H6.45508L6.25645 12.8Z" fill="#7F7F83"/>
<path d="M34.8594 13.6258C34.8594 11.8709 33.469 10.3226 31.6813 10.4258C29.9929 10.4258 28.6025 11.9742 28.6025 13.729V14.4516C28.6025 14.5548 28.6025 14.5548 28.7018 14.5548H29.0991C29.1984 14.5548 29.1984 14.5548 29.1984 14.4516V13.729C29.1984 12.2838 30.2909 11.0451 31.6813 11.0451C33.0717 11.0451 34.2635 12.1806 34.2635 13.729V14.3484H34.4621L34.8594 14.2451V13.6258Z" fill="url(#paint69_linear)"/>
<path d="M24.6305 3.09668H26.9147C27.312 3.09668 27.6099 3.30313 27.9079 3.50958L30.3907 6.19345C30.6887 6.50313 30.49 7.01926 30.0928 6.91604L24.6305 6.70958C24.4318 6.70958 24.3325 6.50313 24.3325 6.29668V3.40636C24.2332 3.30313 24.4318 3.09668 24.6305 3.09668Z" fill="#232628"/>
<path d="M30.0927 6.8129L24.6304 6.60645C24.531 6.60645 24.4317 6.50322 24.4317 6.4V3.50968C24.4317 3.40645 24.531 3.30322 24.6304 3.30322H26.9146C27.2125 3.30322 27.5105 3.40645 27.8084 3.71613L30.2913 6.4C30.3906 6.50322 30.3906 6.60645 30.3906 6.70967C30.2913 6.70967 30.192 6.8129 30.0927 6.8129Z" fill="url(#paint70_linear)"/>
<path d="M30.2918 6.60616L30.1925 6.70938L29.5966 6.09003L29.4973 6.70938H28.5041L28.6034 6.39971H28.4048L28.3055 6.70938H28.2062C28.2062 6.70938 28.4048 5.5739 28.7028 5.5739C29.0007 5.47068 29.1 5.78035 29.1 5.88358C29.1 5.9868 29.1 5.67713 29.1 5.5739L27.6103 4.12874C27.511 4.02551 27.4117 4.02551 27.3123 3.92229V6.70938H27.1137V3.81906C27.0144 3.81906 26.9151 3.71584 26.8158 3.71584L24.4322 3.61261V3.40616C24.4322 3.30293 24.5315 3.19971 24.6308 3.19971H26.9151C27.213 3.19971 27.511 3.30293 27.8089 3.61261L30.2918 6.29648C30.2918 6.39971 30.3911 6.50293 30.2918 6.60616ZM28.5041 5.88358C28.5041 5.88358 28.5041 5.78035 28.5041 5.88358C28.4048 5.88358 28.3055 6.19326 28.3055 6.19326H28.4048C28.5041 6.19326 28.5041 5.9868 28.5041 5.88358Z" fill="#A8B3AF"/>
<path d="M27.709 6.8127H27.5104V3.40625L27.709 3.50948V6.8127Z" fill="#232628"/>
<path d="M27.6097 6.70957H27.709V3.61279H27.6097V6.70957Z" fill="url(#paint71_linear)"/>
<path d="M29.4963 5.26436V6.91597C29.4963 6.91597 29.4963 7.0192 29.5956 7.0192L30.986 7.12243C31.1847 7.12243 31.284 6.91597 31.1847 6.70952L29.7943 5.16113C29.4963 5.16113 29.4963 5.26436 29.4963 5.26436Z" fill="#232628"/>
<path d="M28.8013 6.50327H29.7944C30.0924 6.50327 30.291 6.29681 30.291 5.98714V5.88391C30.291 5.47101 29.8938 5.05811 29.4965 5.05811H28.9006C28.9006 5.05811 28.8013 5.0581 28.8013 5.16133V6.50327C28.702 6.40004 28.702 6.50327 28.8013 6.50327Z" fill="#282B2D"/>
<path d="M28.801 6.40004H29.7942C29.9928 6.40004 30.1914 6.19359 30.1914 5.98714V5.88391C30.1914 5.47101 29.8935 5.05811 29.3969 5.05811H28.801C28.801 5.05811 28.7017 5.0581 28.7017 5.16133L28.801 6.40004C28.7017 6.40004 28.7017 6.40004 28.801 6.40004Z" fill="#26292B"/>
<path d="M28.8017 6.40004H29.6955C29.8941 6.40004 30.0928 6.19359 30.0928 5.98714V5.88391C30.0928 5.47101 29.7948 5.05811 29.2983 5.05811H28.7024C28.7024 5.05811 28.603 5.0581 28.603 5.16133L28.8017 6.40004C28.7024 6.40004 28.7024 6.40004 28.8017 6.40004Z" fill="#24282A"/>
<path d="M28.8017 6.39984H29.6955C29.8941 6.39984 30.0928 6.19339 30.0928 5.98694V5.88371C30.0928 5.47081 29.7948 5.16113 29.3976 5.16113H28.8017C28.8017 5.16113 28.7024 5.16113 28.7024 5.26436L28.8017 6.39984C28.7024 6.39984 28.7024 6.39984 28.8017 6.39984Z" fill="#232628"/>
<path d="M28.8017 6.39984H29.6955C29.8941 6.39984 30.0928 6.19339 30.0928 5.98694V5.88371C30.0928 5.47081 29.7948 5.16113 29.3976 5.16113H28.8017C28.8017 5.16113 28.7024 5.16113 28.7024 5.26436L28.8017 6.39984C28.7024 6.39984 28.7024 6.39984 28.8017 6.39984Z" fill="#212426"/>
<path d="M28.8017 6.39984H29.6955C29.8941 6.39984 30.0928 6.19339 30.0928 5.98694V5.88371C30.0928 5.47081 29.7948 5.16113 29.3976 5.16113H28.8017C28.8017 5.16113 28.7024 5.16113 28.7024 5.26436L28.8017 6.39984C28.8017 6.39984 28.7024 6.29662 28.8017 6.39984Z" fill="#1F2224"/>
<path d="M28.8017 6.39984H29.6955C29.8941 6.39984 30.0928 6.19339 30.0928 5.98694V5.88371C30.0928 5.47081 29.7948 5.16113 29.3976 5.16113H28.8017C28.8017 5.16113 28.7024 5.16113 28.7024 5.26436L28.8017 6.39984C28.8017 6.39984 28.7024 6.29662 28.8017 6.39984Z" fill="#1D2123"/>
<path d="M28.8017 6.39984H29.6955C29.8941 6.39984 30.0928 6.19339 30.0928 5.98694V5.88371C30.0928 5.47081 29.7948 5.16113 29.3976 5.16113H28.901C28.901 5.16113 28.8017 5.16113 28.8017 5.26436V6.39984C28.8017 6.39984 28.7024 6.29662 28.8017 6.39984Z" fill="#1B1F21"/>
<path d="M28.8017 6.29662H29.6955C29.8941 6.29662 30.0928 6.09017 30.0928 5.88371C30.0928 5.47081 29.7948 5.16113 29.3976 5.16113H28.901C28.901 5.16113 28.8017 5.16113 28.8017 5.26436V6.29662C28.8017 6.29662 28.7024 6.29662 28.8017 6.29662Z" fill="#1A1D1F"/>
<path d="M28.8014 6.29662H29.6952C29.8938 6.29662 29.9932 6.09017 29.9932 5.98694V5.88371C29.9932 5.47081 29.6952 5.16113 29.298 5.16113H28.8014C28.8014 5.16113 28.7021 5.16113 28.7021 5.26436L28.8014 6.29662C28.8014 6.29662 28.7021 6.29662 28.8014 6.29662Z" fill="#181B1D"/>
<path d="M28.8011 6.29662H29.5956C29.7942 6.29662 29.8936 6.19339 29.8936 5.98694V5.88371C29.8936 5.47081 29.5956 5.16113 29.1983 5.16113H28.7018C28.7018 5.16113 28.6025 5.16113 28.6025 5.26436L28.8011 6.29662C28.8011 6.29662 28.7018 6.29662 28.8011 6.29662Z" fill="#161A1C"/>
<path d="M28.8011 6.29691H29.5956C29.7942 6.29691 29.8936 6.19368 29.8936 5.98723V5.884C29.8936 5.4711 29.5956 5.26465 29.2977 5.26465H28.8011C28.8011 5.26465 28.7018 5.26465 28.7018 5.36787L28.8011 6.29691C28.8011 6.29691 28.7018 6.29691 28.8011 6.29691Z" fill="#14181A"/>
<path d="M28.8011 6.29691H29.5956C29.7942 6.29691 29.8936 6.19368 29.8936 5.98723V5.884C29.8936 5.57433 29.5956 5.26465 29.2977 5.26465H28.8011C28.8011 5.26465 28.7018 5.26465 28.7018 5.36787L28.8011 6.29691C28.8011 6.29691 28.7018 6.29691 28.8011 6.29691Z" fill="#121618"/>
<path d="M28.8011 6.29691H29.5956C29.7942 6.29691 29.8936 6.19368 29.8936 5.98723V5.884C29.8936 5.57433 29.5956 5.26465 29.2977 5.26465H28.8011C28.8011 5.26465 28.7018 5.26465 28.7018 5.36787L28.8011 6.29691C28.8011 6.29691 28.7018 6.19368 28.8011 6.29691Z" fill="#101416"/>
<path d="M28.8011 6.29691H29.5956C29.7942 6.29691 29.8936 6.19368 29.8936 5.98723V5.884C29.8936 5.57433 29.5956 5.26465 29.2977 5.26465H28.8011C28.8011 5.26465 28.7018 5.26465 28.7018 5.36787L28.8011 6.29691C28.8011 6.29691 28.7018 6.19368 28.8011 6.29691Z" fill="#0F1215"/>
<path d="M28.8011 6.19368H29.5956C29.6949 6.19368 29.8936 6.09046 29.8936 5.884C29.8936 5.57433 29.5956 5.26465 29.2977 5.26465H28.9004C28.9004 5.26465 28.8011 5.26465 28.8011 5.36787V6.19368C28.8011 6.19368 28.7018 6.19368 28.8011 6.19368Z" fill="#0D1113"/>
<path d="M28.8018 6.19368H29.5963C29.6956 6.19368 29.7949 6.09046 29.7949 5.98723V5.884C29.7949 5.57433 29.497 5.26465 29.199 5.26465H28.8018C28.8018 5.26465 28.7025 5.26465 28.7025 5.36787L28.8018 6.19368C28.8018 6.19368 28.7025 6.19368 28.8018 6.19368Z" fill="#0B0F11"/>
<path opacity="0.0625" d="M29.3971 5.78091C29.7943 6.09059 30.0923 6.09059 30.0923 5.98736C30.1916 5.88414 30.1916 5.67768 29.7943 5.26478C29.5957 5.05833 28.9005 5.05833 28.8012 5.16155C28.8012 5.26478 29.0991 5.57446 29.3971 5.78091Z" fill="white"/>
<path opacity="0.125" d="M29.3971 5.78091C29.695 5.98736 29.993 6.09059 30.0923 5.98736C30.1916 5.88414 30.1916 5.67768 29.7943 5.26478C29.5957 5.05833 28.9005 5.05833 28.9005 5.16155C28.8012 5.26478 29.0991 5.57446 29.3971 5.78091Z" fill="white"/>
<path opacity="0.1875" d="M29.3974 5.67768C29.6953 5.88413 29.9933 5.98736 29.9933 5.88414C30.0926 5.78091 29.9933 5.57446 29.7946 5.26478C29.596 5.05833 29.0001 5.05833 28.9008 5.16155C28.9008 5.26478 29.0994 5.57446 29.3974 5.67768Z" fill="white"/>
<path opacity="0.25" d="M29.3973 5.67768C29.6952 5.88413 29.9932 5.88413 29.9932 5.88413C29.9932 5.7809 29.9932 5.57445 29.7945 5.26477C29.6952 5.05832 29 5.16155 29 5.16155C28.9007 5.26477 29.0993 5.47123 29.3973 5.67768Z" fill="white"/>
<path opacity="0.3125" d="M29.3973 5.67775C29.6952 5.8842 29.8938 5.8842 29.9932 5.78098C29.9932 5.67775 29.9932 5.4713 29.7945 5.26485C29.6952 5.16162 29.0993 5.16162 29 5.16162C28.9007 5.26485 29.1986 5.4713 29.3973 5.67775Z" fill="white"/>
<path opacity="0.375" d="M29.397 5.57431C29.6949 5.78076 29.8936 5.78076 29.8936 5.67753C29.8936 5.57431 29.8936 5.36786 29.6949 5.1614C29.5956 5.05818 29.099 5.05818 28.9997 5.1614C28.9997 5.26463 29.1983 5.47108 29.397 5.57431Z" fill="white"/>
<path opacity="0.4375" d="M29.397 5.57431C29.5956 5.67753 29.7942 5.78076 29.8936 5.67753C29.8936 5.57431 29.8936 5.47108 29.6949 5.1614C29.5956 5.05818 29.099 5.05818 29.099 5.1614C28.9997 5.26463 29.1983 5.47108 29.397 5.57431Z" fill="white"/>
<path opacity="0.5" d="M29.3977 5.57411C29.5963 5.67734 29.7949 5.78056 29.7949 5.67733C29.7949 5.57411 29.7949 5.47088 29.5963 5.26443C29.497 5.16121 29.0997 5.16121 29.0004 5.26443C29.0997 5.26443 29.199 5.47088 29.3977 5.57411Z" fill="white"/>
<path opacity="0.5625" d="M29.3977 5.57411C29.5963 5.67734 29.7949 5.67733 29.7949 5.67733C29.7949 5.57411 29.7949 5.47088 29.5963 5.26443C29.497 5.16121 29.0997 5.16121 29.0997 5.26443C29.0997 5.26443 29.199 5.47088 29.3977 5.57411Z" fill="white"/>
<path opacity="0.625" d="M29.3974 5.47108C29.596 5.57431 29.6953 5.57431 29.6953 5.47108C29.6953 5.36786 29.6953 5.26463 29.596 5.1614C29.4967 5.05818 29.1987 5.05818 29.1987 5.1614C29.0994 5.26463 29.2981 5.36786 29.3974 5.47108Z" fill="white"/>
<path opacity="0.6875" d="M29.3974 5.47128C29.4967 5.57451 29.6953 5.57451 29.6953 5.47128C29.6953 5.36805 29.6953 5.26483 29.596 5.1616C29.4967 5.05837 29.1987 5.1616 29.1987 5.1616C29.1987 5.26483 29.2981 5.36805 29.3974 5.47128Z" fill="white"/>
<path opacity="0.75" d="M29.3971 5.47108C29.4964 5.57431 29.5957 5.57431 29.5957 5.47108C29.5957 5.36785 29.5957 5.26463 29.4964 5.26463C29.3971 5.1614 29.1984 5.26463 29.1984 5.26463C29.1984 5.26463 29.2978 5.36785 29.3971 5.47108Z" fill="white"/>
<path opacity="0.8125" d="M29.3971 5.36807C29.4964 5.36807 29.5957 5.36807 29.5957 5.36807C29.5957 5.26485 29.5957 5.26485 29.4964 5.16162C29.3971 5.16162 29.2978 5.16162 29.1984 5.16162C29.2978 5.26485 29.2978 5.36807 29.3971 5.36807Z" fill="white"/>
<path opacity="0.875" d="M29.3971 5.36807C29.4964 5.36807 29.4964 5.36807 29.5957 5.36807C29.5957 5.36807 29.5957 5.26485 29.4964 5.16162C29.3971 5.16162 29.2978 5.16162 29.2978 5.26485L29.3971 5.36807Z" fill="white"/>
<path opacity="0.9375" d="M29.3978 5.36807C29.4971 5.36807 29.4971 5.36807 29.4971 5.26485C29.4971 5.26485 29.4971 5.16162 29.3978 5.16162C29.3978 5.16162 29.2984 5.16162 29.2984 5.26485L29.3978 5.36807Z" fill="white"/>
<path d="M29.3972 5.26443C29.4965 5.36766 29.4965 5.26443 29.3972 5.26443C29.4965 5.16121 29.4965 5.16121 29.3972 5.26443C29.3972 5.16121 29.3972 5.16121 29.3972 5.26443Z" fill="white"/>
<path d="M25.1272 8.25793C24.9078 8.25793 24.7299 8.07307 24.7299 7.84503C24.7299 7.61699 24.9078 7.43213 25.1272 7.43213C25.3466 7.43213 25.5244 7.61699 25.5244 7.84503C25.5244 8.07307 25.3466 8.25793 25.1272 8.25793Z" fill="url(#paint72_radial)"/>
<path d="M24.3323 7.94815H25.6233C25.7227 7.94815 25.7227 7.84493 25.7227 7.84493C25.7227 7.7417 25.6233 7.7417 25.6233 7.7417H24.3323C24.2329 7.7417 24.2329 7.84493 24.2329 7.84493C24.2329 7.94815 24.3323 7.94815 24.3323 7.94815Z" fill="url(#paint73_linear)"/>
<path d="M32.8733 9.59991H32.2775C32.2775 9.59991 32.1781 9.59991 32.1781 9.49669V9.29024C32.1781 9.29024 32.1781 9.18701 32.2775 9.18701H32.8733C32.8733 9.18701 32.9727 9.18701 32.9727 9.29024L32.8733 9.59991Z" fill="white"/>
<path d="M32.8733 9.59991H32.2775C32.2775 9.59991 32.1781 9.59991 32.1781 9.49669V9.29024C32.1781 9.29024 32.1781 9.18701 32.2775 9.18701H32.8733C32.8733 9.18701 32.9727 9.18701 32.9727 9.29024L32.8733 9.59991Z" fill="#F1F1F1"/>
<path d="M32.8733 9.59991H32.2775C32.2775 9.59991 32.1781 9.59991 32.1781 9.49669V9.29024C32.1781 9.29024 32.1781 9.18701 32.2775 9.18701H32.8733C32.8733 9.18701 32.9727 9.18701 32.9727 9.29024L32.8733 9.59991Z" fill="#E4E4E4"/>
<path d="M32.7737 9.59991H32.2772C32.2772 9.59991 32.1778 9.59991 32.1778 9.49669V9.29024C32.1778 9.29024 32.1778 9.18701 32.2772 9.18701H32.7737C32.7737 9.18701 32.873 9.18701 32.873 9.29024L32.7737 9.59991C32.873 9.59991 32.873 9.59991 32.7737 9.59991Z" fill="#D6D6D6"/>
<path d="M32.7737 9.59991H32.2772C32.2772 9.59991 32.1778 9.59991 32.1778 9.49669V9.29024C32.1778 9.29024 32.1778 9.18701 32.2772 9.18701H32.7737C32.7737 9.18701 32.873 9.18701 32.873 9.29024L32.7737 9.59991C32.873 9.59991 32.873 9.59991 32.7737 9.59991Z" fill="#C8C8C8"/>
<path d="M32.7737 9.59991H32.2772C32.2772 9.59991 32.1778 9.59991 32.1778 9.49669V9.29024C32.1778 9.29024 32.1778 9.18701 32.2772 9.18701H32.7737C32.7737 9.18701 32.873 9.18701 32.873 9.29024L32.7737 9.59991C32.873 9.59991 32.873 9.59991 32.7737 9.59991Z" fill="#BBBBBB"/>
<path d="M32.7737 9.59991H32.2772C32.2772 9.59991 32.1778 9.59991 32.1778 9.49669V9.29024C32.1778 9.29024 32.1778 9.18701 32.2772 9.18701H32.7737C32.7737 9.18701 32.873 9.18701 32.873 9.29024L32.7737 9.59991C32.873 9.59991 32.873 9.59991 32.7737 9.59991Z" fill="#ADADAD"/>
<path d="M32.7737 9.59991H32.2772C32.2772 9.59991 32.1778 9.59991 32.1778 9.49669V9.29024C32.1778 9.29024 32.1778 9.18701 32.2772 9.18701H32.7737C32.7737 9.18701 32.873 9.18701 32.873 9.29024L32.7737 9.59991C32.873 9.59991 32.873 9.59991 32.7737 9.59991Z" fill="#A0A0A0"/>
<path d="M32.7737 9.59991H32.2772C32.2772 9.59991 32.1778 9.59991 32.1778 9.49669V9.29024C32.1778 9.29024 32.1778 9.18701 32.2772 9.18701H32.7737C32.7737 9.18701 32.873 9.18701 32.873 9.29024L32.7737 9.59991C32.7737 9.59991 32.873 9.49669 32.7737 9.59991Z" fill="#929292"/>
<path d="M32.7737 9.59991H32.3765C32.3765 9.59991 32.2772 9.59991 32.2772 9.49669V9.29024C32.2772 9.29024 32.2772 9.18701 32.3765 9.18701H32.7737C32.7737 9.18701 32.873 9.18701 32.873 9.29024L32.7737 9.59991C32.7737 9.59991 32.873 9.49669 32.7737 9.59991Z" fill="#848484"/>
<path d="M32.7737 9.59991H32.3765C32.3765 9.59991 32.2772 9.59991 32.2772 9.49669V9.29024C32.2772 9.29024 32.2772 9.18701 32.3765 9.18701H32.7737C32.7737 9.18701 32.873 9.18701 32.873 9.29024L32.7737 9.59991C32.7737 9.59991 32.873 9.49669 32.7737 9.59991Z" fill="#777777"/>
<path d="M32.7737 9.49669H32.3765C32.3765 9.49669 32.2772 9.49669 32.2772 9.39346V9.29024C32.2772 9.29024 32.2772 9.18701 32.3765 9.18701H32.7737C32.7737 9.18701 32.873 9.18701 32.873 9.29024L32.7737 9.49669Z" fill="#696969"/>
<path d="M32.7737 9.59991H32.2772C32.2772 9.59991 32.1778 9.59991 32.1778 9.49669V9.29024C32.1778 9.29024 32.1778 9.18701 32.2772 9.18701H32.7737C32.7737 9.18701 32.873 9.18701 32.873 9.29024L32.7737 9.59991C32.873 9.59991 32.873 9.59991 32.7737 9.59991Z" fill="#B74700"/>
<path d="M32.7737 9.59991H32.2772C32.2772 9.59991 32.1778 9.59991 32.1778 9.49669V9.29024C32.1778 9.29024 32.1778 9.18701 32.2772 9.18701H32.7737C32.7737 9.18701 32.873 9.18701 32.873 9.29024L32.7737 9.59991C32.873 9.59991 32.873 9.59991 32.7737 9.59991Z" fill="#B94A00"/>
<path d="M32.7737 9.59991H32.2772C32.2772 9.59991 32.1778 9.59991 32.1778 9.49669V9.29024C32.1778 9.29024 32.1778 9.18701 32.2772 9.18701H32.7737C32.7737 9.18701 32.873 9.18701 32.873 9.29024L32.7737 9.59991C32.873 9.59991 32.873 9.49669 32.7737 9.59991Z" fill="#BB4D00"/>
<path d="M32.7737 9.59991H32.2772C32.2772 9.59991 32.1778 9.59991 32.1778 9.49669V9.29024C32.1778 9.29024 32.1778 9.18701 32.2772 9.18701H32.7737C32.7737 9.18701 32.873 9.18701 32.873 9.29024L32.7737 9.59991C32.873 9.59991 32.873 9.49669 32.7737 9.59991Z" fill="#BC5000"/>
<path d="M32.7737 9.59991H32.2772C32.2772 9.59991 32.1778 9.59991 32.1778 9.49669V9.29024C32.1778 9.29024 32.1778 9.18701 32.2772 9.18701H32.7737C32.7737 9.18701 32.873 9.18701 32.873 9.29024L32.7737 9.59991C32.873 9.59991 32.873 9.49669 32.7737 9.59991Z" fill="#BE5300"/>
<path d="M32.7728 9.49689H32.2762C32.2762 9.49689 32.1769 9.49689 32.1769 9.39366V9.18721C32.1769 9.18721 32.1769 9.08398 32.2762 9.08398H32.7728C32.7728 9.08398 32.8721 9.08398 32.8721 9.18721L32.7728 9.49689C32.8721 9.49689 32.8721 9.49689 32.7728 9.49689Z" fill="#C05600"/>
<path d="M32.7737 9.49669H32.2772C32.2772 9.49669 32.1778 9.49669 32.1778 9.39346V9.29024C32.1778 9.29024 32.1778 9.18701 32.2772 9.18701H32.7737C32.7737 9.18701 32.873 9.18701 32.873 9.29024L32.7737 9.49669C32.873 9.49669 32.873 9.49669 32.7737 9.49669Z" fill="#C25900"/>
<path d="M32.7737 9.49669H32.2772C32.2772 9.49669 32.1778 9.49669 32.1778 9.39346V9.29024C32.1778 9.29024 32.1778 9.18701 32.2772 9.18701H32.7737C32.7737 9.18701 32.873 9.18701 32.873 9.29024L32.7737 9.49669C32.873 9.49669 32.873 9.49669 32.7737 9.49669Z" fill="#C45C00"/>
<path d="M32.7737 9.49669H32.2772C32.2772 9.49669 32.1778 9.49669 32.1778 9.39346V9.29024C32.1778 9.29024 32.1778 9.18701 32.2772 9.18701H32.7737C32.7737 9.18701 32.873 9.18701 32.873 9.29024L32.7737 9.49669C32.873 9.49669 32.873 9.49669 32.7737 9.49669Z" fill="#C55F00"/>
<path d="M32.7737 9.49669H32.2772C32.2772 9.49669 32.1778 9.49669 32.1778 9.39346V9.29024C32.1778 9.29024 32.1778 9.18701 32.2772 9.18701H32.7737C32.7737 9.18701 32.873 9.18701 32.873 9.29024L32.7737 9.49669C32.873 9.49669 32.873 9.49669 32.7737 9.49669Z" fill="#C76200"/>
<path d="M32.7737 9.49669H32.2772C32.2772 9.49669 32.1778 9.49669 32.1778 9.39346V9.29024C32.1778 9.29024 32.1778 9.18701 32.2772 9.18701H32.7737C32.7737 9.18701 32.873 9.18701 32.873 9.29024L32.7737 9.49669C32.873 9.49669 32.873 9.49669 32.7737 9.49669Z" fill="#C96500"/>
<path d="M32.7737 9.49669H32.2772C32.2772 9.49669 32.1778 9.49669 32.1778 9.39346V9.29024C32.1778 9.29024 32.1778 9.18701 32.2772 9.18701H32.7737C32.7737 9.18701 32.873 9.18701 32.873 9.29024L32.7737 9.49669C32.873 9.49669 32.873 9.49669 32.7737 9.49669Z" fill="#CB6800"/>
<path d="M32.7741 9.49678H32.2776V9.39355H32.7741V9.49678C32.8735 9.49678 32.8735 9.49678 32.7741 9.49678Z" fill="#CD6B00"/>
<path d="M32.7741 9.49678H32.2776V9.39355H32.7741V9.49678C32.8735 9.49678 32.8735 9.49678 32.7741 9.49678Z" fill="#CF6E00"/>
<path d="M32.7741 9.49678H32.2776V9.39355H32.7741V9.49678C32.8735 9.49678 32.8735 9.39356 32.7741 9.49678Z" fill="#D07100"/>
<path d="M32.7741 9.49678H32.2776V9.39355H32.7741V9.49678C32.8735 9.49678 32.8735 9.39356 32.7741 9.49678Z" fill="#D27400"/>
<path d="M32.7741 9.39375H32.2776V9.29053H32.7741V9.39375C32.8735 9.39375 32.8735 9.39375 32.7741 9.39375Z" fill="#D47700"/>
<path d="M32.7732 9.39375H32.2767V9.29053H32.7732V9.39375C32.7732 9.39375 32.8726 9.39375 32.7732 9.39375Z" fill="#D67A00"/>
<path d="M32.7732 9.39375H32.2767V9.29053H32.7732V9.39375C32.7732 9.39375 32.8726 9.39375 32.7732 9.39375Z" fill="#D87D00"/>
<path d="M32.7732 9.39375H32.2767V9.29053H32.7732C32.7732 9.29053 32.8726 9.29053 32.7732 9.39375C32.7732 9.39375 32.8726 9.39375 32.7732 9.39375Z" fill="#D98000"/>
<path d="M32.7732 9.39375H32.2767V9.29053H32.7732C32.7732 9.29053 32.8726 9.29053 32.7732 9.39375C32.7732 9.39375 32.8726 9.39375 32.7732 9.39375Z" fill="#DB8300"/>
<path d="M32.7732 9.39383H32.2767H32.7732C32.8726 9.2906 32.7732 9.2906 32.7732 9.39383C32.7732 9.39383 32.8726 9.39383 32.7732 9.39383Z" fill="#DD8600"/>
<path opacity="0.5" d="M32.2772 9.29024C32.2772 9.29024 32.7737 9.29024 32.873 9.29024C32.873 9.29024 32.873 9.18701 32.7737 9.18701C32.6744 9.29024 32.2772 9.29024 32.2772 9.29024Z" fill="white"/>
<path d="M0.69503 2.37422C0.69503 2.271 0.794346 2.271 0.69503 2.37422L26.9142 2.271C27.4107 2.271 27.5101 2.271 27.6094 2.37422L27.3114 2.47745H0.893658C0.794342 2.47745 0.69503 2.47745 0.69503 2.37422Z" fill="url(#paint74_linear)"/>
<path d="M28.1061 2.47705H27.7089L31.6814 6.81253H32.2773L28.1061 2.47705Z" fill="#637771"/>
<path d="M28.3052 2.58047L28.0073 2.37402H27.5107L31.6819 6.81273H31.7812L27.8087 2.6837L28.3052 2.58047Z" fill="#232628"/>
<path d="M12.8118 0H12.9111V14.1419H12.8118V0Z" fill="url(#paint75_linear)"/>
<path d="M12.7122 0H12.8115V14.1419H12.7122V0Z" fill="url(#paint76_linear)"/>
<path d="M22.8421 14.1417V0.103027H22.9414V14.1417H22.8421Z" fill="url(#paint77_linear)"/>
<path d="M2.48272 14.1419V0H2.58203V14.1419H2.48272Z" fill="url(#paint78_linear)"/>
<path d="M2.3831 14.0387V0H2.48242V14.1419L2.3831 14.0387Z" fill="url(#paint79_linear)"/>
<defs>
<radialGradient id="paint0_radial" cx="0" cy="0" r="1" gradientUnits="userSpaceOnUse" gradientTransform="translate(30.9127 13.3025) scale(2.10508 2.18797)">
<stop offset="0.963" stop-color="#050503"/>
<stop offset="0.9934" stop-color="#030302"/>
<stop offset="1"/>
</radialGradient>
<radialGradient id="paint1_radial" cx="0" cy="0" r="1" gradientUnits="userSpaceOnUse" gradientTransform="translate(30.913 13.3023) scale(2.1462 2.23071)">
<stop/>
<stop offset="0.6569"/>
<stop offset="0.6965"/>
<stop offset="0.7859" stop-color="#020200"/>
<stop offset="0.866" stop-color="#050503"/>
<stop offset="0.9602" stop-color="#10100F"/>
<stop offset="1" stop-color="#161615"/>
</radialGradient>
<radialGradient id="paint2_radial" cx="0" cy="0" r="1" gradientUnits="userSpaceOnUse" gradientTransform="translate(30.9129 13.3022) scale(1.49121 1.54994)">
<stop offset="0.00515464" stop-color="#D9D9D8"/>
<stop offset="0.1353" stop-color="#D6D6D4"/>
<stop offset="0.2508" stop-color="#CBCBCA"/>
<stop offset="0.3608" stop-color="#B9B9B8"/>
<stop offset="0.4668" stop-color="#A0A09E"/>
<stop offset="0.5632" stop-color="#828280"/>
<stop offset="0.5914" stop-color="#80807E"/>
<stop offset="0.6051" stop-color="#787876"/>
<stop offset="0.6156" stop-color="#6B6B69"/>
<stop offset="0.6245" stop-color="#595957"/>
<stop offset="0.6281" stop-color="#4F4F4D"/>
<stop offset="0.6483" stop-color="#545452"/>
<stop offset="0.7143" stop-color="#60605F"/>
<stop offset="0.7779" stop-color="#646463"/>
<stop offset="0.796" stop-color="#111111"/>
<stop offset="0.9227" stop-color="#0C0C0A"/>
<stop offset="0.9282" stop-color="#131311"/>
<stop offset="0.936" stop-color="#252523"/>
<stop offset="0.9433" stop-color="#3C3C3B"/>
<stop offset="0.9587" stop-color="#303030"/>
<stop offset="0.9862" stop-color="#121212"/>
<stop offset="1"/>
</radialGradient>
<radialGradient id="paint3_radial" cx="0" cy="0" r="1" gradientUnits="userSpaceOnUse" gradientTransform="translate(31.6039 14.8147) scale(2.59887 2.70121)">
<stop/>
<stop offset="0.3893" stop-color="#020202"/>
<stop offset="0.5294" stop-color="#090908"/>
<stop offset="0.629" stop-color="#141414"/>
<stop offset="0.6552" stop-color="#191918"/>
<stop offset="1"/>
</radialGradient>
<radialGradient id="paint4_radial" cx="0" cy="0" r="1" gradientUnits="userSpaceOnUse" gradientTransform="translate(31.7136 13.7436) rotate(20.6514) scale(2.20069 2.2662)">
<stop offset="0.963" stop-color="#2B2B29"/>
<stop offset="0.9827" stop-color="#292927"/>
<stop offset="0.9898" stop-color="#222221"/>
<stop offset="0.9949" stop-color="#171715"/>
<stop offset="0.9989" stop-color="#060606"/>
<stop offset="1"/>
</radialGradient>
<radialGradient id="paint5_radial" cx="0" cy="0" r="1" gradientUnits="userSpaceOnUse" gradientTransform="translate(31.7133 13.7435) rotate(20.6514) scale(2.20069 2.2662)">
<stop stop-color="#151515"/>
<stop offset="0.3258" stop-color="#111111"/>
<stop offset="0.6146" stop-color="#070707"/>
<stop offset="0.731"/>
<stop offset="0.8165" stop-color="#282826"/>
<stop offset="0.9158" stop-color="#2B2B29"/>
<stop offset="0.975" stop-color="#363635"/>
<stop offset="1" stop-color="#3C3C3B"/>
</radialGradient>
<radialGradient id="paint6_radial" cx="0" cy="0" r="1" gradientUnits="userSpaceOnUse" gradientTransform="translate(31.7144 13.7419) rotate(20.6515) scale(1.48698 1.53125)">
<stop offset="0.8289" stop-color="#B3B3B2"/>
<stop offset="0.842" stop-color="#B0B0AE"/>
<stop offset="0.8536" stop-color="#A5A5A4"/>
<stop offset="0.8647" stop-color="#939392"/>
<stop offset="0.8754" stop-color="#7A7A78"/>
<stop offset="0.8851" stop-color="#5C5C5A"/>
<stop offset="0.8999" stop-color="#5A5A58"/>
<stop offset="0.9072" stop-color="#525250"/>
<stop offset="0.9127" stop-color="#454543"/>
<stop offset="0.9174" stop-color="#333331"/>
<stop offset="0.9193" stop-color="#292927"/>
<stop offset="0.9219" stop-color="#2E2E2C"/>
<stop offset="0.9305" stop-color="#3A3A39"/>
<stop offset="0.9389" stop-color="#3E3E3D"/>
<stop offset="1"/>
</radialGradient>
<radialGradient id="paint7_radial" cx="0" cy="0" r="1" gradientUnits="userSpaceOnUse" gradientTransform="translate(31.7139 13.744) rotate(20.6515) scale(1.52809 1.57358)">
<stop stop-color="#2A2A29"/>
<stop offset="0.5134" stop-color="#4F4F4F"/>
<stop offset="0.7625" stop-color="#636362"/>
<stop offset="0.8812" stop-color="#787877"/>
<stop offset="0.9948" stop-color="#80807F"/>
</radialGradient>
<radialGradient id="paint8_radial" cx="0" cy="0" r="1" gradientUnits="userSpaceOnUse" gradientTransform="translate(31.7148 13.7417) rotate(20.6514) scale(1.63575 1.68444)">
<stop stop-color="#B3B3B2"/>
<stop offset="0.341" stop-color="#828282"/>
<stop offset="0.4693" stop-color="#A7A7A7"/>
<stop offset="0.5709" stop-color="#C0C0C0"/>
<stop offset="0.664" stop-color="#B9B9B8"/>
<stop offset="0.8008" stop-color="#A5A5A4"/>
<stop offset="0.8249" stop-color="#A9A9A8"/>
<stop offset="0.9948" stop-color="#C5C5C4"/>
</radialGradient>
<linearGradient id="paint9_linear" x1="31.7131" y1="14.1213" x2="31.4797" y2="14.0398" gradientUnits="userSpaceOnUse">
<stop stop-color="#50575C"/>
<stop offset="1" stop-color="#10100F"/>
</linearGradient>
<linearGradient id="paint10_linear" x1="31.656" y1="14.1698" x2="31.4949" y2="14.1136" gradientUnits="userSpaceOnUse">
<stop stop-color="#10100F"/>
<stop offset="1" stop-color="#50575C"/>
</linearGradient>
<linearGradient id="paint11_linear" x1="32.1531" y1="13.9719" x2="31.9197" y2="13.8905" gradientUnits="userSpaceOnUse">
<stop stop-color="#50575C"/>
<stop offset="1" stop-color="#10100F"/>
</linearGradient>
<linearGradient id="paint12_linear" x1="32.0966" y1="14.017" x2="31.9353" y2="13.9608" gradientUnits="userSpaceOnUse">
<stop stop-color="#10100F"/>
<stop offset="1" stop-color="#50575C"/>
</linearGradient>
<linearGradient id="paint13_linear" x1="32.1399" y1="13.5836" x2="31.9066" y2="13.5022" gradientUnits="userSpaceOnUse">
<stop stop-color="#50575C"/>
<stop offset="1" stop-color="#10100F"/>
</linearGradient>
<linearGradient id="paint14_linear" x1="32.1198" y1="13.5245" x2="31.9589" y2="13.4684" gradientUnits="userSpaceOnUse">
<stop stop-color="#10100F"/>
<stop offset="1" stop-color="#50575C"/>
</linearGradient>
<linearGradient id="paint15_linear" x1="31.7156" y1="13.4236" x2="31.4821" y2="13.3421" gradientUnits="userSpaceOnUse">
<stop stop-color="#50575C"/>
<stop offset="1" stop-color="#10100F"/>
</linearGradient>
<linearGradient id="paint16_linear" x1="31.7094" y1="13.3272" x2="31.5484" y2="13.271" gradientUnits="userSpaceOnUse">
<stop stop-color="#10100F"/>
<stop offset="1" stop-color="#50575C"/>
</linearGradient>
<linearGradient id="paint17_linear" x1="31.4526" y1="13.7558" x2="31.2189" y2="13.6742" gradientUnits="userSpaceOnUse">
<stop stop-color="#50575C"/>
<stop offset="1" stop-color="#10100F"/>
</linearGradient>
<linearGradient id="paint18_linear" x1="31.4139" y1="13.7469" x2="31.2527" y2="13.6907" gradientUnits="userSpaceOnUse">
<stop stop-color="#10100F"/>
<stop offset="1" stop-color="#50575C"/>
</linearGradient>
<radialGradient id="paint19_radial" cx="0" cy="0" r="1" gradientUnits="userSpaceOnUse" gradientTransform="translate(31.7176 13.7301) rotate(20.6512) scale(0.170421 0.175493)">
<stop stop-color="#B3B3B2"/>
<stop offset="0.8429" stop-color="#828282"/>
<stop offset="0.89" stop-color="#A7A7A7"/>
<stop offset="0.9272" stop-color="#C0C0C0"/>
<stop offset="0.9567" stop-color="#B9B9B8"/>
<stop offset="1" stop-color="#A5A5A4"/>
</radialGradient>
<radialGradient id="paint20_radial" cx="0" cy="0" r="1" gradientUnits="userSpaceOnUse" gradientTransform="translate(9.61515 13.265) scale(2.10509 2.18797)">
<stop offset="0.963" stop-color="#050503"/>
<stop offset="0.9934" stop-color="#030302"/>
<stop offset="1"/>
</radialGradient>
<radialGradient id="paint21_radial" cx="0" cy="0" r="1" gradientUnits="userSpaceOnUse" gradientTransform="translate(9.61546 13.2643) scale(2.14589 2.2304)">
<stop/>
<stop offset="0.6569"/>
<stop offset="0.6965"/>
<stop offset="0.7859" stop-color="#020200"/>
<stop offset="0.866" stop-color="#050503"/>
<stop offset="0.9602" stop-color="#10100F"/>
<stop offset="1" stop-color="#161615"/>
</radialGradient>
<radialGradient id="paint22_radial" cx="0" cy="0" r="1" gradientUnits="userSpaceOnUse" gradientTransform="translate(9.61535 13.2648) scale(1.49121 1.54993)">
<stop offset="0.00515464" stop-color="#D9D9D8"/>
<stop offset="0.1353" stop-color="#D6D6D4"/>
<stop offset="0.2508" stop-color="#CBCBCA"/>
<stop offset="0.3608" stop-color="#B9B9B8"/>
<stop offset="0.4668" stop-color="#A0A09E"/>
<stop offset="0.5632" stop-color="#828280"/>
<stop offset="0.5914" stop-color="#80807E"/>
<stop offset="0.6051" stop-color="#787876"/>
<stop offset="0.6156" stop-color="#6B6B69"/>
<stop offset="0.6245" stop-color="#595957"/>
<stop offset="0.6281" stop-color="#4F4F4D"/>
<stop offset="0.6483" stop-color="#545452"/>
<stop offset="0.7143" stop-color="#60605F"/>
<stop offset="0.7779" stop-color="#646463"/>
<stop offset="0.796" stop-color="#111111"/>
<stop offset="0.9227" stop-color="#0C0C0A"/>
<stop offset="0.9282" stop-color="#131311"/>
<stop offset="0.936" stop-color="#252523"/>
<stop offset="0.9433" stop-color="#3C3C3B"/>
<stop offset="0.9587" stop-color="#303030"/>
<stop offset="0.9862" stop-color="#121212"/>
<stop offset="1"/>
</radialGradient>
<radialGradient id="paint23_radial" cx="0" cy="0" r="1" gradientUnits="userSpaceOnUse" gradientTransform="translate(8.46588 14.6744) scale(2.59888 2.70121)">
<stop/>
<stop offset="0.3893" stop-color="#020202"/>
<stop offset="0.5294" stop-color="#090908"/>
<stop offset="0.629" stop-color="#141414"/>
<stop offset="0.6552" stop-color="#191918"/>
<stop offset="1"/>
</radialGradient>
<radialGradient id="paint24_radial" cx="0" cy="0" r="1" gradientUnits="userSpaceOnUse" gradientTransform="translate(8.87626 13.7436) rotate(20.6514) scale(2.20069 2.2662)">
<stop offset="0.963" stop-color="#2B2B29"/>
<stop offset="0.9827" stop-color="#292927"/>
<stop offset="0.9898" stop-color="#222221"/>
<stop offset="0.9949" stop-color="#171715"/>
<stop offset="0.9989" stop-color="#060606"/>
<stop offset="1"/>
</radialGradient>
<radialGradient id="paint25_radial" cx="0" cy="0" r="1" gradientUnits="userSpaceOnUse" gradientTransform="translate(8.87601 13.7434) rotate(20.6515) scale(2.20069 2.2662)">
<stop stop-color="#151515"/>
<stop offset="0.3258" stop-color="#111111"/>
<stop offset="0.6146" stop-color="#070707"/>
<stop offset="0.731"/>
<stop offset="0.8165" stop-color="#282826"/>
<stop offset="0.9158" stop-color="#2B2B29"/>
<stop offset="0.975" stop-color="#363635"/>
<stop offset="1" stop-color="#3C3C3B"/>
</radialGradient>
<radialGradient id="paint26_radial" cx="0" cy="0" r="1" gradientUnits="userSpaceOnUse" gradientTransform="translate(8.87655 13.7436) rotate(20.6514) scale(1.48788 1.53217)">
<stop offset="0.8289" stop-color="#B3B3B2"/>
<stop offset="0.842" stop-color="#B0B0AE"/>
<stop offset="0.8536" stop-color="#A5A5A4"/>
<stop offset="0.8647" stop-color="#939392"/>
<stop offset="0.8754" stop-color="#7A7A78"/>
<stop offset="0.8851" stop-color="#5C5C5A"/>
<stop offset="0.8999" stop-color="#5A5A58"/>
<stop offset="0.9072" stop-color="#525250"/>
<stop offset="0.9127" stop-color="#454543"/>
<stop offset="0.9174" stop-color="#333331"/>
<stop offset="0.9193" stop-color="#292927"/>
<stop offset="0.9219" stop-color="#2E2E2C"/>
<stop offset="0.9305" stop-color="#3A3A39"/>
<stop offset="0.9389" stop-color="#3E3E3D"/>
<stop offset="1"/>
</radialGradient>
<radialGradient id="paint27_radial" cx="0" cy="0" r="1" gradientUnits="userSpaceOnUse" gradientTransform="translate(8.87658 13.744) rotate(20.6515) scale(1.52809 1.57358)">
<stop stop-color="#2A2A29"/>
<stop offset="0.5134" stop-color="#4F4F4F"/>
<stop offset="0.7625" stop-color="#636362"/>
<stop offset="0.8812" stop-color="#787877"/>
<stop offset="0.9948" stop-color="#80807F"/>
</radialGradient>
<radialGradient id="paint28_radial" cx="0" cy="0" r="1" gradientUnits="userSpaceOnUse" gradientTransform="translate(8.87695 13.7434) rotate(20.6515) scale(1.63665 1.68537)">
<stop stop-color="#B3B3B2"/>
<stop offset="0.341" stop-color="#828282"/>
<stop offset="0.4693" stop-color="#A7A7A7"/>
<stop offset="0.5709" stop-color="#C0C0C0"/>
<stop offset="0.664" stop-color="#B9B9B8"/>
<stop offset="0.8008" stop-color="#A5A5A4"/>
<stop offset="0.8249" stop-color="#A9A9A8"/>
<stop offset="0.9948" stop-color="#C5C5C4"/>
</radialGradient>
<linearGradient id="paint29_linear" x1="8.87509" y1="14.1231" x2="8.64171" y2="14.0416" gradientUnits="userSpaceOnUse">
<stop stop-color="#50575C"/>
<stop offset="1" stop-color="#10100F"/>
</linearGradient>
<linearGradient id="paint30_linear" x1="8.81733" y1="14.1716" x2="8.6562" y2="14.1154" gradientUnits="userSpaceOnUse">
<stop stop-color="#10100F"/>
<stop offset="1" stop-color="#50575C"/>
</linearGradient>
<linearGradient id="paint31_linear" x1="9.31347" y1="13.9782" x2="9.0801" y2="13.8968" gradientUnits="userSpaceOnUse">
<stop stop-color="#50575C"/>
<stop offset="1" stop-color="#10100F"/>
</linearGradient>
<linearGradient id="paint32_linear" x1="9.26005" y1="14.0153" x2="9.0989" y2="13.9591" gradientUnits="userSpaceOnUse">
<stop stop-color="#10100F"/>
<stop offset="1" stop-color="#50575C"/>
</linearGradient>
<linearGradient id="paint33_linear" x1="9.30219" y1="13.5855" x2="9.06862" y2="13.504" gradientUnits="userSpaceOnUse">
<stop stop-color="#50575C"/>
<stop offset="1" stop-color="#10100F"/>
</linearGradient>
<linearGradient id="paint34_linear" x1="9.2777" y1="13.5368" x2="9.11674" y2="13.4806" gradientUnits="userSpaceOnUse">
<stop stop-color="#10100F"/>
<stop offset="1" stop-color="#50575C"/>
</linearGradient>
<linearGradient id="paint35_linear" x1="8.88608" y1="13.4047" x2="8.65251" y2="13.3232" gradientUnits="userSpaceOnUse">
<stop stop-color="#50575C"/>
<stop offset="1" stop-color="#10100F"/>
</linearGradient>
<linearGradient id="paint36_linear" x1="8.87183" y1="13.329" x2="8.71088" y2="13.2728" gradientUnits="userSpaceOnUse">
<stop stop-color="#10100F"/>
<stop offset="1" stop-color="#50575C"/>
</linearGradient>
<linearGradient id="paint37_linear" x1="8.61494" y1="13.7575" x2="8.38157" y2="13.6761" gradientUnits="userSpaceOnUse">
<stop stop-color="#50575C"/>
<stop offset="1" stop-color="#10100F"/>
</linearGradient>
<linearGradient id="paint38_linear" x1="8.57683" y1="13.7487" x2="8.41569" y2="13.6925" gradientUnits="userSpaceOnUse">
<stop stop-color="#10100F"/>
<stop offset="1" stop-color="#50575C"/>
</linearGradient>
<radialGradient id="paint39_radial" cx="0" cy="0" r="1" gradientUnits="userSpaceOnUse" gradientTransform="translate(8.88019 13.7301) rotate(20.652) scale(0.170415 0.175492)">
<stop stop-color="#B3B3B2"/>
<stop offset="0.8429" stop-color="#828282"/>
<stop offset="0.89" stop-color="#A7A7A7"/>
<stop offset="0.9272" stop-color="#C0C0C0"/>
<stop offset="0.9567" stop-color="#B9B9B8"/>
<stop offset="1" stop-color="#A5A5A4"/>
</radialGradient>
<radialGradient id="paint40_radial" cx="0" cy="0" r="1" gradientUnits="userSpaceOnUse" gradientTransform="translate(16.1598 14.5148) scale(3.73513 3.88222)">
<stop/>
<stop offset="0.3893" stop-color="#020202"/>
<stop offset="0.5294" stop-color="#090908"/>
<stop offset="0.629" stop-color="#141414"/>
<stop offset="0.6552" stop-color="#191918"/>
<stop offset="1"/>
</radialGradient>
<linearGradient id="paint41_linear" x1="5.87086" y1="13.9355" x2="5.44898" y2="13.9355" gradientUnits="userSpaceOnUse">
<stop/>
<stop offset="0.3893" stop-color="#020202"/>
<stop offset="0.5294" stop-color="#090908"/>
<stop offset="0.629" stop-color="#141414"/>
<stop offset="0.6552" stop-color="#191918"/>
<stop offset="1"/>
</linearGradient>
<linearGradient id="paint42_linear" x1="29.1493" y1="14.0385" x2="28.7275" y2="14.0385" gradientUnits="userSpaceOnUse">
<stop/>
<stop offset="0.3893" stop-color="#020202"/>
<stop offset="0.5294" stop-color="#090908"/>
<stop offset="0.629" stop-color="#141414"/>
<stop offset="0.6552" stop-color="#191918"/>
<stop offset="1"/>
</linearGradient>
<linearGradient id="paint43_linear" x1="18.6983" y1="14.175" x2="18.6983" y2="-0.0304519" gradientUnits="userSpaceOnUse">
<stop stop-color="#93938E"/>
<stop offset="0.0131775" stop-color="#9E9F9B"/>
<stop offset="0.0368258" stop-color="#ACAFAB"/>
<stop offset="0.063557" stop-color="#B4B8B4"/>
<stop offset="0.0996169" stop-color="#B7BBB7"/>
<stop offset="0.1124" stop-color="#BABEBA"/>
<stop offset="0.2099" stop-color="#CDCFCC"/>
<stop offset="0.3105" stop-color="#D8D9D7"/>
<stop offset="0.4176" stop-color="#DCDCDB"/>
<stop offset="0.7165" stop-color="#E0E0DF"/>
<stop offset="0.912" stop-color="#E0E2E1"/>
<stop offset="0.931" stop-color="#E0E3E2"/>
<stop offset="0.966" stop-color="#D6D7D6"/>
<stop offset="0.9948" stop-color="#CACAC9"/>
</linearGradient>
<linearGradient id="paint44_linear" x1="18.3952" y1="14.1661" x2="18.3952" y2="9.43361" gradientUnits="userSpaceOnUse">
<stop stop-color="#E1DBE2"/>
<stop offset="0.3038" stop-color="#EFECF0"/>
<stop offset="0.679" stop-color="#FBFAFB"/>
<stop offset="1" stop-color="white"/>
</linearGradient>
<radialGradient id="paint45_radial" cx="0" cy="0" r="1" gradientUnits="userSpaceOnUse" gradientTransform="translate(31.56 13.672) scale(4.65032 4.83345)">
<stop stop-color="#AEAFAF"/>
<stop offset="0.509" stop-color="#D9DADA"/>
<stop offset="1" stop-color="white"/>
</radialGradient>
<linearGradient id="paint46_linear" x1="36.8768" y1="10.4258" x2="35.8647" y2="10.4258" gradientUnits="userSpaceOnUse">
<stop stop-color="#BAC7BD"/>
<stop offset="0.0662739" stop-color="#C0CCC3"/>
<stop offset="0.4601" stop-color="#E2E8E4"/>
<stop offset="0.7854" stop-color="#F7F9F8"/>
<stop offset="1" stop-color="white"/>
</linearGradient>
<linearGradient id="paint47_linear" x1="26.2685" y1="14.2905" x2="26.2685" y2="13.9321" gradientUnits="userSpaceOnUse">
<stop offset="0.00515464"/>
<stop offset="0.0412371" stop-color="#3C3C3B"/>
<stop offset="0.0979381" stop-color="#1D1D1B"/>
<stop offset="0.9072" stop-color="#444443"/>
<stop offset="0.9536" stop-color="#9D9D9C"/>
<stop offset="0.9897" stop-color="#6B6B6B"/>
</linearGradient>
<linearGradient id="paint48_linear" x1="33.8786" y1="12.7228" x2="36.975" y2="12.7793" gradientUnits="userSpaceOnUse">
<stop/>
<stop offset="0.2037" stop-color="#0C0F10"/>
<stop offset="0.5594" stop-color="#1D2527"/>
<stop offset="0.6354" stop-color="#2E3536"/>
<stop offset="0.7862" stop-color="#5C5E5D"/>
<stop offset="0.8544" stop-color="#727271"/>
<stop offset="0.9065" stop-color="#707170"/>
<stop offset="0.9234" stop-color="#6B706F"/>
<stop offset="0.9489" stop-color="#616563"/>
<stop offset="0.9945" stop-color="#464644"/>
<stop offset="0.9948" stop-color="#464644"/>
</linearGradient>
<linearGradient id="paint49_linear" x1="35.9027" y1="13.9993" x2="35.9027" y2="13.1703" gradientUnits="userSpaceOnUse">
<stop stop-color="#5A5A57"/>
<stop offset="0.00812531" stop-color="#5C5C59"/>
<stop offset="0.1892" stop-color="#8E8E8B"/>
<stop offset="0.3682" stop-color="#B6B6B5"/>
<stop offset="0.5416" stop-color="#D6D6D5"/>
<stop offset="0.7079" stop-color="#EDEDEC"/>
<stop offset="0.8642" stop-color="#FAFAFA"/>
<stop offset="1" stop-color="white"/>
</linearGradient>
<linearGradient id="paint50_linear" x1="33.9009" y1="11.4925" x2="36.9614" y2="11.5483" gradientUnits="userSpaceOnUse">
<stop stop-color="#959393"/>
<stop offset="0.1867" stop-color="#999797"/>
<stop offset="0.3888" stop-color="#A6A4A4"/>
<stop offset="0.5983" stop-color="#BBBABA"/>
<stop offset="0.8114" stop-color="#D8D8D7"/>
<stop offset="0.9004" stop-color="#E7E7E6"/>
<stop offset="0.9007" stop-color="#E7E7E6"/>
<stop offset="1" stop-color="#E5E5E4"/>
</linearGradient>
<linearGradient id="paint51_linear" x1="0.52541" y1="7.10669" x2="1.13651" y2="7.09513" gradientUnits="userSpaceOnUse">
<stop stop-color="#93927E"/>
<stop offset="0.1317" stop-color="#AEAE9F"/>
<stop offset="0.2988" stop-color="#CBCBC1"/>
<stop offset="0.469" stop-color="#E2E2DC"/>
<stop offset="0.6412" stop-color="#F2F2F0"/>
<stop offset="0.8166" stop-color="#FCFCFB"/>
<stop offset="1" stop-color="white"/>
</linearGradient>
<linearGradient id="paint52_linear" x1="17.5291" y1="14.1554" x2="17.5291" y2="13.9181" gradientUnits="userSpaceOnUse">
<stop stop-color="#5A5A57"/>
<stop offset="0.032366" stop-color="#6E6E6B"/>
<stop offset="0.0887527" stop-color="#8A8A89"/>
<stop offset="0.1488" stop-color="#A0A09F"/>
<stop offset="0.2136" stop-color="#B0B0AF"/>
<stop offset="0.2862" stop-color="#B9B9B9"/>
<stop offset="0.3831" stop-color="#BCBCBC"/>
<stop offset="0.415" stop-color="#C1C1C1"/>
<stop offset="0.6612" stop-color="#E3E3E3"/>
<stop offset="0.8651" stop-color="#F7F7F7"/>
<stop offset="1" stop-color="white"/>
</linearGradient>
<linearGradient id="paint53_linear" x1="3.77386" y1="14.0995" x2="3.77386" y2="13.8982" gradientUnits="userSpaceOnUse">
<stop stop-color="#5A5A57"/>
<stop offset="0.032366" stop-color="#6E6E6B"/>
<stop offset="0.0887527" stop-color="#8A8A89"/>
<stop offset="0.1488" stop-color="#A0A09F"/>
<stop offset="0.2136" stop-color="#B0B0AF"/>
<stop offset="0.2862" stop-color="#B9B9B9"/>
<stop offset="0.3831" stop-color="#BCBCBC"/>
<stop offset="0.415" stop-color="#C1C1C1"/>
<stop offset="0.6612" stop-color="#E3E3E3"/>
<stop offset="0.8651" stop-color="#F7F7F7"/>
<stop offset="1" stop-color="white"/>
</linearGradient>
<linearGradient id="paint54_linear" x1="1.53902" y1="11.9639" x2="1.53902" y2="11.7457" gradientUnits="userSpaceOnUse">
<stop offset="0.0536398" stop-color="#9AA2A1"/>
<stop offset="0.2443" stop-color="#BFC4C4"/>
<stop offset="0.4568" stop-color="#E2E4E4"/>
<stop offset="0.6315" stop-color="#F7F8F8"/>
<stop offset="0.7455" stop-color="white"/>
</linearGradient>
<linearGradient id="paint55_linear" x1="0.536708" y1="12.6969" x2="0.697299" y2="12.6969" gradientUnits="userSpaceOnUse">
<stop stop-color="#89928F"/>
<stop offset="0.1147" stop-color="#A4ABA9"/>
<stop offset="0.3052" stop-color="#CBCFCE"/>
<stop offset="0.4803" stop-color="#E8E9E9"/>
<stop offset="0.6327" stop-color="#F9F9F9"/>
<stop offset="0.7455" stop-color="white"/>
</linearGradient>
<linearGradient id="paint56_linear" x1="34.2142" y1="9.61753" x2="34.2142" y2="6.78615" gradientUnits="userSpaceOnUse">
<stop stop-color="#BAC7BD"/>
<stop offset="0.2124" stop-color="#C0CCC3"/>
<stop offset="0.5081" stop-color="#D2DBD4"/>
<stop offset="0.8511" stop-color="#F0F3F1"/>
<stop offset="1" stop-color="white"/>
</linearGradient>
<linearGradient id="paint57_linear" x1="36.9752" y1="9.98969" x2="34.8685" y2="9.87289" gradientUnits="userSpaceOnUse">
<stop offset="0.00515464" stop-color="#D9D9D8"/>
<stop offset="0.2371" stop-color="#D6D6D4"/>
<stop offset="0.4431" stop-color="#CBCBCA"/>
<stop offset="0.6392" stop-color="#B9B9B8"/>
<stop offset="0.828" stop-color="#A0A09E"/>
<stop offset="1" stop-color="#828280"/>
</linearGradient>
<linearGradient id="paint58_linear" x1="36.9752" y1="9.98969" x2="34.8685" y2="9.87289" gradientUnits="userSpaceOnUse">
<stop offset="0.00515464" stop-color="#D9D9D8"/>
<stop offset="0.2371" stop-color="#D6D6D4"/>
<stop offset="0.4431" stop-color="#CBCBCA"/>
<stop offset="0.6392" stop-color="#B9B9B8"/>
<stop offset="0.828" stop-color="#A0A09E"/>
<stop offset="1" stop-color="#828280"/>
</linearGradient>
<linearGradient id="paint59_linear" x1="37.0581" y1="9.50406" x2="35.1802" y2="10.2632" gradientUnits="userSpaceOnUse">
<stop offset="0.00515464" stop-color="#D9D9D8"/>
<stop offset="0.2003" stop-color="#D6D6D4"/>
<stop offset="0.3736" stop-color="#CBCBCA"/>
<stop offset="0.5386" stop-color="#B9B9B7"/>
<stop offset="0.6985" stop-color="#A0A09E"/>
<stop offset="0.8532" stop-color="#80807D"/>
<stop offset="1" stop-color="#5A5A57"/>
</linearGradient>
<linearGradient id="paint60_linear" x1="36.9673" y1="10.0217" x2="34.8676" y2="9.90527" gradientUnits="userSpaceOnUse">
<stop stop-color="white"/>
<stop offset="1" stop-color="#1D1D1B"/>
</linearGradient>
<linearGradient id="paint61_linear" x1="36.2963" y1="10.228" x2="36.0746" y2="10.2157" gradientUnits="userSpaceOnUse">
<stop stop-color="#1D1D1B"/>
<stop offset="1" stop-color="white"/>
</linearGradient>
<linearGradient id="paint62_linear" x1="36.1866" y1="10.197" x2="35.0893" y2="10.1361" gradientUnits="userSpaceOnUse">
<stop stop-color="#1D1D1B"/>
<stop offset="1" stop-color="white"/>
</linearGradient>
<linearGradient id="paint63_linear" x1="36.3077" y1="10.5256" x2="36.5994" y2="10.0605" gradientUnits="userSpaceOnUse">
<stop stop-color="#B5BFBF"/>
<stop offset="1" stop-color="white"/>
</linearGradient>
<linearGradient id="paint64_linear" x1="34.8971" y1="9.79154" x2="36.9233" y2="9.90388" gradientUnits="userSpaceOnUse">
<stop stop-color="#878787"/>
<stop offset="1" stop-color="white"/>
</linearGradient>
<linearGradient id="paint65_linear" x1="0.633745" y1="8.87706" x2="1.18614" y2="8.87706" gradientUnits="userSpaceOnUse">
<stop stop-color="white"/>
<stop offset="1" stop-color="#878787"/>
</linearGradient>
<linearGradient id="paint66_linear" x1="0.633745" y1="9.70323" x2="1.18614" y2="9.70323" gradientUnits="userSpaceOnUse">
<stop stop-color="white"/>
<stop offset="1" stop-color="#878787"/>
</linearGradient>
<linearGradient id="paint67_linear" x1="0.633745" y1="10.5289" x2="1.18614" y2="10.5289" gradientUnits="userSpaceOnUse">
<stop stop-color="white"/>
<stop offset="1" stop-color="#878787"/>
</linearGradient>
<linearGradient id="paint68_linear" x1="0.858958" y1="9.70287" x2="0.459808" y2="9.70287" gradientUnits="userSpaceOnUse">
<stop stop-color="#1D1D1B"/>
<stop offset="1" stop-color="white"/>
</linearGradient>
<linearGradient id="paint69_linear" x1="29.3586" y1="14.4429" x2="34.8838" y2="11.3859" gradientUnits="userSpaceOnUse">
<stop/>
<stop offset="0.2556" stop-color="#0C0F10"/>
<stop offset="0.7018" stop-color="#1D2527"/>
<stop offset="0.7535" stop-color="#2E3536"/>
<stop offset="0.856" stop-color="#5C5E5D"/>
<stop offset="0.9024" stop-color="#727271"/>
<stop offset="0.9615" stop-color="#454543"/>
<stop offset="0.9948" stop-color="#30302E"/>
</linearGradient>
<linearGradient id="paint70_linear" x1="24.4171" y1="5.05806" x2="30.3294" y2="5.05806" gradientUnits="userSpaceOnUse">
<stop stop-color="#637771"/>
<stop offset="1" stop-color="#93A19D"/>
</linearGradient>
<linearGradient id="paint71_linear" x1="27.6675" y1="5.16118" x2="27.6315" y2="5.16118" gradientUnits="userSpaceOnUse">
<stop stop-color="#5A5A57"/>
<stop offset="0.032366" stop-color="#6E6E6B"/>
<stop offset="0.0887527" stop-color="#8A8A89"/>
<stop offset="0.1488" stop-color="#A0A09F"/>
<stop offset="0.2136" stop-color="#B0B0AF"/>
<stop offset="0.2862" stop-color="#B9B9B9"/>
<stop offset="0.3831" stop-color="#BCBCBC"/>
<stop offset="0.415" stop-color="#C1C1C1"/>
<stop offset="0.6612" stop-color="#E3E3E3"/>
<stop offset="0.8651" stop-color="#F7F7F7"/>
<stop offset="1" stop-color="white"/>
</linearGradient>
<radialGradient id="paint72_radial" cx="0" cy="0" r="1" gradientUnits="userSpaceOnUse" gradientTransform="translate(24.9633 7.82604) rotate(180) scale(0.582485 0.605419)">
<stop stop-color="#3C3C3B"/>
<stop offset="0.6407"/>
<stop offset="1"/>
</radialGradient>
<linearGradient id="paint73_linear" x1="24.978" y1="7.94774" x2="24.978" y2="7.70939" gradientUnits="userSpaceOnUse">
<stop stop-color="#303030"/>
<stop offset="0.0290603" stop-color="#292929"/>
<stop offset="0.1739" stop-color="#0B0B0B"/>
<stop offset="0.2559"/>
<stop offset="0.4212" stop-color="#060606"/>
<stop offset="0.6454" stop-color="#171716"/>
<stop offset="0.8041" stop-color="#282826"/>
<stop offset="0.9278" stop-color="#2B2B29"/>
<stop offset="0.9786" stop-color="#363635"/>
<stop offset="1" stop-color="#3C3C3B"/>
</linearGradient>
<linearGradient id="paint74_linear" x1="14.152" y1="2.46733" x2="14.152" y2="2.28473" gradientUnits="userSpaceOnUse">
<stop stop-color="#BFBFBF"/>
<stop offset="1" stop-color="white"/>
</linearGradient>
<linearGradient id="paint75_linear" x1="12.8798" y1="7.07097" x2="12.7915" y2="7.07097" gradientUnits="userSpaceOnUse">
<stop stop-color="#7E8183"/>
<stop offset="0.2273" stop-color="#898C8D"/>
<stop offset="0.6275" stop-color="#A7A8A8"/>
<stop offset="1" stop-color="#C8C8C7"/>
</linearGradient>
<linearGradient id="paint76_linear" x1="12.7889" y1="7.07097" x2="12.7006" y2="7.07097" gradientUnits="userSpaceOnUse">
<stop stop-color="#4B5757"/>
<stop offset="0.1533" stop-color="#949B9B"/>
<stop offset="0.1955" stop-color="#9FA5A5"/>
<stop offset="0.3505" stop-color="#C1C5C5"/>
<stop offset="0.5081" stop-color="#DCDFDF"/>
<stop offset="0.6676" stop-color="#F0F1F1"/>
<stop offset="0.8301" stop-color="#FBFBFB"/>
<stop offset="1" stop-color="white"/>
</linearGradient>
<linearGradient id="paint77_linear" x1="22.9005" y1="7.12238" x2="22.8118" y2="7.12238" gradientUnits="userSpaceOnUse">
<stop stop-color="#4B5757"/>
<stop offset="0.1533" stop-color="#949B9B"/>
<stop offset="0.1955" stop-color="#9FA5A5"/>
<stop offset="0.3505" stop-color="#C1C5C5"/>
<stop offset="0.5081" stop-color="#DCDFDF"/>
<stop offset="0.6676" stop-color="#F0F1F1"/>
<stop offset="0.8301" stop-color="#FBFBFB"/>
<stop offset="1" stop-color="white"/>
</linearGradient>
<linearGradient id="paint78_linear" x1="2.56108" y1="7.07097" x2="2.47279" y2="7.07097" gradientUnits="userSpaceOnUse">
<stop stop-color="#7E8183"/>
<stop offset="0.2273" stop-color="#898C8D"/>
<stop offset="0.6275" stop-color="#A7A8A8"/>
<stop offset="1" stop-color="#C8C8C7"/>
</linearGradient>
<linearGradient id="paint79_linear" x1="2.47001" y1="7.07097" x2="2.38181" y2="7.07097" gradientUnits="userSpaceOnUse">
<stop stop-color="#4B5757"/>
<stop offset="0.1533" stop-color="#949B9B"/>
<stop offset="0.1955" stop-color="#9FA5A5"/>
<stop offset="0.3505" stop-color="#C1C5C5"/>
<stop offset="0.5081" stop-color="#DCDFDF"/>
<stop offset="0.6676" stop-color="#F0F1F1"/>
<stop offset="0.8301" stop-color="#FBFBFB"/>
<stop offset="1" stop-color="white"/>
</linearGradient>
</defs>
</svg>
