<svg width="24" height="24" viewBox="0 0 24 24" fill="none" xmlns="http://www.w3.org/2000/svg">
<path d="M17 9.00093V7.00093C17 6.4705 16.7893 5.96179 16.4142 5.58672C16.0391 5.21164 15.5304 5.00093 15 5.00093H5C4.46957 5.00093 3.96086 5.21164 3.58579 5.58672C3.21071 5.96179 3 6.4705 3 7.00093V13.0009C3 13.5314 3.21071 14.0401 3.58579 14.4151C3.96086 14.7902 4.46957 15.0009 5 15.0009H7L17 9.00093ZM9 19.0009H19C19.5304 19.0009 20.0391 18.7902 20.4142 18.4151C20.7893 18.0401 21 17.5314 21 17.0009V11.0009C21 10.4705 20.7893 9.96179 20.4142 9.58672C20.0391 9.21165 19.5304 9.00093 19 9.00093H9C8.46957 9.00093 7.96086 9.21165 7.58579 9.58672C7.21071 9.96179 7 10.4705 7 11.0009V17.0009C7 17.5314 7.21071 18.0401 7.58579 18.4151C7.96086 18.7902 8.46957 19.0009 9 19.0009ZM16 14.0009C16 14.5314 15.7893 15.0401 15.4142 15.4151C15.0391 15.7902 14.5304 16.0009 14 16.0009C13.4696 16.0009 12.9609 15.7902 12.5858 15.4151C12.2107 15.0401 12 14.5314 12 14.0009C12 13.4705 12.2107 12.9618 12.5858 12.5867C12.9609 12.2116 13.4696 12.0009 14 12.0009C14.5304 12.0009 15.0391 12.2116 15.4142 12.5867C15.7893 12.9618 16 13.4705 16 14.0009V14.0009Z" stroke="#979797" stroke-width="2" stroke-linecap="round" stroke-linejoin="round"/>
</svg>
