<svg width="80" height="80" viewBox="0 0 80 80" fill="none" xmlns="http://www.w3.org/2000/svg">
<path d="M80 40.0015C80 17.9083 62.0912 0.000976562 40.0005 0.000976562C17.9088 0.000976562 0 17.9082 0 40.0015C0 62.0915 17.9088 80 40.0005 80C62.0912 80 80 62.0915 80 40.0015Z" fill="#FF001C"/>
<path d="M44.6691 40.0006L56.3634 26.4249C57.6388 24.9444 57.4721 22.7098 55.9909 21.4344C54.5121 20.16 52.2773 20.3257 51.0011 21.8062L39.9988 34.5783L28.9976 21.8062C27.7222 20.3247 25.4873 20.159 24.0066 21.4344C22.5255 22.7098 22.3597 24.9446 23.6351 26.4249L35.3285 40.0006L23.6351 53.5756C22.3597 55.0561 22.5255 57.2907 24.0066 58.5661C24.6746 59.1416 25.4966 59.4236 26.3149 59.4236C27.3083 59.4236 28.2972 59.0066 28.9976 58.1943L39.9988 45.4222L51.0011 58.1943C51.7005 59.0071 52.6892 59.4236 53.6836 59.4236C54.5009 59.4236 55.3231 59.1416 55.9911 58.5661C57.4722 57.2907 57.639 55.0559 56.3636 53.5756L44.6691 40.0006Z" fill="white"/>
</svg>
