<svg width="127" height="50" viewBox="0 0 127 50" fill="none" xmlns="http://www.w3.org/2000/svg">
<path fill-rule="evenodd" clip-rule="evenodd" d="M12.9418 25.9962C12.8772 26.532 12.8311 26.8797 12.8311 27.0113C12.8311 28.75 13.7627 29.6053 15.5984 29.6053C16.5946 29.6053 17.6462 29.3045 18.7531 28.703L19.2973 28.3553L17.5908 37.0771C16.0504 37.6128 14.1409 37.9135 12.2776 37.9135C9.18745 37.9135 6.71532 37.1053 4.89813 35.5263C3.06248 33.9568 2.14927 31.7575 2.14927 28.9286C2.14927 27.8384 2.24152 26.8891 2.426 26.062L4.42769 15.9681H0L1.61426 7.96053H5.97738L7.54551 0H18.0613L16.4931 7.96053H23.3099L21.7695 15.9681H14.9342L12.9418 25.9962Z" fill="#2D3892"/>
<path fill-rule="evenodd" clip-rule="evenodd" d="M126.567 25.4793C128.883 14.0225 121.678 2.81952 110.434 0.441701C99.1894 -1.91732 88.194 5.41351 85.8786 16.8703C83.5449 28.327 90.7676 39.5301 101.984 41.9173C106.117 42.7725 110.249 42.359 113.93 40.8552L119.815 50L126.743 45.3665L120.857 36.2312C123.689 33.374 125.709 29.6992 126.567 25.4793ZM95.1768 14.906H105.056L105.038 16.0432H94.4296L95.1768 14.906ZM94.7248 25.1879H98.5345L98.5806 26.3252H95.4166L94.7248 25.1879ZM118.441 23.75C117.029 30.6015 110.397 35.047 103.7 33.609C100.342 32.9135 97.5659 30.8552 95.8225 28.1485H106.228C106.209 30.6955 108.183 31.4849 109.364 31.5037C110.498 31.5225 112.657 30.7613 112.823 28.1485H114.548C115.839 28.0827 115.913 26.203 114.612 26.156L114.843 20.1128L111.236 16.344H108.303L108.441 12.9887H96.7173C99.5768 9.56764 104.171 7.76313 108.783 8.74997C115.461 10.1597 119.824 16.9173 118.441 23.75ZM109.53 26.2688C110.646 26.2688 111.467 27.124 111.421 28.2612C111.402 29.3985 110.443 30.2819 109.401 30.2819C108.358 30.2819 107.473 29.3985 107.491 28.2612C107.537 27.124 108.488 26.2688 109.53 26.2688ZM109.078 20.1597L109.17 17.6316H110.332L112.694 20.1597H109.078Z" fill="#2D3892"/>
<path fill-rule="evenodd" clip-rule="evenodd" d="M36.8328 10.7237C39.3511 8.12976 42.967 6.83276 47.6899 6.83276L45.8542 16.485C44.941 16.3722 44.1477 16.2971 43.4651 16.2971C41.1221 16.2971 39.2219 16.8798 37.8106 18.0358C36.3808 19.173 35.4215 20.9963 34.9511 23.4775L32.0638 37.923H21.5481L27.5439 7.34968H37.497L36.8328 10.7237Z" fill="#2D3892"/>
<path fill-rule="evenodd" clip-rule="evenodd" d="M77.6413 37.3497L83.6095 6.82336H73.0937L70.1143 21.9361C69.6623 24.1824 68.8413 25.8929 67.6606 27.0489C66.4799 28.1861 65.004 28.7595 63.1868 28.7595C60.484 28.7595 59.1465 27.4155 59.1465 24.7557C59.1465 24.0884 59.2111 23.3929 59.3771 22.6692L62.4673 6.81396H51.9515L48.6308 23.6843C48.3817 24.9531 48.2433 26.2031 48.2433 27.4531C48.2433 30.7895 49.2211 33.3741 51.149 35.1786C53.0769 36.9831 55.6874 37.8854 58.9897 37.8854C60.6962 37.8854 62.3289 37.5846 63.9432 36.9831C65.5574 36.3816 66.9872 35.4512 68.2786 34.2106L67.6698 37.3779H67.679L67.5868 37.9606L77.5399 37.9418L77.6505 37.3779V37.3591L77.6413 37.3497Z" fill="#2D3892"/>
</svg>
