<svg width="46" height="46" viewBox="0 0 46 46" fill="none" xmlns="http://www.w3.org/2000/svg">
<rect width="46" height="46" rx="23" fill="#2D3892"/>
<path fill-rule="evenodd" clip-rule="evenodd" d="M21.9793 17.2549C22.5653 17.9043 22.3795 18.6401 21.8614 19.3382C21.7386 19.5038 21.597 19.6668 21.426 19.8466C21.3439 19.9328 21.2799 19.9977 21.146 20.1317C20.842 20.436 20.5864 20.6917 20.3792 20.8988C20.2788 20.9992 20.9646 22.3696 22.2956 23.7017C23.6259 25.0332 24.9963 25.7194 25.0972 25.6184L25.8634 24.8518C26.2854 24.4295 26.5089 24.2257 26.8159 24.0243C27.4543 23.6055 28.1506 23.4917 28.7378 24.0168C30.6552 25.3882 31.7402 26.2297 32.2718 26.782C33.3086 27.8592 33.1727 29.5173 32.2777 30.4632C31.9673 30.7912 31.5738 31.1849 31.109 31.6329C28.2975 34.4457 22.3638 32.734 17.8163 28.1824C13.2677 23.6299 11.5567 17.6963 14.3623 14.8894C14.866 14.3778 15.0321 14.2119 15.5227 13.7285C16.436 12.8287 18.1708 12.6878 19.2253 13.7294C19.78 14.2773 20.6644 15.4151 21.9793 17.2549ZM27.2809 26.2663L26.5145 27.033C25.2118 28.3363 22.9933 27.2254 20.8858 25.116C18.7768 23.0052 17.667 20.7877 18.9702 19.4848C19.177 19.2779 19.4324 19.0225 19.7362 18.7184C19.8588 18.5957 19.9148 18.5389 19.9821 18.4682C20.0738 18.3718 20.1492 18.2872 20.2095 18.2123C19.0441 16.5891 18.2519 15.5749 17.8249 15.153C17.6043 14.9352 17.1105 14.9753 16.9291 15.1539C16.4456 15.6303 16.2867 15.7892 15.785 16.2986C13.9807 18.1038 15.3619 22.8938 19.2339 26.7692C23.1047 30.6434 27.8945 32.0252 29.7125 30.2065C30.1701 29.7652 30.543 29.3922 30.83 29.0889C31.0373 28.8697 31.0744 28.4175 30.8359 28.1696C30.4385 27.7568 29.4657 26.9985 27.7861 25.7924C27.6637 25.8909 27.5132 26.0338 27.2809 26.2663Z" fill="white"/>
</svg>
