<svg width="41" height="40" viewBox="0 0 41 40" fill="none" xmlns="http://www.w3.org/2000/svg">
<rect width="40.4085" height="40" rx="8" fill="#2D3892"/>
<path fill-rule="evenodd" clip-rule="evenodd" d="M14.6885 13C14.7491 13.89 14.9007 14.76 15.1431 15.59L13.9309 16.79C13.5167 15.59 13.254 14.32 13.1631 13H14.6885V13ZM24.6492 25.02C25.5079 25.26 26.3868 25.41 27.2758 25.47V26.96C25.9423 26.87 24.6593 26.61 23.437 26.21L24.6492 25.02V25.02ZM15.6583 11H12.1226C11.567 11 11.1124 11.45 11.1124 12C11.1124 21.39 18.8001 29 28.286 29C28.8416 29 29.2962 28.55 29.2962 28V24.51C29.2962 23.96 28.8416 23.51 28.286 23.51C27.0333 23.51 25.811 23.31 24.6795 22.94C24.5785 22.9 24.4674 22.89 24.3664 22.89C24.1037 22.89 23.8512 22.99 23.6491 23.18L21.4266 25.38C18.5677 23.93 16.224 21.62 14.7693 18.79L16.9918 16.59C17.2747 16.31 17.3555 15.92 17.2444 15.57C16.8706 14.45 16.6685 13.25 16.6685 12C16.6685 11.45 16.2139 11 15.6583 11Z" fill="white"/>
</svg>
