<svg width="35" height="34" viewBox="0 0 35 34" fill="none" xmlns="http://www.w3.org/2000/svg">
<circle cx="17.52" cy="17" r="17" fill="#2C3891"/>
<path d="M16.8807 15.3018H21.1315L20.6592 17.191H16.8807V25.6927H14.9914V17.191H11.2129V15.3018H14.9914V13.5334C14.9914 11.8491 15.1671 11.238 15.4959 10.6221C15.818 10.0135 16.3156 9.51589 16.9241 9.19377C17.54 8.86503 18.1512 8.68933 19.8355 8.68933C20.3286 8.68933 20.7612 8.73656 21.1315 8.83103V10.5786H19.8355C18.5848 10.5786 18.2041 10.6523 17.8159 10.8601C17.5287 11.0131 17.3152 11.2266 17.1622 11.5138C16.9544 11.902 16.8807 12.2827 16.8807 13.5334V15.3018Z" fill="white"/>
</svg>
