<svg width="34" height="34" viewBox="0 0 34 34" fill="none" xmlns="http://www.w3.org/2000/svg">
<circle cx="17" cy="17" r="17" fill="#2C3891"/>
<path d="M17.0001 14.1667C16.2487 14.1667 15.528 14.4652 14.9966 14.9965C14.4653 15.5279 14.1668 16.2485 14.1668 17C14.1668 17.7514 14.4653 18.4721 14.9966 19.0035C15.528 19.5348 16.2487 19.8333 17.0001 19.8333C17.7516 19.8333 18.4722 19.5348 19.0036 19.0035C19.5349 18.4721 19.8334 17.7514 19.8334 17C19.8334 16.2485 19.5349 15.5279 19.0036 14.9965C18.4722 14.4652 17.7516 14.1667 17.0001 14.1667ZM17.0001 12.2778C18.2525 12.2778 19.4536 12.7753 20.3392 13.6609C21.2248 14.5465 21.7223 15.7476 21.7223 17C21.7223 18.2524 21.2248 19.4535 20.3392 20.3391C19.4536 21.2247 18.2525 21.7222 17.0001 21.7222C15.7477 21.7222 14.5466 21.2247 13.661 20.3391C12.7754 19.4535 12.2779 18.2524 12.2779 17C12.2779 15.7476 12.7754 14.5465 13.661 13.6609C14.5466 12.7753 15.7477 12.2778 17.0001 12.2778ZM23.139 12.0417C23.139 12.3548 23.0146 12.655 22.7932 12.8764C22.5718 13.0978 22.2715 13.2222 21.9584 13.2222C21.6453 13.2222 21.3451 13.0978 21.1237 12.8764C20.9023 12.655 20.7779 12.3548 20.7779 12.0417C20.7779 11.7285 20.9023 11.4283 21.1237 11.2069C21.3451 10.9855 21.6453 10.8611 21.9584 10.8611C22.2715 10.8611 22.5718 10.9855 22.7932 11.2069C23.0146 11.4283 23.139 11.7285 23.139 12.0417ZM17.0001 9.44443C14.6636 9.44443 14.282 9.45104 13.1949 9.49921C12.4545 9.53415 11.9577 9.63332 11.4968 9.81276C11.0869 9.97143 10.7913 10.1613 10.4768 10.4767C10.1812 10.7623 9.95394 11.111 9.81194 11.4967C9.6325 11.9595 9.53333 12.4553 9.49933 13.1948C9.45022 14.2375 9.44455 14.602 9.44455 17C9.44455 19.3365 9.45116 19.7181 9.49933 20.8052C9.53428 21.5447 9.63344 22.0424 9.81194 22.5023C9.9725 22.9132 10.1614 23.2088 10.4749 23.5223C10.7932 23.8397 11.0888 24.0295 11.4949 24.1863C11.9615 24.3667 12.4583 24.4668 13.1949 24.5008C14.2376 24.5499 14.6022 24.5555 17.0001 24.5555C19.3367 24.5555 19.7182 24.5489 20.8053 24.5008C21.5438 24.4658 22.0416 24.3667 22.5024 24.1882C22.9114 24.0285 23.2089 23.8387 23.5224 23.5252C23.8407 23.2069 24.0306 22.9113 24.1873 22.5052C24.3668 22.0395 24.4669 21.5418 24.5009 20.8052C24.55 19.7625 24.5557 19.3979 24.5557 17C24.5557 14.6634 24.5491 14.2819 24.5009 13.1948C24.4659 12.4563 24.3668 11.9576 24.1873 11.4967C24.045 11.1114 23.8181 10.7628 23.5234 10.4767C23.2379 10.181 22.8892 9.95364 22.5034 9.81182C22.0406 9.63238 21.5438 9.53321 20.8053 9.49921C19.7626 9.4501 19.3981 9.44443 17.0001 9.44443ZM17.0001 7.55554C19.5662 7.55554 19.8863 7.56499 20.8931 7.61221C21.8989 7.65943 22.5837 7.81715 23.1862 8.05138C23.8096 8.29126 24.3347 8.61615 24.8598 9.14032C25.34 9.61244 25.7116 10.1835 25.9487 10.8139C26.182 11.4155 26.3407 12.1012 26.3879 13.107C26.4323 14.1138 26.4446 14.4339 26.4446 17C26.4446 19.566 26.4351 19.8862 26.3879 20.893C26.3407 21.8988 26.182 22.5835 25.9487 23.1861C25.7123 23.8168 25.3406 24.388 24.8598 24.8597C24.3875 25.3397 23.8165 25.7113 23.1862 25.9486C22.5846 26.1819 21.8989 26.3405 20.8931 26.3878C19.8863 26.4322 19.5662 26.4444 17.0001 26.4444C14.4341 26.4444 14.1139 26.435 13.1071 26.3878C12.1013 26.3405 11.4166 26.1819 10.814 25.9486C10.1834 25.712 9.61222 25.3403 9.14044 24.8597C8.6601 24.3876 8.28849 23.8165 8.0515 23.1861C7.81728 22.5845 7.65955 21.8988 7.61233 20.893C7.56794 19.8862 7.55566 19.566 7.55566 17C7.55566 14.4339 7.56511 14.1138 7.61233 13.107C7.65955 12.1002 7.81728 11.4164 8.0515 10.8139C8.28783 10.1832 8.65953 9.6119 9.14044 9.14032C9.61235 8.65982 10.1835 8.28818 10.814 8.05138C11.4166 7.81715 12.1003 7.65943 13.1071 7.61221C14.1139 7.56782 14.4341 7.55554 17.0001 7.55554Z" fill="white"/>
</svg>
