<svg width="35" height="34" viewBox="0 0 35 34" fill="none" xmlns="http://www.w3.org/2000/svg">
<circle cx="17.2798" cy="17" r="17" fill="#2C3891"/>
<path d="M17.0553 13.1011C17.9215 12.216 19.0494 11.637 20.3615 11.637C21.7394 11.637 23.0609 12.1843 24.0352 13.1587C25.0096 14.133 25.557 15.4545 25.557 16.8324V23.9172H23.6677V16.8324C23.6677 15.9556 23.3194 15.1146 22.6993 14.4946C22.0793 13.8746 21.2383 13.5262 20.3615 13.5262C19.4846 13.5262 18.6437 13.8746 18.0236 14.4946C17.4036 15.1146 17.0553 15.9556 17.0553 16.8324V23.9172H15.166V12.1093H17.0553V13.1011ZM10.4428 10.22C10.067 10.22 9.70662 10.0707 9.44089 9.80499C9.17516 9.53926 9.02588 9.17886 9.02588 8.80306C9.02588 8.42726 9.17516 8.06685 9.44089 7.80112C9.70662 7.53539 10.067 7.38611 10.4428 7.38611C10.8186 7.38611 11.179 7.53539 11.4448 7.80112C11.7105 8.06685 11.8598 8.42726 11.8598 8.80306C11.8598 9.17886 11.7105 9.53926 11.4448 9.80499C11.179 10.0707 10.8186 10.22 10.4428 10.22ZM9.4982 12.1093H11.3875V23.9172H9.4982V12.1093Z" fill="white"/>
</svg>
