<svg width="41" height="40" viewBox="0 0 41 40" fill="none" xmlns="http://www.w3.org/2000/svg">
<rect x="0.0974731" width="40.4085" height="40" rx="8" fill="#2D3892"/>
<path fill-rule="evenodd" clip-rule="evenodd" d="M20.3018 10C24.2113 10 27.3732 13.13 27.3732 17C27.3732 22.25 20.3018 30 20.3018 30C20.3018 30 13.2303 22.25 13.2303 17C13.2303 13.13 16.3922 10 20.3018 10ZM15.2507 17C15.2507 19.85 18.2005 24.21 20.3017 26.88C22.4434 24.19 25.3528 19.88 25.3528 17C25.3528 14.24 23.0899 12 20.3017 12C17.5136 12 15.2507 14.24 15.2507 17ZM20.3018 19.5C18.9069 19.5 17.7762 18.3807 17.7762 17C17.7762 15.6193 18.9069 14.5 20.3018 14.5C21.6966 14.5 22.8273 15.6193 22.8273 17C22.8273 18.3807 21.6966 19.5 20.3018 19.5Z" fill="white"/>
</svg>
