<svg width="35" height="34" viewBox="0 0 35 34" fill="none" xmlns="http://www.w3.org/2000/svg">
<circle cx="17.7598" cy="17" r="17" fill="#2C3891"/>
<path d="M22.0135 10.6826C21.2956 10.6825 20.6063 10.9642 20.094 11.4672C19.5816 11.9701 19.2872 12.6541 19.2741 13.372L19.2477 14.8598C19.2461 14.9396 19.2277 15.0183 19.1936 15.0906C19.1595 15.1628 19.1105 15.2271 19.0499 15.2791C18.9892 15.3311 18.9183 15.3697 18.8416 15.3923C18.765 15.415 18.6845 15.4212 18.6053 15.4105L17.1307 15.2102C15.1905 14.9457 13.3314 14.0521 11.548 12.5662C10.9831 15.6929 12.0864 17.859 14.7436 19.53L16.3939 20.5672C16.4723 20.6165 16.5375 20.6843 16.5836 20.7645C16.6298 20.8448 16.6556 20.9352 16.6588 21.0277C16.662 21.1203 16.6424 21.2122 16.6018 21.2955C16.5613 21.3787 16.5009 21.4507 16.426 21.5053L14.9222 22.6039C15.8167 22.6596 16.666 22.6199 17.3707 22.4801C21.8274 21.5903 24.7908 18.2368 24.7908 12.7051C24.7908 12.2535 23.8348 10.6826 22.0135 10.6826ZM17.3848 13.337C17.4013 12.4264 17.6861 11.541 18.2034 10.7914C18.7208 10.0419 19.4477 9.46168 20.2933 9.12335C21.1388 8.78503 22.0654 8.70366 22.957 8.88944C23.8486 9.07522 24.6655 9.51989 25.3056 10.1678C25.9772 10.163 26.5487 10.3331 27.8268 9.55848C27.5104 11.1077 27.3545 11.7803 26.68 12.7051C26.68 19.9239 22.2431 23.4342 17.741 24.3325C14.6539 24.9484 10.165 23.9367 8.87842 22.5935C9.53399 22.5425 12.1979 22.2562 13.7376 21.1293C12.435 20.2706 7.24987 17.2195 10.6572 9.01626C12.2564 10.8838 13.8784 12.1553 15.522 12.8297C16.6159 13.2784 16.8842 13.269 17.3858 13.338L17.3848 13.337Z" fill="white"/>
</svg>
