<svg width="41" height="40" viewBox="0 0 41 40" fill="none" xmlns="http://www.w3.org/2000/svg">
<rect x="0.0427246" width="40.4085" height="40" rx="8" fill="#2D3892"/>
<g clip-path="url(#clip0)">
<path d="M20.6805 31.9858C22.5345 31.725 24.1598 29.8095 25.1826 26.9807C23.7041 26.6529 22.1953 26.477 20.6805 26.4561V31.9858Z" fill="white"/>
<path d="M23.6423 31.5359C23.7519 31.5045 23.861 31.4729 23.9694 31.4381C24.0608 31.409 24.1509 31.3776 24.241 31.3464C24.3476 31.3099 24.4539 31.2724 24.5596 31.2327C24.6498 31.1987 24.7391 31.1627 24.8286 31.1267C24.9318 31.0837 25.0348 31.041 25.1368 30.9981C25.2259 30.9593 25.3143 30.9187 25.4028 30.8779C25.5028 30.8312 25.6025 30.7836 25.7013 30.7342C25.788 30.6904 25.8746 30.6458 25.9613 30.5999C26.0584 30.5484 26.1549 30.4959 26.2507 30.4418C26.3375 30.3932 26.4211 30.3444 26.5055 30.2942C26.5994 30.237 26.6929 30.1798 26.7858 30.1226C26.869 30.0703 26.9519 30.0171 27.0338 29.9622C27.1252 29.9013 27.2153 29.8378 27.305 29.7744C27.3856 29.7172 27.4658 29.6602 27.5445 29.6028C27.6313 29.5366 27.7201 29.4682 27.8071 29.3995C27.8843 29.3385 27.9613 29.278 28.0373 29.2154C28.1238 29.1442 28.2067 29.0704 28.2907 28.9967C28.3644 28.932 28.4384 28.8679 28.5104 28.8015C28.5931 28.7251 28.6737 28.6459 28.7543 28.5674C28.8241 28.4991 28.8948 28.4319 28.9631 28.3619C28.9758 28.3489 28.9879 28.3349 29.001 28.3215C28.0559 27.8383 27.0604 27.459 26.032 27.1905C25.4971 28.879 24.5453 30.4092 23.2627 31.6419C23.2978 31.6329 23.3329 31.6256 23.3681 31.6165C23.4607 31.5908 23.5517 31.5625 23.6423 31.5359V31.5359Z" fill="white"/>
<path d="M32.3695 20.4388H27.1741C27.1544 22.4468 26.8601 24.4429 26.2992 26.3729C27.443 26.6753 28.5468 27.1101 29.5877 27.6683C31.2968 25.6292 32.2751 23.0869 32.3695 20.4388V20.4388Z" fill="white"/>
<path d="M20.6805 19.5809H26.3077C26.2857 17.6439 25.9986 15.7187 25.4546 13.8579C23.8877 14.2116 22.2874 14.4005 20.6805 14.4215V19.5809Z" fill="white"/>
<path d="M20.6805 8.03387V13.5636C22.1953 13.5424 23.7041 13.3667 25.1826 13.039C24.1598 10.2101 22.5345 8.29462 20.6805 8.03387V8.03387Z" fill="white"/>
<path d="M20.6805 25.5982C22.2874 25.6194 23.8877 25.8083 25.4546 26.162C25.9986 24.3012 26.2857 22.3758 26.3077 20.4388H20.6805V25.5982Z" fill="white"/>
<path d="M29.5877 12.3514C28.5468 12.9096 27.443 13.3443 26.2992 13.6468C26.8601 15.5767 27.1544 17.5728 27.1741 19.5809H32.3695C32.2749 16.933 31.2966 14.3907 29.5877 12.3514V12.3514Z" fill="white"/>
<path d="M29.0024 11.7007C28.9897 11.6879 28.9776 11.6741 28.9651 11.6609C28.8966 11.5909 28.8255 11.5235 28.7557 11.4554C28.6753 11.3769 28.5951 11.2975 28.5121 11.2213C28.4404 11.1551 28.3662 11.0925 28.2925 11.0265C28.2085 10.9528 28.1245 10.8784 28.0382 10.8072C27.9633 10.7446 27.8865 10.6847 27.8103 10.6246C27.7236 10.5551 27.6347 10.4859 27.5455 10.4196C27.4672 10.3611 27.3878 10.3046 27.3081 10.248C27.2175 10.1835 27.1265 10.1192 27.0343 10.0579C26.9533 10.0038 26.871 9.95105 26.7886 9.89932C26.6949 9.83963 26.6014 9.7812 26.506 9.72465C26.4224 9.67501 26.338 9.62601 26.2534 9.57846C26.1565 9.52359 26.0593 9.47039 25.9614 9.41845C25.8746 9.37552 25.7881 9.32882 25.7014 9.28588C25.6017 9.23604 25.5012 9.18808 25.3982 9.14095C25.3114 9.10011 25.2234 9.06032 25.1341 9.02157C25.0315 8.97655 24.9278 8.93592 24.8244 8.89298C24.7351 8.85696 24.6462 8.82135 24.5561 8.78743C24.4509 8.74763 24.3443 8.71035 24.2377 8.67391C24.1475 8.6425 24.0574 8.61129 23.966 8.58197C23.8577 8.5472 23.7494 8.51558 23.6381 8.48374C23.5479 8.45756 23.4574 8.43097 23.3662 8.40709C23.3313 8.39767 23.2957 8.39034 23.2606 8.38133C24.5432 9.61407 25.4949 11.144 26.0299 12.8327C27.0595 12.5642 28.0564 12.1847 29.0024 11.7007V11.7007Z" fill="white"/>
<path d="M8.12442 19.5809H13.3198C13.3395 17.5728 13.6338 15.5767 14.1945 13.6468C13.0509 13.3446 11.9471 12.9098 10.9062 12.3514C9.1971 14.3905 8.21878 16.933 8.12442 19.5809Z" fill="white"/>
<path d="M19.8137 31.9858V26.4561C18.2988 26.4772 16.7901 26.6529 15.3116 26.9807C16.3341 29.8095 17.9597 31.725 19.8137 31.9858Z" fill="white"/>
<path d="M19.8136 20.4388H14.1864C14.2084 22.3758 14.4953 24.3012 15.0394 26.162C16.6064 25.8081 18.2065 25.6192 19.8136 25.5982V20.4388Z" fill="white"/>
<path d="M19.8137 8.03387C17.9597 8.29462 16.3341 10.2101 15.3116 13.039C16.7901 13.3669 18.2988 13.5427 19.8137 13.5636V8.03387Z" fill="white"/>
<path d="M19.8136 14.4215C18.2067 14.4005 16.6064 14.2116 15.0394 13.8579C14.4953 15.7187 14.2084 17.6439 14.1864 19.5809H19.8136V14.4215Z" fill="white"/>
<path d="M17.2301 8.38094C17.195 8.38995 17.1599 8.39728 17.1248 8.40628C17.033 8.43058 16.9424 8.45759 16.851 8.48377C16.7423 8.51519 16.6343 8.54681 16.5252 8.58116C16.4331 8.61069 16.3426 8.64211 16.252 8.67331C16.146 8.71038 16.0398 8.74724 15.9349 8.78662C15.8443 8.82096 15.755 8.85657 15.6653 8.89301C15.5623 8.93594 15.459 8.97888 15.3573 9.0216C15.268 9.06035 15.1798 9.10098 15.0913 9.14182C14.9913 9.18852 14.8916 9.23606 14.7928 9.28549C14.7061 9.32926 14.6193 9.37408 14.5328 9.41974C14.4357 9.47126 14.3394 9.52404 14.2438 9.57807C14.157 9.62603 14.0718 9.67525 13.9882 9.72552C13.894 9.78164 13.8009 9.83966 13.7083 9.89704C13.6249 9.94982 13.5422 10.003 13.4603 10.0579C13.3689 10.1188 13.2788 10.1823 13.1891 10.2458C13.1084 10.3029 13.0283 10.3599 12.9493 10.4175C12.8607 10.4835 12.7761 10.5522 12.6868 10.6206C12.6098 10.6816 12.5321 10.7421 12.4568 10.8052C12.3701 10.8759 12.2877 10.9492 12.2042 11.0225C12.1301 11.0879 12.0554 11.1514 11.9831 11.219C11.9008 11.295 11.8206 11.374 11.7402 11.4523C11.6704 11.5206 11.5993 11.588 11.5307 11.6582C11.5182 11.6712 11.5062 11.6854 11.4931 11.6986C12.438 12.182 13.4336 12.5613 14.4621 12.8298C14.997 11.1421 15.9482 9.61305 17.2301 8.38094V8.38094Z" fill="white"/>
<path d="M11.7383 28.5642C11.8189 28.6428 11.8991 28.7222 11.9818 28.7986C12.0537 28.8646 12.1278 28.9272 12.2016 28.9932C12.2856 29.0671 12.3696 29.1412 12.4559 29.2124C12.5308 29.2746 12.6072 29.3348 12.6838 29.3951C12.7705 29.4646 12.8571 29.5337 12.9489 29.6005C13.027 29.6585 13.1063 29.7147 13.1857 29.7723C13.2762 29.8366 13.3676 29.9009 13.4599 29.9626C13.5409 30.0167 13.6232 30.0695 13.7055 30.1214C13.7992 30.1809 13.8927 30.2393 13.9882 30.2959C14.0717 30.3457 14.1562 30.3945 14.2408 30.4423C14.3377 30.4971 14.4348 30.5503 14.5328 30.6021C14.6193 30.645 14.706 30.6917 14.7928 30.7346C14.8924 30.7845 14.9929 30.8324 15.096 30.8798C15.1827 30.9202 15.2707 30.96 15.36 30.9989C15.4626 31.044 15.5661 31.0846 15.6698 31.1275C15.759 31.1636 15.8479 31.1992 15.938 31.2331C16.0432 31.2731 16.1498 31.3104 16.2565 31.3468C16.3466 31.378 16.4367 31.4094 16.5281 31.4386C16.6364 31.4733 16.7448 31.5052 16.8561 31.5368C16.9462 31.563 17.0367 31.5896 17.1277 31.6136C17.1628 31.6231 17.1984 31.6304 17.2335 31.6394C15.9509 30.4064 14.9993 28.8765 14.4642 27.1878C13.4357 27.4565 12.4401 27.8358 11.4952 28.3194C11.5079 28.3322 11.5199 28.346 11.5326 28.3592C11.5976 28.4287 11.6676 28.4962 11.7383 28.5642V28.5642Z" fill="white"/>
<path d="M10.9062 27.6683C11.9471 27.1101 13.0509 26.6753 14.1945 26.3729C13.6338 24.4429 13.3395 22.4468 13.3198 20.4388H8.12442C8.21899 23.0866 9.1971 25.629 10.9062 27.6683V27.6683Z" fill="white"/>
</g>
<defs>
<clipPath id="clip0">
<rect width="24.2451" height="24" fill="white" transform="translate(8.12442 8)"/>
</clipPath>
</defs>
</svg>
