<svg width="12" height="16" viewBox="0 0 12 16" fill="none" xmlns="http://www.w3.org/2000/svg">
<path d="M10.7369 2.73992C9.76585 1.06417 8.0411 0.0403906 6.12313 0.00126563C6.04125 -0.000421875 5.95885 -0.000421875 5.87694 0.00126563C3.95901 0.0403906 2.23425 1.06417 1.26319 2.73992C0.27063 4.4528 0.243474 6.5103 1.19054 8.24376L5.15813 15.5059C5.15991 15.5091 5.16169 15.5123 5.16354 15.5155C5.3381 15.8189 5.65082 16 6.0001 16C6.34935 16 6.66207 15.8189 6.8366 15.5155C6.83844 15.5123 6.84022 15.5091 6.842 15.5059L10.8096 8.24376C11.7566 6.5103 11.7294 4.4528 10.7369 2.73992ZM6.00004 7.25002C4.75938 7.25002 3.75004 6.24067 3.75004 5.00002C3.75004 3.75936 4.75938 2.75002 6.00004 2.75002C7.24069 2.75002 8.25004 3.75936 8.25004 5.00002C8.25004 6.24067 7.24072 7.25002 6.00004 7.25002Z" fill="#ABB3BB"/>
</svg>
