<svg width="28" height="28" viewBox="0 0 28 28" fill="none" xmlns="http://www.w3.org/2000/svg">
<circle cx="14" cy="14" r="14" fill="#0B7801"/>
<path d="M13.9999 22.4C18.1168 22.4 21.4665 19.0502 21.4665 14.9333C21.4665 11.8066 19.5327 9.12702 16.7999 8.01636V10.0912C17.6501 10.582 18.3563 11.2877 18.8477 12.1376C19.3391 12.9875 19.5985 13.9516 19.5999 14.9333C19.5999 18.0217 17.0883 20.5333 13.9999 20.5333C10.9115 20.5333 8.39987 18.0217 8.39987 14.9333C8.40111 13.9516 8.66046 12.9874 9.1519 12.1375C9.64335 11.2877 10.3496 10.5819 11.1999 10.0912V8.01636C8.46707 9.12702 6.5332 11.8066 6.5332 14.9333C6.5332 19.0502 9.88294 22.4 13.9999 22.4Z" fill="white"/>
<path d="M13.0664 4.66675H14.9331V14.0001H13.0664V4.66675Z" fill="white"/>
</svg>
