<svg width="46" height="46" viewBox="0 0 46 46" fill="none" xmlns="http://www.w3.org/2000/svg">
<rect width="46" height="46" rx="23" fill="#2D3892"/>
<path fill-rule="evenodd" clip-rule="evenodd" d="M30.0124 15.9423C26.644 12.5468 21.3411 12.0289 17.3812 14.7085C13.4212 17.3882 11.9224 22.5087 13.8111 26.9054C13.9065 27.1035 13.9379 27.3265 13.9007 27.5433L13.0249 31.7591C12.9564 32.0874 13.0574 32.4283 13.2936 32.6661C13.4863 32.8576 13.7487 32.962 14.0201 32.9551H14.2191L18.4784 32.098C18.6949 32.0719 18.9144 32.1028 19.1153 32.1877C23.5055 34.0792 28.6183 32.5782 31.294 28.6123C33.9697 24.6464 33.4525 19.3356 30.0621 15.9622L30.0124 15.9423ZM30.8384 24.2743C30.4442 26.6853 28.968 28.7822 26.833 29.964C24.698 31.1459 22.1398 31.2822 19.8916 30.3339C19.4981 30.1663 19.0753 30.0782 18.6476 30.0748C18.4608 30.0761 18.2744 30.0928 18.0903 30.1246L15.284 30.6927L15.8512 27.8822C15.9642 27.2735 15.8914 26.6448 15.6422 26.0782C14.6954 23.8267 14.8315 21.2646 16.0116 19.1264C17.1917 16.9882 19.2855 15.5099 21.6928 15.1151C24.2231 14.6992 26.7986 15.5293 28.6117 17.3451C30.4248 19.1609 31.2537 21.7402 30.8384 24.2743ZM22.9766 23.9852C23.5262 23.9852 23.9718 23.539 23.9718 22.9886C23.9718 22.4382 23.5262 21.9919 22.9766 21.9919C22.427 21.9919 21.9814 22.4382 21.9814 22.9886C21.9814 23.539 22.427 23.9852 22.9766 23.9852ZM26.9572 23.9852C27.5068 23.9852 27.9524 23.539 27.9524 22.9886C27.9524 22.4382 27.5068 21.9919 26.9572 21.9919C26.4076 21.9919 25.962 22.4382 25.962 22.9886C25.962 23.539 26.4076 23.9852 26.9572 23.9852ZM18.9959 23.9852C19.5455 23.9852 19.9911 23.539 19.9911 22.9886C19.9911 22.4382 19.5455 21.9919 18.9959 21.9919C18.4463 21.9919 18.0007 22.4382 18.0007 22.9886C18.0007 23.539 18.4463 23.9852 18.9959 23.9852Z" fill="white"/>
</svg>
