<svg width="233" height="163" viewBox="0 0 233 163" fill="none" xmlns="http://www.w3.org/2000/svg">
<g clip-path="url(#clip0)">
<path d="M224.706 92.0841C222.192 102.954 220.411 113.473 223.2 126.024C223.934 129.316 224.604 132.336 225.211 135.083C225.37 135.819 225.53 136.538 225.684 137.234C225.935 138.365 226.172 139.446 226.398 140.48C226.947 142.972 227.433 145.195 227.87 147.162C228.113 148.276 228.337 149.311 228.542 150.266C229.631 155.292 226.011 160.078 221.13 160.078H12.9775C8.51857 160.078 4.59682 156.889 3.53483 152.321C3.47106 152.034 3.4122 151.747 3.35578 151.455C2.68131 147.624 3.24296 142.945 7.32414 138.309C7.59884 137.997 7.86617 137.696 8.13596 137.401C17.093 127.547 22.1405 127.159 16.0285 108.812C13.9094 102.563 12.2969 96.1537 11.2067 89.6457C8.56027 73.2365 9.70565 54.5067 22.734 40.0183C41.2906 19.3628 74.1167 18.5385 95.3859 25.8121C110.371 30.9368 130.279 25.059 140.735 21.1364C144.698 19.6344 148.289 17.291 151.259 14.2676C156.142 9.34163 166.161 -1.07693 180.88 0.078506C198.22 1.4351 214.726 13.5709 223.695 29.7813C228.162 37.8571 230.752 46.9534 230.626 56.2018C230.538 61.7696 229.994 67.3208 229 72.7999C227.796 79.6319 226.131 85.9145 224.706 92.0841Z" fill="#FCFFE9"/>
<path d="M230.63 55.4929C230.63 55.7382 230.63 55.9835 230.63 56.2117C230.539 61.7763 229.994 67.3242 228.999 72.7999C227.8 79.6319 226.135 85.9145 224.71 92.0842C222.196 102.954 220.415 113.473 223.204 126.024C223.938 129.316 224.608 132.336 225.215 135.083C225.374 135.819 225.534 136.538 225.688 137.235C225.938 138.365 226.176 139.446 226.402 140.48C226.951 142.972 227.437 145.195 227.874 147.162C228.117 148.276 228.341 149.311 228.546 150.266C229.635 155.292 226.015 160.078 221.134 160.078H12.9765C8.5176 160.078 4.59584 156.889 3.53385 152.321C3.47008 152.034 3.41122 151.747 3.35481 151.455C2.68033 147.624 3.24199 142.945 7.32316 138.309C7.59786 137.997 7.8652 137.696 8.13499 137.401C13.9183 131.023 18.0706 128.621 18.6396 122.773C18.9584 119.56 18.1957 115.318 16.0276 108.812C13.9085 102.563 12.2959 96.1537 11.2057 89.6457C18.3821 87.9555 26.0073 93.2739 32.5877 91.8536C43.0654 89.5967 24.8595 72.4736 31.2216 60.6322C37.5837 48.7909 51.9979 40.8573 60.7562 54.254C69.5145 67.6507 104.896 79.681 116.178 63.9391C127.46 48.1972 147.849 29.8623 168.804 36.2184C179.105 39.3413 187.734 49.2005 198.609 49.8506C205.231 50.2456 211.166 46.6493 216.005 42.4912C218.186 40.6218 225.652 33.3163 223.699 29.7863C228.043 37.6584 230.613 46.48 230.63 55.4929Z" fill="#F9F9D4"/>
<path d="M230.631 55.4928C230.631 55.7381 230.631 55.9834 230.631 56.2116C230.54 61.7762 229.994 67.3241 229 72.7998C228.34 76.5556 227.528 80.1421 226.719 83.6354C226.047 86.5007 225.353 89.3047 224.71 92.0841C222.196 102.954 220.415 113.473 223.204 126.024C223.938 129.316 224.609 132.335 225.215 135.083C225.375 135.819 225.534 136.538 225.689 137.234C225.939 138.365 226.177 139.446 226.402 140.48C226.952 142.972 227.437 145.195 227.874 147.162C228.117 148.276 228.341 149.311 228.546 150.266C229.635 155.292 226.015 160.078 221.134 160.078H12.9767C8.51778 160.078 4.59602 156.889 3.53403 152.321C3.47027 152.034 3.4114 151.747 3.35499 151.455C2.82655 148.612 3.1517 145.676 4.28944 143.017C5.04298 141.295 6.06725 139.706 7.32335 138.309C7.59804 137.997 7.86538 137.696 8.13517 137.401C13.9185 131.023 18.0708 128.621 18.6398 122.773C28.8673 127.486 38.8151 120.474 40.1347 106.604C41.6577 90.5828 51.662 73.4867 73.1324 88.451C94.6027 103.415 152.997 100.994 167.595 74.3649C182.194 47.7359 203.159 65.2613 217.801 64.6701C224.031 64.41 228.058 60.22 230.631 55.4928Z" fill="#DCEFB4"/>
<path d="M221.122 160.078H12.9767C8.74833 160.078 5.00071 157.213 3.72289 153.018C3.65176 152.792 3.59044 152.557 3.53403 152.321C3.47027 152.034 3.4114 151.747 3.35499 151.455C2.82655 148.612 3.1517 145.676 4.28944 143.017C11.2059 139.403 18.6864 139.98 18.6864 139.98C18.6864 139.98 19.5448 139.756 21.0164 138.832C21.5339 138.508 22.1323 138.096 22.8044 137.59C22.8485 137.553 22.8976 137.519 22.9466 137.48C24.6852 136.116 26.2966 134.598 27.7611 132.944C29.5019 130.986 31.1173 128.921 32.5977 126.76C40.6718 115.078 56.1283 116.456 70.9005 125.074C85.6727 133.692 142.691 124.01 159.249 105.814C175.807 87.6194 191.133 73.8474 216.79 80.0564C220.786 81.0204 224.048 82.2642 226.714 83.6527C226.042 86.518 225.348 89.3219 224.705 92.1014C222.191 102.971 220.41 113.49 223.199 126.041C223.747 128.494 224.259 130.798 224.734 132.954L225.21 135.1C225.37 135.836 225.529 136.555 225.684 137.252L225.72 137.419C225.904 138.248 226.078 139.047 226.25 139.825C226.299 140.051 226.351 140.274 226.397 140.497C226.401 140.516 226.406 140.535 226.412 140.554C226.618 141.487 226.815 142.387 227.003 143.252C227.167 144.042 227.33 144.802 227.494 145.531C227.616 146.1 227.736 146.651 227.854 147.182C228.098 148.296 228.322 149.33 228.526 150.285C229.623 155.292 226.002 160.078 221.122 160.078Z" fill="#9EDB9A"/>
<path d="M131.358 159.735C131.358 159.848 131.358 159.966 131.341 160.078H12.9769C11.1283 160.078 9.32128 159.529 7.7847 158.501C5.83344 157.203 4.39686 155.263 3.72314 153.018C14.8973 148.235 37.6308 144.964 63.8568 144.964C101.134 144.964 131.358 151.588 131.358 159.735Z" fill="#85CC85"/>
<path d="M121.729 160.078H12.9769C11.1282 160.078 9.32125 159.529 7.78467 158.501C17.9729 154.75 38.8718 152.177 62.9983 152.177C90.3721 152.177 113.594 155.488 121.729 160.078Z" fill="#73B075"/>
<path d="M201.775 151.365C177.74 154.179 67.126 150.781 75.8794 145.06C84.6329 139.339 57.8477 140.966 35.3497 139.629C28.6221 139.227 24.8254 138.469 22.8118 137.598C20.7001 136.688 20.548 135.66 21.0238 134.801C21.4997 133.942 22.5175 133.3 22.9541 133.047L23.1527 132.937H224.735L225.21 135.083C225.37 135.819 225.529 136.538 225.684 137.235L225.72 137.401C225.904 138.231 226.079 139.03 226.25 139.808C226.299 140.034 226.351 140.257 226.397 140.48C226.401 140.499 226.406 140.518 226.412 140.537C220.83 140.811 216.275 141.12 217.889 142.641C220.607 145.21 225.811 148.549 201.775 151.365Z" fill="#85CC85"/>
<path d="M202.977 49.1023C204.399 49.1023 205.552 47.9491 205.552 46.5265C205.552 45.1039 204.399 43.9507 202.977 43.9507C201.555 43.9507 200.402 45.1039 200.402 46.5265C200.402 47.9491 201.555 49.1023 202.977 49.1023Z" fill="white"/>
<path d="M79.8306 132.944C79.8306 132.944 84.3827 132.718 91.8975 138.356C99.4124 143.993 102.846 148.119 112.635 149.885C122.423 151.652 194.798 150.783 198.29 150.543C201.783 150.302 214.164 148.497 211.92 143.762C209.675 139.028 227.82 135.87 215.142 134.519C202.465 133.167 79.8306 132.944 79.8306 132.944Z" fill="#73B075"/>
<path d="M182.716 44.1568V117.786L50.7523 117.906L50.4972 44.1568H30.2998V42.2826L57.0801 10.9558H147.59L182.716 44.1568Z" fill="#995252"/>
<path d="M182.718 44.1569V117.786L50.7521 117.906L50.4995 44.1569L60.7172 26.9701H164.535L182.718 44.1569Z" fill="#FFAD96"/>
<path d="M182.718 44.1569V65.5165H90.4602V54.2565H50.4995V44.1569L60.7172 26.9701H164.535L182.718 44.1569Z" fill="#F29681"/>
<path d="M69.0294 32.7522H68.9362C68.5054 32.7522 68.1562 33.1015 68.1562 33.5323V41.3456C68.1562 41.7764 68.5054 42.1257 68.9362 42.1257H69.0294C69.4601 42.1257 69.8093 41.7764 69.8093 41.3456V33.5323C69.8093 33.1015 69.4601 32.7522 69.0294 32.7522Z" fill="#995252"/>
<path d="M72.004 32.7522H71.9108C71.4801 32.7522 71.1309 33.1015 71.1309 33.5323V41.3456C71.1309 41.7764 71.4801 42.1257 71.9108 42.1257H72.004C72.4347 42.1257 72.7839 41.7764 72.7839 41.3456V33.5323C72.7839 33.1015 72.4347 32.7522 72.004 32.7522Z" fill="#995252"/>
<path d="M28.0138 42.2826H27.9868V46.0335H28.0138V42.2826Z" fill="#E29574"/>
<path d="M184.205 42.2827V46.0311H85.641V42.2827L62.3729 12.5995H57.4087L57.1267 12.9258L57.0776 12.9797V7.90906H158.761L163.407 14.1891L170.455 23.7098L184.205 42.2827Z" fill="#EFABAB"/>
<path d="M163.409 14.1891C157.383 15.4378 142.088 17.0814 128.955 17.4935C107.146 18.1804 62.2773 7.90662 62.2773 7.90662H158.761L163.409 14.1891Z" fill="#F9C2C2"/>
<path d="M184.205 42.2827V46.0311H85.641V42.2827L68.9876 21.0384L62.3655 12.6044H57.4087L57.1267 12.9307L57.0801 12.7737V7.90662H62.2772C73.5838 15.06 110.013 26.9995 129.261 29.7912C147.764 32.4725 164.618 27.4239 170.465 23.7099L178.137 34.0818L184.205 42.2827Z" fill="#E58383"/>
<path d="M184.205 42.2827V46.0311H85.6407V42.2827L68.9873 21.0383C69.3478 21.2836 112.799 37.1016 139.096 39.6259C159.242 41.559 172.793 36.584 178.137 34.0867L184.205 42.2827Z" fill="#D87575"/>
<path d="M92.1258 46.0336H89.8105V117.904H92.1258V46.0336Z" fill="#995252"/>
<path d="M30.3021 46.0336H27.9868V117.904H30.3021V46.0336Z" fill="#995252"/>
<path d="M182.88 128.528H14.1001V133.839H182.88V128.528Z" fill="#EFABAB"/>
<path d="M182.89 128.528V133.839H52.214C50.5143 132.581 48.8269 131.568 47.1223 131.183C41.8296 129.988 20.9773 129.61 14.1001 129.733V128.528H182.89Z" fill="#E58383"/>
<path d="M182.88 123.217H21.0435V128.528H182.88V123.217Z" fill="#CE6E6E"/>
<path d="M182.89 123.217V128.528H57.1363C53.683 126.419 50.0532 124.522 49.256 124.358C47.9831 124.076 28.2223 124.255 21.0508 124.331V123.229L182.89 123.217Z" fill="#B55959"/>
<path d="M182.88 117.906H27.9868V123.217H182.88V117.906Z" fill="#EFABAB"/>
<path d="M182.89 117.904V123.217H55.6746C53.759 121.102 49.6386 119.464 41.7264 119.307C35.3815 119.179 30.822 118.774 27.9917 118.433V117.904H182.89Z" fill="#E58383"/>
<path d="M184.205 42.2311V46.0115H92.226V46.0311H85.6407V42.2827L62.3726 12.5995H57.4085L57.0774 12.9797L31.9551 42.2827V46.0311H28.0112V41.9122L57.0774 8.13473L57.1411 8.06604H64.3936L64.5334 8.23776L92.226 41.9122V42.2311H184.205Z" fill="#CE6E6E"/>
<path d="M184.205 42.2312V46.0115H92.2309V46.0311H85.6407V42.2827L62.3726 12.5995H57.4085L57.07 12.9846L31.9551 42.2827V46.0311H28.0112V45.3663C29.1247 43.3474 31.0304 40.357 34.0938 36.7361C39.9089 29.8673 58.8138 9.26074 58.8138 9.26074C58.8138 9.26074 64.4156 9.69986 65.355 9.26074L92.226 41.9123V42.2312H184.205Z" fill="#B55959"/>
<path d="M152.463 5.09766H143.869V13.2225H152.463V5.09766Z" fill="#CE6E6E"/>
<path d="M152.465 3.53503H143.869V5.09769H152.465V3.53503Z" fill="#995252"/>
<path d="M152.463 5.09766H150.883V13.2225H152.463V5.09766Z" fill="#B55959"/>
<path d="M84.6622 117.702L55.8364 117.906L55.623 72.4467H84.6622V117.702Z" fill="#B55959"/>
<path d="M186.471 115.6V134.19H86.2319V129.232H180.867V115.6H186.471Z" fill="#7A6BA1"/>
<path d="M187.626 126.909V131.558H184.99V134.19H119.041V131.558H86.2319V129.232H180.867V115.6H183.999V126.909H187.626Z" fill="#665A91"/>
<path d="M183.01 115.6V130.319H86.2319V129.232H180.867V115.6H183.01Z" fill="#564E85"/>
<path d="M182.515 56.4202H86.2319V129.232H182.515V56.4202Z" fill="url(#paint0_linear)"/>
<path d="M182.515 59.364H92.0128C90.4309 59.364 89.1653 60.6028 89.2365 62.087C89.4964 67.5428 89.6657 79.5534 86.384 82.7573C86.3331 82.8074 86.2781 82.8534 86.2197 82.8946V56.4202H182.515V59.364Z" fill="#F9F9FF"/>
<path d="M182.515 66.8191V129.232H86.2319V111.481C94.4041 110.525 133.636 110.88 158.094 93.2568C170.651 84.2095 178.149 74.3895 182.515 66.8191Z" fill="#BFBFF7"/>
<path d="M182.515 98.7003V129.232H86.2319V120.433C98.316 120.869 132.135 121.88 151.55 120.256C167.274 118.941 177.411 106.847 182.515 98.7003Z" fill="#ACACE8"/>
<path d="M216.101 81.6067L225.127 94.7384C225.506 95.2844 225.71 95.9331 225.711 96.5979V105.238C225.711 106.57 224.56 107.652 223.143 107.652H217.384C216.593 107.652 215.821 107.405 215.177 106.945L209.781 103.064H190.196C189.663 103.08 189.145 102.884 188.756 102.518C188.367 102.153 188.139 101.648 188.122 101.114V82.6542C188.129 82.3889 188.188 82.1277 188.296 81.8854C188.404 81.643 188.559 81.4245 188.752 81.2421C188.945 81.0598 189.171 80.9173 189.419 80.8229C189.667 80.7284 189.931 80.6838 190.196 80.6917H214.36C214.703 80.6908 215.04 80.7737 215.344 80.9332C215.647 81.0926 215.907 81.3238 216.101 81.6067Z" fill="#7270D9"/>
<path d="M229.998 94.4417V134.183H184.823V78.8568C184.823 78.5072 184.901 78.162 185.051 77.8461C185.273 77.3982 185.617 77.0223 186.044 76.7619C186.47 76.5014 186.962 76.367 187.462 76.3742H217.762L218.809 77.9221L229.998 94.4417Z" fill="#D66161"/>
<path d="M229.998 94.4417V114.3L185.051 77.8461C185.273 77.3982 185.618 77.0223 186.044 76.7619C186.471 76.5014 186.962 76.367 187.462 76.3742H217.762L218.809 77.9221L229.998 94.4417Z" fill="#ED8080"/>
<path d="M229.998 127.056V134.193H184.823V108.869C189.537 114.523 197.822 119.015 210.543 120.433C219.272 121.414 225.566 124.13 229.998 127.056Z" fill="#B85353"/>
<path d="M188.884 106.496L190.037 107.89H195.359L193.169 105.258L188.884 106.496Z" fill="#B85353"/>
<path d="M193.171 105.258H188.884V106.496H193.171V105.258Z" fill="#E6EDFA"/>
<path d="M209.293 134.19H184.823V124.218H204.277L209.293 134.19Z" fill="#665A91"/>
<path d="M186.473 131.867C186.964 128.457 189.274 126.288 186.029 126.288C185.617 126.301 185.207 126.229 184.823 126.078V124.216H204.279L209.293 134.19H186.324C186.317 133.413 186.367 132.637 186.473 131.867Z" fill="#564E85"/>
<path d="M225.711 95.6683V104.308C225.711 105.64 224.561 106.722 223.143 106.722H217.387C216.595 106.722 215.824 106.475 215.179 106.016L209.784 102.135H190.212C189.947 102.142 189.683 102.097 189.435 102.003C189.188 101.908 188.961 101.766 188.768 101.583C188.576 101.401 188.421 101.183 188.313 100.941C188.205 100.698 188.146 100.437 188.139 100.172V81.7343C188.156 81.2014 188.384 80.6971 188.773 80.3319C189.161 79.9668 189.679 79.7707 190.212 79.7865H214.358C214.563 79.7857 214.768 79.8137 214.966 79.8699C215.427 79.9999 215.829 80.285 216.104 80.677L225.127 93.8088C225.507 94.3547 225.71 95.0034 225.711 95.6683Z" fill="#E6EDFA"/>
<path d="M214.966 79.8699L208.972 102.135H204.025L210.046 79.7865H214.358C214.564 79.7857 214.768 79.8137 214.966 79.8699Z" fill="white"/>
<path d="M208.371 79.8699L202.376 102.135H199.737L205.759 79.7865H207.765C207.97 79.7857 208.174 79.8137 208.371 79.8699Z" fill="white"/>
<path d="M207.576 134.19C207.576 139.325 203.146 143.485 197.684 143.485C195.945 143.491 194.232 143.057 192.706 142.222C191.641 141.643 190.694 140.869 189.914 139.94C188.55 138.335 187.799 136.297 187.795 134.19C187.795 129.056 192.225 124.895 197.689 124.895C199.825 124.886 201.911 125.544 203.654 126.779L203.809 126.89C204.966 127.724 205.911 128.821 206.565 130.089C207.22 131.358 207.566 132.763 207.576 134.19Z" fill="#5E5E80"/>
<path d="M207.524 135.152C207.034 139.609 203.139 143.156 198.381 143.461C196.408 143.599 194.437 143.169 192.701 142.222C192.032 141.747 191.427 141.189 190.9 140.561C190.129 139.658 189.547 138.609 189.189 137.477C188.831 136.344 188.704 135.152 188.816 133.969C189.235 129.48 193.127 125.874 197.908 125.54C199.898 125.387 201.89 125.813 203.644 126.767C206.291 128.658 207.89 131.742 207.524 135.152Z" fill="#494963"/>
<path d="M203.453 134.19C203.453 137.186 200.871 139.612 197.685 139.612C196.669 139.615 195.67 139.362 194.778 138.876C194.158 138.538 193.606 138.086 193.152 137.544C192.355 136.608 191.916 135.419 191.914 134.19C191.914 131.195 194.496 128.769 197.685 128.769C198.93 128.763 200.146 129.148 201.162 129.868C201.194 129.887 201.224 129.909 201.253 129.932C201.929 130.418 202.48 131.058 202.862 131.798C203.245 132.538 203.447 133.357 203.453 134.19Z" fill="#404057"/>
<path d="M197.685 138.839C200.417 138.839 202.632 136.758 202.632 134.19C202.632 131.623 200.417 129.541 197.685 129.541C194.953 129.541 192.738 131.623 192.738 134.19C192.738 136.758 194.953 138.839 197.685 138.839Z" fill="#BFBFF7"/>
<path d="M197.684 138.373C200.143 138.373 202.136 136.5 202.136 134.19C202.136 131.88 200.143 130.008 197.684 130.008C195.226 130.008 193.233 131.88 193.233 134.19C193.233 136.5 195.226 138.373 197.684 138.373Z" fill="url(#paint1_linear)"/>
<path d="M197.684 136.359C198.959 136.359 199.992 135.388 199.992 134.19C199.992 132.993 198.959 132.022 197.684 132.022C196.41 132.022 195.376 132.993 195.376 134.19C195.376 135.388 196.41 136.359 197.684 136.359Z" fill="#404057"/>
<path d="M197.685 135.895C198.686 135.895 199.497 135.132 199.497 134.19C199.497 133.248 198.686 132.485 197.685 132.485C196.684 132.485 195.872 133.248 195.872 134.19C195.872 135.132 196.684 135.895 197.685 135.895Z" fill="#494963"/>
<path d="M120.868 134.19C120.868 139.325 116.438 143.485 110.976 143.485C109.237 143.491 107.524 143.057 105.998 142.222C104.933 141.643 103.986 140.869 103.206 139.94C101.84 138.336 101.087 136.298 101.083 134.19C101.083 129.056 105.512 124.895 110.976 124.895C113.112 124.886 115.198 125.544 116.941 126.779L117.096 126.89C118.254 127.724 119.2 128.82 119.855 130.088C120.511 131.357 120.858 132.762 120.868 134.19Z" fill="#5E5E80"/>
<path d="M120.817 135.152C120.348 139.612 116.424 143.159 111.673 143.463C109.702 143.6 107.732 143.169 105.998 142.222C105.329 141.747 104.723 141.189 104.195 140.561C103.425 139.657 102.844 138.608 102.486 137.476C102.128 136.344 102.001 135.151 102.113 133.969C102.532 129.48 106.425 125.874 111.205 125.54C113.195 125.387 115.188 125.813 116.942 126.767C119.583 128.658 121.182 131.742 120.817 135.152Z" fill="#494963"/>
<path d="M116.745 134.19C116.745 137.185 114.163 139.612 110.977 139.612C109.961 139.615 108.962 139.362 108.07 138.876C107.45 138.537 106.898 138.086 106.444 137.544C105.647 136.608 105.208 135.419 105.206 134.19C105.206 131.195 107.788 128.769 110.977 128.769C112.225 128.762 113.443 129.146 114.462 129.868C114.494 129.887 114.523 129.909 114.553 129.931C115.227 130.419 115.777 131.059 116.158 131.799C116.539 132.539 116.74 133.358 116.745 134.19Z" fill="#404057"/>
<path d="M110.977 138.839C113.709 138.839 115.924 136.758 115.924 134.19C115.924 131.623 113.709 129.541 110.977 129.541C108.245 129.541 106.03 131.623 106.03 134.19C106.03 136.758 108.245 138.839 110.977 138.839Z" fill="#BFBFF7"/>
<path d="M110.976 138.373C113.435 138.373 115.428 136.5 115.428 134.19C115.428 131.88 113.435 130.008 110.976 130.008C108.518 130.008 106.525 131.88 106.525 134.19C106.525 136.5 108.518 138.373 110.976 138.373Z" fill="url(#paint2_linear)"/>
<path d="M110.977 136.359C112.252 136.359 113.285 135.388 113.285 134.19C113.285 132.993 112.252 132.022 110.977 132.022C109.702 132.022 108.669 132.993 108.669 134.19C108.669 135.388 109.702 136.359 110.977 136.359Z" fill="#404057"/>
<path d="M110.977 135.895C111.978 135.895 112.789 135.132 112.789 134.19C112.789 133.248 111.978 132.485 110.977 132.485C109.976 132.485 109.164 133.248 109.164 134.19C109.164 135.132 109.976 135.895 110.977 135.895Z" fill="#494963"/>
<path d="M141.642 134.19C141.642 139.325 137.212 143.485 131.748 143.485C130.008 143.491 128.296 143.056 126.769 142.222C125.705 141.642 124.759 140.868 123.98 139.94C122.614 138.336 121.861 136.298 121.856 134.19C121.856 129.056 126.286 124.895 131.748 124.895C133.885 124.885 135.971 125.544 137.715 126.779L137.87 126.89C139.028 127.724 139.974 128.82 140.629 130.088C141.285 131.357 141.632 132.762 141.642 134.19Z" fill="#5E5E80"/>
<path d="M141.591 135.152C141.1 139.609 137.205 143.156 132.447 143.461C130.475 143.597 128.505 143.166 126.769 142.219C126.102 141.744 125.497 141.186 124.969 140.558C124.199 139.655 123.618 138.606 123.26 137.474C122.902 136.342 122.775 135.149 122.887 133.967C123.306 129.478 127.199 125.871 131.979 125.538C133.969 125.385 135.962 125.811 137.715 126.764C140.357 128.658 141.956 131.742 141.591 135.152Z" fill="#494963"/>
<path d="M137.517 134.19C137.517 137.186 134.934 139.612 131.746 139.612C130.731 139.615 129.732 139.362 128.842 138.876C128.221 138.538 127.669 138.086 127.216 137.544C126.423 136.606 125.988 135.418 125.989 134.19C125.989 131.195 128.572 128.769 131.758 128.769C133.004 128.763 134.221 129.147 135.238 129.868C135.27 129.887 135.299 129.909 135.329 129.932C136.002 130.42 136.551 131.06 136.931 131.799C137.311 132.539 137.512 133.358 137.517 134.19Z" fill="#404057"/>
<path d="M131.748 138.839C134.48 138.839 136.695 136.758 136.695 134.19C136.695 131.623 134.48 129.541 131.748 129.541C129.016 129.541 126.801 131.623 126.801 134.19C126.801 136.758 129.016 138.839 131.748 138.839Z" fill="#BFBFF7"/>
<path d="M131.748 138.373C134.206 138.373 136.199 136.5 136.199 134.19C136.199 131.88 134.206 130.008 131.748 130.008C129.289 130.008 127.296 131.88 127.296 134.19C127.296 136.5 129.289 138.373 131.748 138.373Z" fill="url(#paint3_linear)"/>
<path d="M131.748 136.359C133.022 136.359 134.056 135.388 134.056 134.19C134.056 132.993 133.022 132.022 131.748 132.022C130.473 132.022 129.44 132.993 129.44 134.19C129.44 135.388 130.473 136.359 131.748 136.359Z" fill="#404057"/>
<path d="M131.748 135.895C132.749 135.895 133.561 135.132 133.561 134.19C133.561 133.248 132.749 132.485 131.748 132.485C130.747 132.485 129.936 133.248 129.936 134.19C129.936 135.132 130.747 135.895 131.748 135.895Z" fill="#494963"/>
<path d="M182.518 124.277H82.936V129.235H182.518V124.277Z" fill="url(#paint4_linear)"/>
<path d="M182.515 124.274V129.232H95.2725C97.4308 129.048 99.7804 128.94 102.351 128.923C109.954 128.869 120.5 126.887 131.169 124.262L182.515 124.274Z" fill="#7270D9"/>
<path d="M86.2321 56.4202V124.277L66.7778 132.149V64.2948L86.2321 56.4202Z" fill="#BBC3F2"/>
<path d="M86.2321 56.4202V57.9657L68.7007 65.3055C68.7007 65.3055 68.6369 70.9036 66.7778 73.369V64.2923L86.2321 56.4202Z" fill="#E8EAF2"/>
<path d="M86.2321 56.4202V124.274L66.7778 132.149V112.291C70.2508 107.73 74.1676 102.414 77.4223 97.5719C85.2584 85.8924 86.2321 56.4202 86.2321 56.4202Z" fill="#A1AEE5"/>
<path d="M86.2321 98.3691V124.274L66.7778 132.149V124.77C70.9252 121.861 75.3375 118.208 78.6486 113.976C82.2122 109.394 84.6305 103.572 86.2321 98.3691Z" fill="#8596C9"/>
<path d="M231.317 131.401H228.35V136.359H231.317V131.401Z" fill="#7A6BA1"/>
<path d="M231.317 131.401V136.359H228.35V134.872H229.998V131.401H231.317Z" fill="#665A91"/>
<path d="M134.375 111.572C140.021 111.572 144.597 110.463 144.597 109.094C144.597 107.726 140.021 106.617 134.375 106.617C128.729 106.617 124.152 107.726 124.152 109.094C124.152 110.463 128.729 111.572 134.375 111.572Z" fill="white"/>
<path d="M142.763 74.8949C140.916 70.8423 137.858 68.1929 134.375 68.1929C128.734 68.1929 124.152 75.1991 124.152 83.8416C124.184 85.9336 124.536 88.0084 125.195 89.9941C126.298 93.4297 128.013 96.6376 130.257 99.4633C131.822 101.389 133.352 102.586 134.375 102.586C136.413 102.586 140.472 97.8197 142.812 92.0376C143.881 89.4004 144.593 86.5523 144.593 83.8489C144.623 80.7684 143.999 77.7165 142.763 74.8949ZM134.375 84.8008C132.033 84.8008 130.132 82.1023 130.132 78.7905C130.132 75.4788 132.033 72.7803 134.375 72.7803C136.717 72.7803 138.615 75.4788 138.615 78.7905C138.615 82.1023 136.717 84.8008 134.375 84.8008Z" fill="white"/>
<path d="M189.156 114.675H131.713V156.543H189.156V114.675Z" fill="#F4DA8B"/>
<path d="M189.156 115.588V156.541H131.713V149.365C136.155 146.621 140.74 144.114 145.448 141.856C147.817 140.72 150.28 139.629 152.823 138.608C153.621 138.281 154.426 137.968 155.237 137.669C170.997 131.749 182.973 121.63 189.156 115.588Z" fill="#FAC885"/>
<path d="M189.157 135.13V156.541H152.767C153.748 156.175 154.776 155.82 155.84 155.481L157.537 154.929C175.358 149.019 180.317 144.547 189.157 135.13Z" fill="#F0B07B"/>
<path d="M147.632 120.573H138.635V124.701H147.632V120.573Z" fill="#F7AF74"/>
<path d="M146.94 121.161H139.327V124.11H146.94V121.161Z" fill="#FAC885"/>
<path d="M164.935 114.675H158.705V119.981H164.935V114.675Z" fill="#E6EDFA"/>
<path d="M164.935 114.673V119.981H158.705V118.873C159.263 118.543 159.841 118.25 160.437 117.994C163.093 116.832 164.27 115.634 164.756 114.673H164.935Z" fill="#CDDDFA"/>
<path opacity="0.5" d="M151.565 156.541H142.196C142.984 152.952 144.237 147.317 145.456 141.856L131.721 124.672V123.146L151.234 123.2L151.565 156.541Z" fill="#CC8C60"/>
<path d="M149.081 124.92H112.12V156.543H149.081V124.92Z" fill="#F4DA8B"/>
<path d="M149.081 125.609V156.541H112.12V151.119C116.382 148.048 121.535 144.817 127.26 142.288C137.396 137.816 145.1 130.174 149.081 125.609Z" fill="#FAC885"/>
<path d="M149.081 140.37V156.541H125.666C126.298 156.266 126.958 155.999 127.645 155.739C140.006 151.063 143.217 147.705 149.081 140.37Z" fill="#F0B07B"/>
<path d="M122.362 129.372H116.574V132.49H122.362V129.372Z" fill="#F7AF74"/>
<path d="M121.915 129.819H117.018V132.046H121.915V129.819Z" fill="#FAC885"/>
<path d="M133.494 124.92H129.487V128.928H133.494V124.92Z" fill="#E6EDFA"/>
<path d="M133.494 124.917V128.926H129.487V128.089C129.843 127.843 130.215 127.621 130.6 127.424C132.317 126.549 133.068 125.643 133.379 124.917H133.494Z" fill="#CDDDFA"/>
<path d="M209.455 133.381H181.865V156.987H209.455V133.381Z" fill="#F4DA8B"/>
<path d="M209.457 133.896V156.985H181.868V152.937C185.397 150.355 189.185 148.146 193.169 146.346C200.733 143.002 206.485 137.303 209.457 133.896Z" fill="#FAC885"/>
<path d="M209.457 144.915V156.985H191.977C192.45 156.779 192.941 156.578 193.449 156.386C202.683 152.898 205.079 150.391 209.457 144.915Z" fill="#F0B07B"/>
<path d="M189.512 136.707H185.191V139.035H189.512V136.707Z" fill="#F7AF74"/>
<path d="M189.179 137.038H185.522V138.701H189.179V137.038Z" fill="#FAC885"/>
<path d="M197.822 133.381H194.83V136.373H197.822V133.381Z" fill="#E6EDFA"/>
<path d="M197.822 133.381V136.378H194.83V135.753C195.095 135.571 195.373 135.407 195.661 135.262C196.939 134.607 197.503 133.933 197.736 133.39L197.822 133.381Z" fill="#CDDDFA"/>
<path d="M38.1508 154.554C37.9486 154.955 37.8025 155.383 37.7167 155.824H31.4478V154.144L31.7789 152.856L31.9726 151.276L32.1075 150.214H36.6277C36.6277 150.214 36.8068 150.413 37.0913 150.705C36.9258 150.788 36.7788 150.904 36.6592 151.046C36.5395 151.188 36.4496 151.352 36.3947 151.529C36.1519 152.27 37.4493 153.808 38.1508 154.554Z" fill="#59496B"/>
<path d="M38.1508 154.554C37.9486 154.955 37.8025 155.383 37.7167 155.824H36.2917C36.1514 155.555 35.9359 155.331 35.6712 155.182C35.4065 155.032 35.1041 154.962 34.8005 154.981C33.3927 155.035 33.459 153.894 33.8367 152.633C34.0819 151.828 32.8728 151.446 31.9727 151.276L32.1076 150.214H36.6278L36.7651 150.366C36.8436 150.452 36.954 150.572 37.0913 150.712C36.9258 150.796 36.7789 150.912 36.6592 151.053C36.5395 151.195 36.4496 151.359 36.3948 151.536C36.1519 152.27 37.4494 153.808 38.1508 154.554Z" fill="#4D3A5E"/>
<path d="M38.1509 154.554C37.9486 154.955 37.8026 155.383 37.7168 155.824H37.6407C37.49 155.082 37.1079 154.406 36.5493 153.894C35.8626 153.207 35.1758 152.52 35.8626 151.146C35.947 150.958 36.0716 150.791 36.2275 150.656C36.3834 150.522 36.5669 150.423 36.7652 150.366C36.8436 150.452 36.954 150.572 37.0914 150.712C36.9259 150.796 36.7789 150.912 36.6593 151.053C36.5396 151.195 36.4496 151.359 36.3948 151.536C36.152 152.27 37.4494 153.808 38.1509 154.554Z" fill="#3C2F49"/>
<path d="M39.951 153.146C39.3236 153.298 38.7677 153.662 38.3765 154.176C38.2946 154.298 38.2193 154.424 38.1508 154.554C37.7973 154.173 37.4633 153.776 37.1501 153.361C36.6596 152.694 36.25 151.973 36.3947 151.536C36.4496 151.359 36.5395 151.195 36.6592 151.053C36.7788 150.912 36.9258 150.796 37.0913 150.712C37.7169 151.371 38.3846 151.989 39.0902 152.562C39.3595 152.781 39.6476 152.976 39.951 153.146Z" fill="#E6E6FF"/>
<path d="M39.9513 153.146C39.3238 153.298 38.7679 153.662 38.3767 154.176C38.2949 154.298 38.2195 154.424 38.1511 154.554C38.0137 154.407 37.8543 154.227 37.6826 154.029C37.5109 153.83 37.327 153.595 37.1504 153.362C37.3368 153.101 37.6409 152.957 38.1511 153.018C38.336 153.055 38.5281 153.031 38.6978 152.949C38.8675 152.866 39.0055 152.73 39.0904 152.562C39.2449 152.684 39.397 152.807 39.5442 152.9C39.6757 152.989 39.8116 153.071 39.9513 153.146Z" fill="#C7C7EF"/>
<path d="M39.9513 153.146C39.3238 153.298 38.7679 153.662 38.3767 154.176C38.2949 154.298 38.2196 154.424 38.1511 154.554C38.0137 154.407 37.8543 154.227 37.6826 154.029C37.9549 153.688 38.8721 153.217 39.5442 152.9C39.6757 152.989 39.8116 153.071 39.9513 153.146Z" fill="#ADADE0"/>
<path d="M43.5809 156.816H31.4478V155.834H37.7167C37.7314 155.771 37.7437 155.704 37.7584 155.638C37.8781 155.122 38.0873 154.63 38.3764 154.186C38.7676 153.672 39.3236 153.308 39.951 153.156L40.0246 153.197C40.861 153.617 41.6973 153.901 42.3644 154.306C42.7449 154.52 43.0726 154.817 43.3234 155.174C43.4629 155.376 43.5681 155.599 43.6349 155.834C43.7446 156.156 43.7253 156.508 43.5809 156.816Z" fill="#E6E6FF"/>
<path d="M43.5809 156.816H31.4478V155.834H37.7167C37.7314 155.771 37.7437 155.704 37.7584 155.638C37.957 155.702 38.8719 155.925 40.6844 155.626C41.0613 155.584 41.4186 155.437 41.7144 155.199C42.0103 154.962 42.2323 154.645 42.3546 154.286C42.7351 154.501 43.0628 154.797 43.3136 155.155C43.4531 155.356 43.5583 155.579 43.6251 155.815C43.6403 155.862 43.6518 155.91 43.6594 155.959C43.7358 156.245 43.708 156.549 43.5809 156.816Z" fill="#C7C7EF"/>
<path d="M43.5811 156.816H35.5781V156.249C35.5781 156.249 39.6421 156.3 42.3891 156.249C43.0317 156.234 43.4339 156.129 43.6694 155.969C43.7403 156.253 43.7091 156.553 43.5811 156.816Z" fill="#ADADE0"/>
<path d="M26.935 154.554C26.7338 154.956 26.5877 155.383 26.5009 155.824H20.2319V154.144L20.563 152.856L20.7936 151.021L20.8917 150.214H25.4119C25.4119 150.214 25.5909 150.413 25.8779 150.705C25.7118 150.788 25.5642 150.904 25.4441 151.045C25.324 151.187 25.2338 151.352 25.1789 151.529C24.941 152.27 26.2433 153.808 26.935 154.554Z" fill="#59496B"/>
<path d="M26.9348 154.554C26.7336 154.956 26.5876 155.383 26.5007 155.824H22.5005C22.9738 155.162 23.0523 154.777 22.3901 154.554C21.2815 154.183 22.1228 153.207 21.7794 152.076C21.6961 151.843 21.5662 151.629 21.3975 151.448C21.2288 151.266 21.0249 151.121 20.7983 151.021L20.8964 150.214H25.4166C25.4166 150.214 25.5098 150.317 25.6619 150.486L25.8753 150.712C25.7092 150.795 25.5616 150.911 25.4415 151.053C25.3214 151.194 25.2312 151.359 25.1763 151.536C24.9408 152.27 26.2432 153.808 26.9348 154.554Z" fill="#4D3A5E"/>
<path d="M26.935 154.554C26.7338 154.956 26.5877 155.383 26.5008 155.825H24.1831C24.757 155.16 25.8999 155.351 25.9147 154.554C25.9318 153.496 23.8397 152.177 24.6712 151.07C24.9089 150.754 25.2613 150.545 25.6522 150.486L25.8656 150.712C25.6995 150.795 25.552 150.911 25.4318 151.053C25.3117 151.194 25.2215 151.359 25.1666 151.536C24.941 152.27 26.2433 153.808 26.935 154.554Z" fill="#3C2F49"/>
<path d="M28.7351 153.146C28.1076 153.298 27.5517 153.662 27.1605 154.176C27.0786 154.298 27.0033 154.424 26.9348 154.554C26.5884 154.184 26.261 153.796 25.9538 153.393C25.4461 152.716 25.0267 151.98 25.1739 151.536C25.2287 151.359 25.3189 151.194 25.4391 151.053C25.5592 150.911 25.7068 150.795 25.8729 150.712C26.4936 151.37 27.1572 151.986 27.8595 152.557C28.1349 152.776 28.4277 152.973 28.7351 153.146Z" fill="#E6E6FF"/>
<path d="M28.7353 153.146C28.1079 153.298 27.5519 153.662 27.1607 154.176C27.0789 154.298 27.0036 154.424 26.9351 154.554C26.8615 154.475 26.783 154.389 26.7021 154.296C26.4716 154.036 26.2116 153.722 25.9663 153.393C26.2637 153.221 26.6038 153.136 26.9474 153.148C27.1408 153.137 27.328 153.076 27.4909 152.971C27.6537 152.866 27.7867 152.721 27.8769 152.549C27.9971 152.648 28.1222 152.736 28.2374 152.819C28.3973 152.937 28.5636 153.046 28.7353 153.146Z" fill="#C7C7EF"/>
<path d="M28.7354 153.146C28.1079 153.298 27.552 153.662 27.1608 154.176C27.079 154.298 27.0036 154.424 26.9352 154.554C26.8616 154.475 26.7831 154.389 26.7021 154.296C27.092 153.697 27.6128 153.193 28.2252 152.824C28.3892 152.941 28.5595 153.048 28.7354 153.146Z" fill="#ADADE0"/>
<path d="M32.3749 156.816H20.2319V155.834H26.5009C26.6121 155.247 26.8362 154.688 27.1606 154.186C27.5518 153.672 28.1077 153.308 28.7352 153.156L28.8112 153.197C29.731 153.656 30.6483 153.955 31.3448 154.424C31.6436 154.618 31.9025 154.868 32.1076 155.16C32.2467 155.362 32.3527 155.584 32.4215 155.82C32.5368 156.145 32.52 156.502 32.3749 156.816Z" fill="#E6E6FF"/>
<path d="M32.3749 156.816H20.2319V155.834C21.755 155.859 27.5678 155.94 29.4563 155.834C30.6826 155.763 31.1731 155.042 31.3448 154.429C31.6436 154.623 31.9026 154.873 32.1076 155.165C32.2175 155.325 32.3073 155.498 32.3749 155.68L32.4215 155.825C32.5354 156.148 32.5187 156.504 32.3749 156.816Z" fill="#C7C7EF"/>
<path d="M32.3749 156.816H20.2319V156.364C21.9095 156.352 27.4132 156.31 29.964 156.364C31.5091 156.401 32.1345 156.038 32.3749 155.675L32.4215 155.82C32.5368 156.145 32.52 156.502 32.3749 156.816Z" fill="#ADADE0"/>
<path d="M40.6843 123.823L37.3218 150.217H31.4551L31.5017 149.353L32.544 130.218L32.7672 126.131L28.2544 107.745L28.1514 107.326L28.2323 107.313L37.3218 105.677L40.6843 123.823Z" fill="#59496B"/>
<path d="M40.6844 123.821L37.6824 147.371L37.3219 150.204H31.4552L31.5042 149.343C32.24 148.463 33.1009 147.449 34.0869 146.247C37.8075 141.702 34.4891 133.614 33.5792 132.139C33.2637 131.629 32.9747 131.102 32.7134 130.562C32.6545 130.439 32.5957 130.317 32.5441 130.209C32.2498 129.581 32.0831 129.146 32.0831 129.146C32.055 129.115 32.0288 129.083 32.0046 129.048C30.1921 126.652 28.5905 113.898 28.2545 107.735L28.2324 107.301L30.3736 106.918L37.3219 105.667L37.7069 107.738L40.6844 123.821Z" fill="#4D3A5E"/>
<path d="M35.9925 124.247C37.0226 126.605 33.8391 129.61 32.7133 130.572C32.6544 130.449 32.5956 130.326 32.5441 130.218C32.2497 129.59 32.083 129.156 32.083 129.156C32.0549 129.125 32.0287 129.092 32.0045 129.058C31.3447 125.246 29.9197 116.451 29.9639 111.815C29.9698 110.182 30.1067 108.552 30.3735 106.94L37.3218 105.689L37.7069 107.76C36.3579 108.613 34.6705 109.602 33.4417 110.063C31.0529 110.959 33.0567 113.034 34.4571 110.966C35.8576 108.898 34.1505 113.559 33.9666 115.872C33.7826 118.186 34.7514 121.394 35.9925 124.247Z" fill="#3C2F49"/>
<path d="M37.6949 147.381L37.3343 150.214H32.8853C33.1913 150.042 33.5093 149.892 33.8369 149.765C35.2646 149.227 36.5747 148.417 37.6949 147.381Z" fill="#3C2F49"/>
<path d="M34.0868 125.469L26.0716 150.214H20.2319C20.2319 150.214 20.308 149.841 20.4453 149.184C21.3503 144.768 24.86 127.692 24.86 127.12C24.8688 126.919 24.9419 126.727 25.0685 126.571C25.2833 126.299 25.545 126.068 25.8411 125.889C25.8411 125.889 22.5448 117.227 22.2137 113.596C22.1007 112.204 22.0802 110.806 22.1523 109.411C22.2406 107.311 22.4614 105.68 22.4614 105.68L31.1216 106.661V110.949L34.0868 125.469Z" fill="#59496B"/>
<path d="M34.0868 125.469L29.1105 140.839L26.0716 150.214H20.2319C20.2319 150.214 20.281 149.981 20.3668 149.559C20.3914 149.444 20.4183 149.314 20.4453 149.184C23.6141 147.263 25.9686 136.499 26.9644 133.356C28.0338 129.998 27.6193 128.47 25.8386 127.223C25.5606 127.031 25.2996 126.815 25.0587 126.578C25.2735 126.307 25.5352 126.076 25.8313 125.896C26.2158 125.976 26.5943 126.082 26.9644 126.213C29.417 127.042 30.0228 127.439 29.7383 124.314C29.4538 121.189 30.0228 111.298 27.1606 111.312C25.6498 111.312 23.6754 110.331 22.1499 109.409C22.1744 108.835 22.2088 108.297 22.2455 107.821C22.3412 106.538 22.4589 105.677 22.4589 105.677L30.7758 106.629L31.1192 106.666V110.954L34.0868 125.469Z" fill="#4D3A5E"/>
<path d="M31.1192 107.002V110.954C28.0583 110.954 24.5535 109.212 22.2456 107.821C22.3413 106.538 22.459 105.677 22.459 105.677L30.7759 106.629C30.8911 106.751 31.0089 106.874 31.1192 107.002Z" fill="#3C2F49"/>
<path d="M29.1105 140.838L26.0716 150.214H20.2319C20.2319 150.214 20.281 149.981 20.3668 149.559C22.0984 148.666 24.166 147.881 25.8386 146.397C27.1484 145.239 28.2398 143.014 29.1105 140.838Z" fill="#3C2F49"/>
<path d="M38.3768 106.338C38.3768 106.338 36.3951 107.986 31.4555 108.511C26.5159 109.036 21.2231 106.998 21.2231 106.998C21.2231 106.998 21.2428 106.507 21.282 105.661C21.4463 101.736 21.9393 90.3407 22.2116 86.5408C22.5427 81.919 25.839 80.9377 25.839 80.9377L32.439 81.0727C32.439 81.0727 34.823 82.444 36.1891 83.3541C36.2602 83.4056 36.3289 83.4498 36.3951 83.4939V103.261C37.1824 104.029 37.9109 104.677 38.3327 105.042C38.3572 105.666 38.3695 106.095 38.3744 106.269C38.3769 106.308 38.3768 106.338 38.3768 106.338Z" fill="#D66161"/>
<path d="M38.3764 106.337C38.2979 106.397 38.216 106.453 38.1311 106.504C37.4738 106.94 35.4136 108.088 31.4453 108.51C26.9251 109.001 22.1253 107.326 21.3257 107.039L21.2129 106.994C21.2129 106.994 21.2325 106.504 21.2718 105.657C24.4602 105.657 28.2887 106.028 25.196 105.103C21.7623 104.073 22.1056 102.699 22.8709 101.97C23.6361 101.242 26.2261 103.042 26.7951 101.379C27.3641 99.7159 25.1862 97.8883 23.4693 93.0776C21.7525 88.267 24.2223 87.8328 24.2223 87.8328L30.7683 92.7391C30.7683 92.7391 29.6524 94.1128 29.4415 94.9347C29.2698 95.6142 32.3307 100.464 34.2756 102.814C34.5864 103.213 34.9365 103.579 35.3204 103.908C35.448 104.01 35.6074 104.132 35.7987 104.276C36.429 104.767 37.3708 105.478 38.347 106.256C38.3764 106.307 38.3764 106.337 38.3764 106.337Z" fill="#B85353"/>
<path d="M38.1409 106.504C37.4836 106.94 35.4234 108.088 31.455 108.51C26.9348 109.001 22.135 107.326 21.3354 107.039C21.5169 106.639 22.0712 106.457 23.1994 106.68C27.7172 107.571 33.113 106.133 29.7995 105.675C26.486 105.216 25.5564 104.416 27.1604 104.323C28.7645 104.23 32.4262 105.795 29.1397 102.306C27.1889 100.257 26.0204 97.5868 25.8385 94.7629C25.8385 94.7629 27.9625 95.1407 28.48 96.436C28.838 97.3289 31.7272 100.3 34.3025 102.814C34.8323 103.329 35.3473 103.822 35.8256 104.286C36.3922 104.826 36.9023 105.304 37.3217 105.689C37.6085 105.947 37.8819 106.218 38.1409 106.504Z" fill="#9E4747"/>
<path d="M32.1097 82.6051L32.4384 84.3223C32.4384 84.3223 32.3673 84.4597 30.8515 83.9544C29.3358 83.449 29.4683 82.5953 29.4683 82.5953L31.1189 80.9174L32.1097 82.6051Z" fill="#B85353"/>
<path d="M36.3944 83.4833V90.4822C35.8036 89.2824 35.1427 88.1184 34.4151 86.9963C33.3139 85.3747 33.1128 82.7744 33.9761 84.3321C34.8394 85.8899 35.5188 87.2391 35.9922 85.4949C36.1718 84.7928 36.238 84.0665 36.1884 83.3435C36.2595 83.3901 36.3282 83.4392 36.3944 83.4833Z" fill="#B85353"/>
<path d="M30.7784 82.5806C30.5148 82.5153 30.2654 82.4023 30.0426 82.247C28.4729 81.2657 26.8149 80.1176 26.8149 80.1176V78.8125V77.299L31.4308 77.6301V81.8496C31.4308 81.8496 31.5632 82.7572 30.7784 82.5806Z" fill="#FCD3C8"/>
<path d="M30.7788 82.5806C29.8591 81.3884 30.357 80.022 28.65 79.681C27.9863 79.5262 27.3639 79.23 26.8252 78.8125V77.6154V77.299L31.441 77.6301V81.8496C31.441 81.8496 31.5637 82.7572 30.7788 82.5806Z" fill="#EFB6AB"/>
<path d="M31.4489 77.6301V79.6908C31.0639 79.7304 30.6751 79.7105 30.2961 79.6319C28.9153 79.3743 27.5982 78.3268 26.833 77.6154V77.299L31.4489 77.6301Z" fill="#E18C86"/>
<path d="M31.1194 82.6052L30.624 83.4025L29.7999 84.7272L25.8389 80.9297L26.7316 80.1937L26.8224 80.1177L31.1194 82.6052Z" fill="#59496B"/>
<path d="M30.624 83.4024L29.7999 84.7246L25.8389 80.937L26.7316 80.201C27.088 80.9789 27.7072 81.606 28.4803 81.9722C29.6257 82.453 30.2487 82.924 30.624 83.4024Z" fill="#4D3A5E"/>
<path d="M32.4362 81.0621V84.3347L31.2908 82.8333L31.1191 82.6052L31.4551 80.2698L32.4362 81.0621Z" fill="#59496B"/>
<path d="M32.4388 81.673V84.3445L31.291 82.8431C31.4724 82.8153 31.6424 82.7371 31.7815 82.6174C32.082 82.3679 32.3092 82.0415 32.4388 81.673Z" fill="#4D3A5E"/>
<path d="M29.1105 76.0895C29.1105 76.0895 28.8996 76.1018 28.5685 76.1042C27.8327 76.1042 26.4641 76.0625 25.4316 75.7338C24.9693 75.6188 24.5549 75.3614 24.2469 74.9979C23.8555 74.3853 23.5803 73.7059 23.4351 72.9936C23.3267 72.5087 23.2513 72.0169 23.2095 71.5217C23.2095 71.4138 23.2095 71.3549 23.2095 71.3549L26.832 69.964L27.1067 70.6999L27.3986 71.4776L29.1105 76.0895Z" fill="#59496B"/>
<path d="M28.5709 76.1042C27.8351 76.1042 26.4665 76.0625 25.4339 75.7337C25.3271 75.6001 25.25 75.4452 25.2077 75.2794C25.1654 75.1135 25.1589 74.9406 25.1887 74.7721C25.5051 73.3002 26.9325 74.5268 26.1697 73.3419C25.5271 72.3606 24.5927 72.8758 23.4498 72.9985C23.3413 72.5135 23.2659 72.0217 23.2241 71.5266C24.0408 71.0963 24.9326 70.8273 25.8509 70.7342C26.2673 70.6702 26.6903 70.6612 27.1091 70.7072L27.401 71.4849C27.2759 71.6762 27.1557 71.8308 27.2464 71.8553C27.2342 71.8602 28.6052 74.7402 28.5709 76.1042Z" fill="#4D3A5E"/>
<path d="M33.0959 77.8092C31.1191 79.2811 26.8319 77.2989 26.8319 77.2989C25.906 77.008 25.0962 76.4308 24.5191 75.6504C23.538 74.3306 25.5001 73.342 26.1722 74.6692C26.8442 75.9963 27.4917 74.338 26.8319 73.0206C26.7632 72.8784 26.7019 72.7557 26.6455 72.6453L26.1673 71.6935L33.091 70.3712C33.091 70.3712 33.1744 70.6165 33.2922 71.036C33.7434 72.6306 34.6705 76.6415 33.0959 77.8092Z" fill="#FCD3C8"/>
<path d="M33.2973 71.036C32.9635 71.155 32.6206 71.2469 32.2721 71.3108C30.283 71.6959 27.9285 72.292 26.6457 72.6379C26.5525 72.449 26.479 72.3019 26.4152 72.1816L26.1699 71.691L32.8779 70.408L33.0937 70.3688C33.0937 70.3688 33.1795 70.6337 33.2973 71.036Z" fill="#EFB6AB"/>
<path d="M32.8803 70.4104C31.4539 70.952 29.9812 71.3626 28.4803 71.637C27.7726 71.7417 27.0796 71.9285 26.4152 72.1938L26.1699 71.7032L32.8803 70.4104Z" fill="#E18C86"/>
<path d="M29.4683 73.6732C29.6498 73.6732 29.797 73.3777 29.797 73.0133C29.797 72.6488 29.6498 72.3534 29.4683 72.3534C29.2868 72.3534 29.1396 72.6488 29.1396 73.0133C29.1396 73.3777 29.2868 73.6732 29.4683 73.6732Z" fill="#59496B"/>
<path d="M32.4385 73.342C32.62 73.342 32.7672 73.0466 32.7672 72.6821C32.7672 72.3177 32.62 72.0222 32.4385 72.0222C32.257 72.0222 32.1099 72.3177 32.1099 72.6821C32.1099 73.0466 32.257 73.342 32.4385 73.342Z" fill="#59496B"/>
<path d="M28.1493 71.8603C28.1171 71.8599 28.0857 71.8501 28.059 71.832C28.0323 71.8139 28.0115 71.7884 27.9992 71.7586C27.9869 71.7287 27.9837 71.696 27.9899 71.6643C27.9961 71.6327 28.0114 71.6036 28.034 71.5806C28.301 71.2768 28.6655 71.0756 29.0648 71.0116C29.4641 70.9475 29.8732 71.0247 30.2218 71.2298C30.2582 71.2542 30.2835 71.2921 30.292 71.3351C30.3005 71.3781 30.2915 71.4227 30.2672 71.4592C30.2428 71.4956 30.2049 71.5208 30.1619 71.5294C30.1189 71.5379 30.0743 71.5289 30.0378 71.5045C29.9961 71.4776 29.1402 70.9379 28.267 71.8136C28.2354 71.8441 28.1932 71.8608 28.1493 71.8603Z" fill="#59496B"/>
<path d="M32.7672 71.3108C32.739 71.3112 32.7113 71.3042 32.6867 71.2904C32.6621 71.2766 32.6417 71.2566 32.6274 71.2323C32.3821 70.8349 31.5409 71.2863 31.5335 71.2912C31.4951 71.3123 31.4499 71.3174 31.4078 71.3052C31.3657 71.293 31.3302 71.2646 31.3091 71.2262C31.2879 71.1878 31.2829 71.1426 31.2951 71.1005C31.3073 71.0584 31.3357 71.0229 31.3741 71.0017C31.4207 70.9772 32.5023 70.386 32.9094 71.0606C32.9206 71.0791 32.9279 71.0996 32.9311 71.121C32.9343 71.1424 32.9333 71.1642 32.928 71.1851C32.9228 71.2061 32.9135 71.2258 32.9006 71.2432C32.8877 71.2605 32.8716 71.2752 32.853 71.2863C32.8274 71.3026 32.7976 71.3111 32.7672 71.3108Z" fill="#59496B"/>
<path d="M32.1099 75.2432H31.4551V73.3445L31.9603 74.8041L32.1099 75.2432Z" fill="#EFB6AB"/>
<path d="M32.1124 75.2432H31.4551C31.5051 75.1393 31.5757 75.0466 31.6625 74.9707C31.7493 74.8948 31.8506 74.8373 31.9603 74.8016L32.1124 75.2432Z" fill="#E18C86"/>
<path d="M31.1562 76.9505C30.7275 76.9316 30.3203 76.7572 30.0108 76.4599C29.9804 76.4288 29.9634 76.3869 29.9634 76.3434C29.9634 76.2998 29.9804 76.258 30.0108 76.2269C30.0261 76.2115 30.0442 76.1993 30.0642 76.191C30.0842 76.1827 30.1057 76.1784 30.1273 76.1784C30.149 76.1784 30.1704 76.1827 30.1904 76.191C30.2104 76.1993 30.2285 76.2115 30.2438 76.2269C30.4916 76.4617 30.8133 76.603 31.1537 76.6267C31.3123 76.6204 31.4678 76.5816 31.6108 76.5128C31.7538 76.4441 31.8812 76.3467 31.9852 76.2269C32.0003 76.2108 32.0185 76.1978 32.0386 76.1887C32.0588 76.1796 32.0805 76.1746 32.1026 76.1739C32.1247 76.1732 32.1467 76.1769 32.1674 76.1847C32.1881 76.1926 32.207 76.2044 32.2231 76.2195C32.2392 76.2346 32.2522 76.2528 32.2613 76.273C32.2703 76.2931 32.2754 76.3149 32.2761 76.337C32.2767 76.3591 32.2731 76.3811 32.2652 76.4017C32.2574 76.4224 32.2456 76.4414 32.2305 76.4575C32.0952 76.6095 31.9299 76.7318 31.745 76.8166C31.5601 76.9015 31.3596 76.9471 31.1562 76.9505Z" fill="#F27370"/>
<path d="M26.1283 75.9497C25.8831 76.2416 25.3042 76.1729 24.8701 74.8703C25.0947 74.804 25.3318 74.7922 25.5618 74.836C25.6823 74.8614 25.7966 74.9105 25.8981 74.9804C25.9995 75.0503 26.0861 75.1396 26.1528 75.2432C26.2243 75.3483 26.2604 75.4734 26.256 75.6004C26.2516 75.7275 26.2069 75.8498 26.1283 75.9497Z" fill="#EFB6AB"/>
<path d="M26.1283 75.9497C26.1283 75.5645 26.1283 75.2554 25.8389 75.3683C25.4342 75.5228 24.875 74.8776 25.5617 74.8359C25.6823 74.8614 25.7966 74.9105 25.898 74.9804C25.9995 75.0503 26.0861 75.1396 26.1528 75.2432C26.2242 75.3483 26.2604 75.4734 26.256 75.6004C26.2515 75.7274 26.2068 75.8498 26.1283 75.9497Z" fill="#E18C86"/>
<path d="M39.0362 68.0604C37.3831 69.7113 33.0959 70.3712 33.0959 70.3712L28.0828 71.328L26.1673 71.6935C26.1673 71.6935 22.866 72.6747 22.5374 72.3534C22.3755 72.1915 22.2921 71.9535 22.4049 71.4482C22.5177 70.9428 22.8464 70.0818 23.5258 68.7203C23.813 68.1449 24.1409 67.5907 24.5068 67.0619C25.8533 65.119 27.7222 63.6569 29.7972 64.4321C31.8721 65.2073 31.9064 67.1649 32.652 67.8445C32.7674 67.9514 32.908 68.0273 33.0607 68.0651C33.2135 68.1028 33.3732 68.1012 33.5252 68.0604C35.2714 67.7316 40.6844 66.4118 39.0362 68.0604Z" fill="#D66161"/>
<path d="M28.0828 71.3279L26.1673 71.6935C26.1673 71.6935 22.866 72.6747 22.5374 72.3534C22.3755 72.1915 22.2921 71.9535 22.4049 71.4481C22.5177 70.9428 22.8464 70.0817 23.5258 68.7202C23.813 68.1449 24.1408 67.5907 24.5068 67.0619C24.9973 67.4495 25.4609 68.1707 25.8877 69.282C26.0576 69.777 26.3467 70.2226 26.7296 70.5794C27.1124 70.9362 27.5771 71.1933 28.0828 71.3279Z" fill="#B85353"/>
<path d="M39.0362 68.0603C37.3831 69.7113 33.0959 70.3712 33.0959 70.3712L26.1673 71.6935C26.1673 71.6935 22.866 72.6747 22.5374 72.3534C22.3755 72.1915 22.2921 71.9535 22.4049 71.4482C24.4602 71.3378 28.6395 71.0238 30.5648 70.2535C30.7627 70.1788 30.9526 70.0843 31.1314 69.9713C32.6594 68.9754 32.5196 68.2541 32.6471 67.8445C32.7625 67.9514 32.9031 68.0273 33.0558 68.0651C33.2085 68.1028 33.3683 68.1012 33.5202 68.0603C34.7122 67.8347 37.621 67.1478 38.813 67.2631C39.3722 67.3146 39.5586 67.5378 39.0362 68.0603Z" fill="#B85353"/>
<path d="M39.0362 68.0603C37.3831 69.7113 33.0959 70.3712 33.0959 70.3712L26.1673 71.6934C26.1673 71.6934 22.866 72.6747 22.5374 72.3533C22.3755 72.1914 22.2921 71.9535 22.4049 71.4481C24.4602 71.3377 28.6395 71.0237 30.5648 70.2534C31.3559 70.2035 32.1437 70.1094 32.9243 69.9713C35.0915 69.6118 37.1235 68.6803 38.8106 67.2728C39.3722 67.3145 39.5586 67.5378 39.0362 68.0603Z" fill="#9E4747"/>
<path d="M44.8561 105.677C44.8561 105.677 44.6427 106.337 42.9921 107.326C41.8653 107.982 40.5585 108.262 39.2616 108.125C39.0717 108.102 38.8855 108.055 38.7073 107.985C38.0476 107.696 31.1189 103.364 28.811 100.724C27.4801 99.1998 26.484 97.413 25.8874 95.4792C25.8531 95.3615 25.8384 95.3001 25.8384 95.3001L29.1396 92.1454L29.2941 92.6507L29.9563 94.8046L30.4591 96.4384C30.4591 96.4384 32.1073 97.4197 33.4268 99.7354C34.0596 100.834 35.2859 102.162 36.3945 103.248C37.6208 104.438 38.7073 105.346 38.7073 105.346C38.7073 105.346 40.3555 105.012 41.3439 104.352C42.1067 103.844 43.4532 103.729 43.5807 104.154C43.6224 104.281 43.5488 104.458 43.3232 104.683C42.6217 105.388 42.2538 105.591 42.0969 105.652C42.0681 105.665 42.0375 105.674 42.0061 105.677H44.8561Z" fill="#FCD3C8"/>
<path d="M43.3357 104.684C42.6342 105.388 42.2663 105.591 42.1094 105.653C42.3608 105.387 42.5738 105.087 42.7422 104.762C42.8324 104.606 42.9548 104.472 43.1011 104.367C43.2474 104.262 43.4143 104.189 43.5908 104.154C43.6227 104.281 43.5491 104.458 43.3357 104.684Z" fill="#EFB6AB"/>
<path d="M44.3168 105.677C43.7921 105.888 43.2393 106.021 42.676 106.072C42.2382 106.125 41.7972 106.146 41.3564 106.136C41.6404 106.067 41.8933 105.906 42.0751 105.677H44.3168Z" fill="#EFB6AB"/>
<path d="M43.4093 105.677C43.1837 105.809 42.9188 105.952 42.6735 106.072C42.2358 106.125 41.7948 106.146 41.354 106.136C41.6379 106.067 41.8908 105.906 42.0726 105.677H43.4093Z" fill="#E18C86"/>
<path d="M39.2614 108.125C39.0715 108.102 38.8853 108.055 38.7071 107.986C38.0474 107.696 31.1187 103.364 28.8107 100.724C28.2528 100.085 27.7521 99.3979 27.3146 98.6709C27.3121 98.6621 27.3079 98.6537 27.3024 98.6464C26.6999 97.6542 26.2244 96.5901 25.8872 95.4793C26.5985 94.5896 27.4146 93.789 28.3178 93.0949C28.5954 92.8641 28.93 92.7124 29.2866 92.6558L29.3479 92.8545L29.7648 94.2062L29.9488 94.8096C29.3013 95.4769 28.3962 96.3944 28.2319 96.4434C27.9621 96.5219 28.6489 97.5523 28.9922 97.5523C29.3356 97.5523 29.7967 96.9684 29.728 98.1189C29.6594 99.2695 33.7086 104.2 35.9822 105.341C37.7727 106.229 38.5035 107.618 39.2614 108.125Z" fill="#EFB6AB"/>
<path d="M29.7722 94.2012C29.2983 94.8728 28.6797 95.4294 27.9621 95.8301C26.7554 96.4311 26.6328 97.4246 27.3024 98.6463C26.6999 97.6541 26.2244 96.5901 25.8872 95.4793C26.5985 94.5895 27.4146 93.7889 28.3178 93.0948C28.6486 92.9673 28.9951 92.8847 29.3479 92.8495L29.7722 94.2012Z" fill="#E18C86"/>
<path d="M30.7952 92.7366L25.8384 96.4384C25.8384 96.4384 22.2625 90.5999 23.3416 87.244C23.4667 86.8378 23.6945 86.4708 24.003 86.1786C24.3116 85.8863 24.6903 85.6787 25.1026 85.5759H25.1492C25.6807 85.4484 26.2388 85.4895 26.7459 85.6935C27.253 85.8974 27.6842 86.2541 27.9796 86.7141C28.1717 87.0096 28.3305 87.3256 28.4529 87.6562C28.6221 88.1124 28.8478 88.6374 29.0955 89.2016C29.2794 89.6162 29.4757 90.0431 29.6645 90.4454C30.003 91.1568 30.3218 91.802 30.5303 92.2288C30.5548 92.2803 30.5793 92.3245 30.6039 92.3687L30.7952 92.7366Z" fill="#59496B"/>
<path d="M30.7952 92.7367L27.234 95.3959L25.8384 96.4385C25.8384 96.4385 22.2625 90.6 23.3416 87.2441C23.4297 86.9672 23.5632 86.7069 23.7365 86.4738C24.0758 86.0271 24.558 85.7102 25.1026 85.5759C25.0729 87.0699 25.4366 88.5453 26.1572 89.8542C27.7613 92.7244 28.8551 91.6524 30.6039 92.3589L30.7952 92.7367Z" fill="#4D3A5E"/>
<path d="M27.234 95.3959L25.8384 96.4385C25.8384 96.4385 22.2625 90.6 23.3416 87.244C23.4297 86.9672 23.5632 86.7069 23.7365 86.4738C23.9057 88.662 24.3987 92.3 25.8384 93.7277C26.3597 94.2343 26.8274 94.7933 27.234 95.3959Z" fill="#3C2F49"/>
<path d="M92.7095 149.451C91.7579 150.479 89.3764 153.008 87.635 154.554C86.9788 153.885 86.2638 153.277 85.4988 152.736C85.2535 152.562 85.0083 152.397 84.7385 152.245C84.398 152.038 84.0208 151.898 83.6274 151.833L83.8261 151.664C85.1186 150.555 86.3719 148.926 86.9753 148.095C86.99 148.077 87.0023 148.058 87.0145 148.041C87.2279 147.741 87.3505 147.55 87.3505 147.55L91.4832 146.255L92.7095 149.451Z" fill="#59496B"/>
<path d="M92.7093 149.451C92.4419 149.736 92.0667 150.143 91.6203 150.609C90.4798 151.816 88.8881 153.44 87.6348 154.554C86.9785 153.885 86.2635 153.277 85.4985 152.736C86.0439 152.672 86.5952 152.677 87.1393 152.751C88.9543 152.976 90.1365 149.77 89.4497 148.74C89.1235 148.249 88.0444 148.077 87.0143 148.033L87.1958 147.788C87.2963 147.646 87.3503 147.565 87.3503 147.565L91.483 146.269L92.7093 149.451Z" fill="#4D3A5E"/>
<path d="M92.7093 149.451C92.442 149.736 92.0667 150.143 91.6204 150.609C91.4064 149.857 91.0334 149.16 90.5265 148.565C89.7907 147.714 88.3485 147.655 87.1958 147.776C87.2964 147.633 87.3503 147.552 87.3503 147.552L91.483 146.257L92.7093 149.451Z" fill="#3C2F49"/>
<path d="M87.7771 149.451C87.2138 150.229 86.6053 150.974 85.9548 151.681C85.5133 152.172 85.1135 152.591 84.8609 152.856L84.5789 153.146C83.7548 152.854 83.561 152.52 83.6714 152.076C83.7057 151.93 83.7576 151.79 83.8259 151.657C84.1691 151.362 84.4966 151.049 84.807 150.719C85.5868 149.89 86.3119 149.011 86.9775 148.087C87.7477 148.153 88.3118 148.671 87.7771 149.451Z" fill="#E6E6FF"/>
<path d="M85.9548 151.681C85.5133 152.172 85.1135 152.591 84.8609 152.856C84.5151 152.625 84.1031 152.365 83.6714 152.076C83.7057 151.93 83.7576 151.79 83.8259 151.656C84.1691 151.361 84.4965 151.049 84.807 150.719C84.984 150.784 85.1541 150.866 85.3147 150.965C85.5955 151.133 85.8187 151.383 85.9548 151.681Z" fill="#C7C7EF"/>
<path d="M93.1239 150.545C93.1239 150.545 92.0914 151.983 90.7915 152.753C90.1415 153.133 89.0477 154.154 88.1181 155.079C87.1886 156.004 86.4283 156.818 86.4283 156.818H79.8062C79.8062 156.818 79.8062 156.754 79.8062 156.646C79.8062 156.6 79.8062 156.543 79.8062 156.479C79.8062 156.416 79.8061 156.376 79.8184 156.32C79.8307 156.264 79.8307 156.148 79.8454 156.048C79.8454 155.996 79.8577 155.94 79.8699 155.878C79.9526 155.131 80.1988 154.411 80.591 153.769C80.9037 153.264 81.3994 152.9 81.9743 152.753C82.5778 152.562 83.1349 152.247 83.6102 151.828C84.0035 151.893 84.3808 152.033 84.7212 152.24C85.7774 152.891 86.7501 153.669 87.6178 154.556C89.3591 153.008 91.7358 150.484 92.6874 149.456L93.1239 150.545Z" fill="#E6E6FF"/>
<path d="M93.1239 150.545C93.1239 150.545 92.0914 151.983 90.7915 152.753C90.1415 153.133 89.0477 154.154 88.1181 155.079C87.9121 155.282 87.7183 155.481 87.5344 155.665C86.8942 156.32 86.4307 156.818 86.4307 156.818H79.8086C79.8086 156.818 79.8086 156.754 79.8086 156.646C79.8086 156.6 79.8086 156.543 79.8086 156.479C79.8086 156.416 79.8086 156.376 79.8209 156.32C79.8331 156.263 79.8331 156.148 79.8478 156.048C79.8478 156.023 79.8478 155.996 79.8478 155.972C79.8503 155.94 79.8553 155.909 79.8626 155.878C79.9453 155.131 80.1915 154.41 80.5836 153.769C80.8608 154.259 81.4004 154.725 82.428 154.995C84.9591 155.626 87.6104 154.568 87.6104 154.568C89.3518 153.02 91.7284 150.496 92.68 149.468L93.1239 150.545Z" fill="#C7C7EF"/>
<path d="M87.5393 155.662C86.8991 156.317 86.4356 156.815 86.4356 156.815H79.8135C79.8135 156.815 79.8135 156.752 79.8135 156.644C79.8135 156.597 79.8135 156.541 79.8135 156.477C79.8135 156.413 79.8135 156.374 79.8257 156.317C79.838 156.261 79.838 156.146 79.8527 156.045C79.8527 156.021 79.8527 155.994 79.8527 155.969C81.3138 156.191 82.7896 156.302 84.2675 156.3C85.39 156.311 86.503 156.094 87.5393 155.662Z" fill="#ADADE0"/>
<path d="M101.164 153.624C100.732 153.288 100.238 153.041 99.7095 152.899C99.1815 152.756 98.6302 152.72 98.0881 152.792C96.8977 153.012 95.7614 153.461 94.7427 154.115L94.9168 152.417L95.2087 149.559L95.4049 147.663H99.8515L101.164 153.624Z" fill="#59496B"/>
<path d="M101.164 153.624C100.733 153.302 100.249 153.059 99.7338 152.905C99.2002 152.747 98.6383 152.708 98.0881 152.792C96.8977 153.012 95.7614 153.461 94.7427 154.115L94.9168 152.417C96.4154 150.7 99.0078 151.755 98.039 150.403C97.3302 149.422 96.0377 149.525 95.2087 149.559L95.3019 148.669L95.4049 147.663H99.8515L101.164 153.624Z" fill="#4D3A5E"/>
<path d="M99.7459 152.905C100.281 151.32 100.048 151.014 99.5006 149.878C99.1082 149.063 96.8591 148.772 95.3091 148.669L95.4121 147.663H99.8587L101.171 153.624C100.742 153.303 100.259 153.059 99.7459 152.905Z" fill="#3C2F49"/>
<path d="M99.329 153.972C99.0715 154.259 98.5417 154.306 97.5877 154.166C97.5877 154.166 97.5558 153.97 97.519 153.651C97.4822 153.332 97.4184 152.809 97.3767 152.262C97.2982 151.242 97.2615 150.035 97.4209 149.225C97.752 147.577 98.8336 149.544 99.2824 151.696L99.2947 151.747C99.535 152.908 99.638 153.619 99.329 153.972Z" fill="#E6E6FF"/>
<path d="M99.3292 153.972C98.8387 153.877 98.1593 153.749 97.5192 153.651C97.4726 153.303 97.4186 152.81 97.377 152.262C97.8772 152.043 98.4016 151.884 98.9393 151.789C99.0569 151.768 99.1757 151.754 99.2949 151.747C99.5353 152.908 99.6383 153.619 99.3292 153.972Z" fill="#C7C7EF"/>
<path d="M99.562 156.816H96.5183C96.2591 156.815 96.0028 156.761 95.766 156.656C95.5291 156.551 95.317 156.397 95.1432 156.205C94.9694 156.012 94.8378 155.786 94.757 155.539C94.6762 155.293 94.6479 155.032 94.6739 154.775V154.76L94.7426 154.115C95.7613 153.461 96.8976 153.012 98.088 152.792C99.1039 152.652 100.135 152.904 100.972 153.496C101.036 153.535 101.097 153.578 101.156 153.624L101.362 154.561C101.422 154.831 101.421 155.111 101.359 155.381C101.296 155.651 101.174 155.903 101.002 156.119C100.829 156.336 100.61 156.51 100.361 156.631C100.112 156.751 99.8388 156.814 99.562 156.816Z" fill="#E6E6FF"/>
<path d="M99.5618 156.816H96.5181C96.167 156.817 95.8227 156.718 95.5256 156.531C95.2286 156.344 94.9909 156.076 94.8405 155.758C94.6908 155.454 94.6304 155.114 94.6664 154.777V154.762C95.0539 155.189 95.6793 155.535 96.6996 155.557C98.9388 155.604 100.19 155.54 100.972 153.499C101.036 153.538 101.097 153.58 101.156 153.626L101.32 154.384L101.362 154.564C101.422 154.834 101.42 155.114 101.358 155.383C101.295 155.652 101.173 155.904 101 156.12C100.828 156.336 100.609 156.511 100.36 156.631C100.111 156.751 99.8383 156.814 99.5618 156.816Z" fill="#C7C7EF"/>
<path d="M99.5621 156.815H96.5184C96.1673 156.817 95.823 156.718 95.526 156.531C95.2289 156.343 94.9912 156.075 94.8408 155.758C95.3103 156.054 95.8356 156.25 96.3841 156.335C96.9326 156.419 97.4925 156.39 98.0292 156.249C99.4003 155.893 100.568 155.052 101.318 154.394L101.36 154.573C101.418 154.842 101.415 155.121 101.352 155.389C101.289 155.657 101.166 155.907 100.994 156.122C100.822 156.337 100.604 156.511 100.356 156.63C100.109 156.75 99.8374 156.814 99.5621 156.815Z" fill="#ADADE0"/>
<path d="M95.6379 107.86L86.5362 126.46L91.488 144.54L92.1429 146.917L91.829 146.959L88.4836 147.405L86.5362 147.663L78.8447 127.944L82.8155 109.916L83.8971 105L94.3208 105.55L96.7072 105.677L95.6379 107.86Z" fill="#59496B"/>
<path d="M91.4903 144.537C91.6227 145.497 91.7355 146.294 91.8287 146.956L88.4833 147.417C88.2969 146.701 88.373 145.784 88.6109 144.515C89.1431 141.657 87.3845 139.133 85.7805 132.495C84.1765 125.857 81.2039 128.815 81.1401 127.878C81.0764 126.941 82.5798 127.449 83.9876 124.284C85.3955 121.12 87.387 114.737 85.7805 113.341C84.9662 112.634 83.7816 111.184 82.8153 109.926L83.3058 107.74L83.9043 105.022V105.01H83.968L86.715 105.155L94.3181 105.557C94.8364 106.278 95.2779 107.052 95.6352 107.865L91.3872 116.552L89.69 120.013L86.5874 126.352L86.5359 126.46L87.1393 128.668L91.4903 144.537Z" fill="#4D3A5E"/>
<path d="M87.1396 128.661C86.7691 128.285 86.3733 127.935 85.955 127.613C83.5024 125.732 83.2571 126.065 85.955 126.328C86.1651 126.351 86.3765 126.359 86.5878 126.352L86.5363 126.46L87.1396 128.661Z" fill="#3C2F49"/>
<path d="M91.3901 116.545L89.6904 120.013C89.3756 119.303 89.1602 118.553 89.0503 117.783C88.6529 115.002 87.3874 109.916 85.8054 109.418C85.0696 109.173 84.1082 108.437 83.2964 107.73L83.8948 105.012H83.9611C84.8766 104.865 85.8131 104.914 86.708 105.157C87.6324 105.396 88.4542 105.929 89.0503 106.675C90.6273 108.699 91.2454 112.933 91.3901 116.545Z" fill="#3C2F49"/>
<path d="M100.534 148.566H94.4511L89.3668 114.683L89.2049 113.608L88.7683 110.696L88.3906 108.182L98.6206 106.666L100.534 148.566Z" fill="#59496B"/>
<path d="M95.5768 148.566C97.1857 146.647 97.2715 144.037 96.7172 138.324C96.0746 131.685 96.6731 129.843 94.0193 129.541C91.3656 129.24 91.1816 126.752 94.0193 126.755C96.857 126.757 95.6479 125.037 95.2898 119.307C94.9317 113.576 93.2419 111.633 91.3803 112.953C90.6775 113.486 90.0098 114.064 89.3814 114.683L89.2195 113.606C90.2153 111.435 91.7752 110.946 90.0608 110.954C89.6229 110.945 89.1902 110.857 88.783 110.696L88.5941 109.433L88.4053 108.182L98.6352 106.666L98.6965 108.044L100.548 148.566H95.5768Z" fill="#4D3A5E"/>
<path d="M98.6819 108.044C96.8596 109.065 94.6816 110.054 92.9403 110.176C91.4494 110.27 89.9569 110.018 88.5795 109.44L88.3906 108.189L98.6205 106.673L98.6819 108.044Z" fill="#3C2F49"/>
<path d="M98.6205 106.666C98.6205 106.666 93.3351 108.709 88.3906 108.182C84.3241 107.748 82.259 106.555 81.663 106.143C81.5959 106.101 81.5313 106.055 81.4692 106.006C81.4692 106.006 81.4839 105.515 81.5109 104.693C82.0015 104.264 82.9457 103.432 83.8973 102.471V82.8455C85.2855 81.9428 87.4046 80.7236 87.4046 80.7236L88.5402 80.699L91.7286 80.6328L92.614 80.6156L94.0095 80.5886C94.4436 80.7428 94.8502 80.9656 95.2138 81.2485C96.1948 81.9845 97.4408 83.4564 97.637 86.199C97.7326 87.5703 97.8602 89.9278 97.9902 92.5649C98.1545 95.8914 98.3237 99.6595 98.4439 102.463C98.5494 104.944 98.6205 106.666 98.6205 106.666Z" fill="#D66161"/>
<path d="M95.209 81.2583C94.4413 82.8381 91.5104 85.1833 92.2315 84.0034C92.9525 82.8234 94.6032 81.7416 93.3204 81.9648C92.0377 82.188 90.0462 84.3959 90.0462 84.3959C89.8386 83.9921 89.4812 83.6856 89.0504 83.5422C88.3146 83.2846 88.7291 82.2739 88.7291 82.2739C88.7291 82.2739 90.1786 81.5061 91.7238 80.6425L92.6092 80.6254L94.0047 80.5984C94.4388 80.7526 94.8454 80.9754 95.209 81.2583Z" fill="#B85353"/>
<path d="M98.6206 106.666C98.6206 106.666 93.3352 108.709 88.3907 108.182C84.3242 107.747 82.2591 106.555 81.6631 106.143C81.8134 105.97 81.982 105.814 82.1659 105.677C84.2972 104.075 88.9229 101.261 90.0462 98.0256C90.3699 97.0983 90.6618 96.1318 90.912 95.229C91.5374 93.0016 91.9151 91.1568 91.9151 91.1568C91.9151 91.1568 94.6988 84.965 95.5082 85.5881C96.3176 86.2112 98.6623 89.9891 96.2881 94.2821C93.914 98.5751 93.9827 100.067 94.4634 102.588C94.8803 104.76 96.3372 104.958 98.4391 102.478C98.498 103.776 98.5445 104.87 98.5789 105.611C98.6083 106.28 98.6206 106.666 98.6206 106.666Z" fill="#B85353"/>
<path d="M98.6206 106.666C98.6206 106.666 93.3352 108.709 88.3907 108.182C84.3242 107.748 82.2591 106.555 81.6631 106.143C81.8134 105.97 81.982 105.814 82.1659 105.677C84.2972 104.075 88.9229 101.261 90.0462 98.0256C90.3699 97.0983 90.6618 96.1318 90.912 95.229C93.6099 90.362 96.2611 87.1189 96.2881 88.9073C96.2881 88.9073 96.5089 94.6992 93.3204 98.7027C90.132 102.706 89.357 104.836 86.8259 106.177C84.2948 107.519 92.3835 108.223 95.209 106.668C96.2489 106.091 97.3955 105.732 98.5789 105.613C98.6083 106.281 98.6206 106.666 98.6206 106.666Z" fill="#9E4747"/>
<path d="M82.936 92.825C82.936 92.825 85.5456 89.1109 85.781 85.9561C86.0165 82.8014 84.6651 88.4485 82.936 89.3906C81.2069 90.3326 82.936 92.825 82.936 92.825Z" fill="#B85353"/>
<path d="M94.0045 94.9714C93.4282 96.9765 92.4146 98.8289 91.0368 100.395C89.5898 102.044 86.3449 104.357 83.9487 105.927C82.5164 106.872 81.3882 107.546 81.1404 107.644C80.7039 107.833 79.6934 107.917 78.5848 107.669C77.9738 107.534 77.3879 107.304 76.8483 106.987C76.4166 106.735 76.01 106.443 75.6343 106.114C75.476 105.978 75.3299 105.828 75.1977 105.667C75.1103 105.57 75.0406 105.458 74.9917 105.336H77.8392C77.8392 105.336 77.719 105.336 77.4002 105.113C77.0837 104.883 76.789 104.626 76.5197 104.342C76.218 104.041 76.1935 103.827 76.3333 103.707C76.6497 103.415 77.8049 103.557 78.5014 104.014C79.4825 104.674 81.1404 104.995 81.1404 104.995C81.1404 104.995 82.4992 103.862 83.8972 102.454C84.8783 101.472 85.874 100.344 86.4161 99.3895C86.6484 98.9826 86.9065 98.591 87.1886 98.2169C87.7905 97.3851 88.5334 96.6653 89.3837 96.09L89.6462 95.2412L90.0288 93.995L90.7057 91.7994L94.0045 94.9714Z" fill="#FCD3C8"/>
<path d="M90.1439 96.9046C89.3029 97.1566 88.5049 97.5346 87.7771 98.0256C87.6088 98.1574 87.4022 98.2306 87.1885 98.2342C87.7903 97.4024 88.5333 96.6825 89.3836 96.1073L90.1439 96.9046Z" fill="#EFB6AB"/>
<path d="M94.0045 94.9713C93.8101 95.6875 93.5473 96.3833 93.2197 97.0492C92.6494 98.2597 91.9149 99.3857 91.0368 100.395C89.5898 102.044 86.345 104.357 83.9487 105.927C85.1211 104.561 88.4542 102.002 90.046 100.53C92.0081 98.7149 92.5403 96.8505 92.1969 96.507C91.9517 96.274 90.7671 94.8708 90.0288 94.0023L90.2177 93.394L90.7082 91.8068L94.0045 94.9713Z" fill="#EFB6AB"/>
<path d="M94.0046 94.9714C93.8102 95.6876 93.5474 96.3834 93.2198 97.0492C93.07 96.7493 92.9548 96.4332 92.8764 96.1072C92.6434 95.126 91.2013 94.0539 90.2178 93.4087L90.7083 91.8215L94.0046 94.9714Z" fill="#E18C86"/>
<path d="M78.5332 106.003V106.02C78.5332 106.16 78.3149 106.089 77.9961 105.989C77.6699 105.874 77.3286 105.808 76.9831 105.792C76.5736 105.764 76.1833 105.608 75.8672 105.346H77.8293H77.7974C77.7821 105.341 77.7666 105.337 77.7508 105.334C77.7435 105.332 77.7361 105.332 77.7287 105.334C77.6081 105.283 77.4944 105.217 77.3903 105.137C77.0738 104.908 76.7791 104.65 76.5098 104.367C76.2081 104.065 76.1836 103.852 76.3234 103.732C76.7133 104.168 77.4025 104.912 77.8293 105.137C78.3517 105.412 78.1898 105.213 78.3198 105.554C78.3468 105.618 78.3811 105.701 78.4375 105.8C78.4799 105.862 78.5122 105.931 78.5332 106.003Z" fill="#EFB6AB"/>
<path d="M78.5333 106.003V106.02C78.5333 106.16 78.315 106.089 77.9962 105.989C77.7636 105.749 77.5072 105.533 77.231 105.346H77.8392C78.0186 105.359 78.1898 105.427 78.3297 105.54C78.3963 105.597 78.4491 105.668 78.4844 105.748C78.5196 105.828 78.5363 105.916 78.5333 106.003Z" fill="#E18C86"/>
<path d="M94.0046 96.1072L89.0503 92.4078C89.0503 92.4078 90.7058 89.177 91.3926 87.3151C91.5127 86.984 91.6707 86.6678 91.8635 86.3731C92.1956 85.8611 92.6945 85.4798 93.2756 85.2938C93.8568 85.1078 94.4843 85.1285 95.0519 85.3526C95.3944 85.4869 95.702 85.6971 95.9518 85.9673C96.2016 86.2375 96.3869 86.5607 96.494 86.9128C97.583 90.2711 94.0046 96.1072 94.0046 96.1072Z" fill="#59496B"/>
<path d="M95.9888 91.8927C95.461 93.3566 94.7967 94.7677 94.0046 96.1072L90.9535 93.8306L89.0503 92.4078C89.0503 92.4078 91.5029 92.7365 92.8764 91.1567C93.8771 90.0062 94.6938 86.9299 95.0617 85.3525C95.4042 85.4869 95.7118 85.6971 95.9616 85.9673C96.2114 86.2375 96.3967 86.5607 96.5038 86.9127C96.9625 88.338 96.5799 90.2122 95.9888 91.8927Z" fill="#4D3A5E"/>
<path d="M95.9884 91.8927C95.4606 93.3567 94.7962 94.7677 94.0042 96.1072L90.9531 93.8307C92.1342 93.5965 93.2929 93.2609 94.4162 92.8274C94.9876 92.6034 95.5186 92.2877 95.9884 91.8927Z" fill="#3C2F49"/>
<path d="M92.9403 80.1176C92.9403 80.1176 92.2487 80.4537 91.3363 80.9615C90.8458 81.2387 90.2669 81.5674 89.7077 81.9182C88.138 82.9117 88.3097 81.5183 88.3097 81.5183V77.6301L88.555 77.6129H88.6408L92.9133 77.3063H92.9305V77.3234L92.9403 80.1176Z" fill="#FCD3C8"/>
<path d="M91.337 80.9615C91.4916 79.8723 91.337 78.9106 90.2824 79.443C89.6731 79.7376 88.9925 79.8525 88.3203 79.7742V77.689C88.3971 77.6498 88.4801 77.624 88.5656 77.6129H88.6514L92.9239 77.3063L92.9411 77.3234V77.4829L92.9533 80.125C92.9533 80.125 92.2494 80.4463 91.337 80.9615Z" fill="#EFB6AB"/>
<path d="M92.9279 77.3161V77.4755C91.9925 78.1638 90.9269 78.6546 89.7959 78.918C89.3126 79.0571 88.8124 79.1281 88.3096 79.129V77.689C88.3864 77.6498 88.4693 77.624 88.5548 77.6129H88.6407L92.9132 77.3063L92.9279 77.3161Z" fill="#E18C86"/>
<path d="M94.0051 80.6009L90.0466 84.396L89.1612 82.9707L88.7271 82.2765L91.9081 80.4341L93.0265 79.7889L94.0051 80.6009Z" fill="#59496B"/>
<path d="M94.0051 80.5985L90.0465 84.396L89.1611 82.9683C89.5119 82.7229 90.0931 82.3034 90.954 81.7417C91.7315 81.251 91.8811 80.8144 91.9081 80.4341L93.0265 79.7865L94.0051 80.5985Z" fill="#4D3A5E"/>
<path d="M88.7267 82.2764L88.0817 83.1252L87.4097 84.0034V80.7334L88.349 80.1053L88.4324 80.5714L88.7267 82.2764Z" fill="#59496B"/>
<path d="M87.9738 82.0556C88.0891 82.3988 88.1252 82.7636 88.0792 83.1228L87.4072 84.0034V80.7334L88.3466 80.1029L88.43 80.5715C88.1944 80.7282 88.0203 80.9617 87.9372 81.2322C87.8541 81.5026 87.867 81.7936 87.9738 82.0556Z" fill="#4D3A5E"/>
<path d="M95.4638 74.6642C95.4638 74.6642 94.1198 75.9816 92.5795 76.3348C91.0393 76.6881 92.8027 74.9905 90.2814 74.2938C87.7601 73.5971 85.8667 71.0336 84.7434 69.569C84.525 69.2706 84.382 68.9239 84.3264 68.5583C84.0125 66.797 85.0622 64.1721 87.3186 64.4787C90.0852 64.8492 90.1637 66.4118 91.6107 66.3358C93.0578 66.2597 94.4509 66.743 95.7802 69.7113C96.0608 70.3226 96.231 70.9787 96.283 71.6493C96.3774 72.7198 96.087 73.7888 95.4638 74.6642Z" fill="#59496B"/>
<path d="M96.0061 73.6265C95.882 73.9991 95.699 74.3494 95.4641 74.6642C95.4641 74.6642 94.2378 75.8711 92.7662 76.2808C92.7 76.3029 92.6313 76.3201 92.5675 76.3348C91.9936 76.4648 91.8759 76.3152 91.8318 76.0355C91.7876 75.7558 91.8048 75.2726 91.3976 74.8678C91.0786 74.5834 90.6918 74.3857 90.2743 74.2938C89.0922 73.965 88.0498 73.2316 87.1619 72.3901C86.5564 71.804 85.9918 71.1769 85.4721 70.5135C85.1998 70.17 84.9521 69.8511 84.7363 69.569C84.518 69.2706 84.3749 68.9239 84.3193 68.5583C84.6235 68.5926 84.9595 68.4504 85.32 67.999C86.6935 66.2818 89.0161 65.8132 90.9463 67.7659C92.8766 69.7186 93.063 73.2929 95.2017 72.0221C95.5263 71.8224 95.8902 71.6952 96.2686 71.6493C96.3212 72.3195 96.2318 72.9932 96.0061 73.6265Z" fill="#4D3A5E"/>
<path d="M90.3082 70.1676C90.3082 70.1676 88.7067 71.6395 87.1689 72.3901C86.5633 71.804 85.9987 71.1769 85.479 70.5135C86.0449 69.9209 86.7282 69.453 87.4853 69.1397C89.646 68.2222 90.3082 70.1676 90.3082 70.1676Z" fill="#3C2F49"/>
<path d="M95.2381 75.6504C94.7313 76.3249 94.0541 76.8524 93.276 77.1787C93.1615 77.2255 93.0444 77.2657 92.9253 77.2989C92.9253 77.2989 88.6356 79.2786 86.6564 77.8091C86.0162 77.3308 85.7906 76.379 85.7783 75.3118C85.7612 73.7639 86.1928 71.9755 86.4626 71.0286C86.5754 70.6214 86.6564 70.3712 86.6564 70.3712C86.6564 70.3712 87.8533 68.7202 90.2887 69.2427C92.7242 69.7652 92.9277 73.0132 92.9277 73.0132C92.6787 73.507 92.5994 74.0692 92.7021 74.6127C92.7904 75.0199 93.0038 75.253 93.2515 75.0911C93.401 74.9817 93.5173 74.8331 93.5875 74.6617C93.6648 74.5001 93.779 74.3589 93.9211 74.2496C94.7329 73.6167 96.0916 74.5146 95.2381 75.6504Z" fill="#FCD3C8"/>
<path d="M93.2513 75.091C92.8932 75.6258 92.4762 75.9423 92.2114 75.9693C91.5369 76.0429 92.54 74.5268 92.1966 73.8399C91.8533 73.153 92.1966 72.8096 92.2114 72.3533C92.2261 71.897 91.5099 70.0596 89.1063 70.0596C88.1351 70.0373 87.1914 70.3835 86.4648 71.0286C86.5262 70.8103 86.5777 70.6386 86.612 70.5257C86.6463 70.4129 86.6586 70.3712 86.6586 70.3712C86.6586 70.3712 87.8555 68.7202 90.291 69.2427C92.1795 69.6475 92.7264 71.6959 92.8736 72.5937C92.9177 72.8513 92.9275 73.0132 92.9275 73.0132C92.6785 73.507 92.5992 74.0692 92.7019 74.6127C92.7902 75.0199 93.0036 75.253 93.2513 75.091Z" fill="#EFB6AB"/>
<path d="M92.8788 72.5962C92.6335 72.395 92.3882 71.9535 92.1945 71.3132C91.8437 70.1602 90.8284 69.7186 89.4549 69.3752C88.545 69.1495 87.3383 69.9737 86.6172 70.5282C86.6466 70.4276 86.6638 70.3736 86.6638 70.3736C86.6638 70.3736 87.8607 68.7226 90.2961 69.2452C92.1798 69.6524 92.7267 71.6959 92.8788 72.5962Z" fill="#E18C86"/>
<path d="M93.8278 76.2096C93.7198 76.2685 93.6021 76.3249 93.4795 76.3838C93.4795 76.3838 93.5408 75.2529 94.4164 74.8874C94.4967 74.8412 94.587 74.8148 94.6795 74.8106C94.7721 74.8063 94.8644 74.8242 94.9486 74.8629C95.189 75.0493 94.9486 75.6233 93.8278 76.2096Z" fill="#EFB6AB"/>
<path d="M94.9486 74.8629C94.6126 74.9463 94.0657 75.1524 94.0043 75.5988C93.9777 75.8112 93.9181 76.0181 93.8278 76.2121C93.7198 76.271 93.6021 76.3274 93.4795 76.3863C93.4795 76.3863 93.5408 75.2554 94.4164 74.8899C94.4965 74.8433 94.5866 74.8165 94.6792 74.8118C94.7718 74.8071 94.8642 74.8246 94.9486 74.8629Z" fill="#E18C86"/>
<path d="M94.1711 73.3322C94.1956 73.4671 94.0754 73.7688 93.9258 74.2398C93.595 75.1869 93.3792 76.1703 93.2832 77.1689C93.1687 77.2158 93.0516 77.2559 92.9325 77.2891C92.9325 77.2891 88.6428 79.2688 86.6636 77.7994C86.4142 77.6085 86.2203 77.3544 86.1019 77.0634C85.8784 76.5029 85.7708 75.9029 85.7855 75.2996C86.1875 75.3822 86.6041 75.3594 86.9947 75.2334C88.4417 74.8237 88.8489 75.6381 90.6246 75.724C91.5762 75.7657 92.2678 75.1745 92.7068 74.6103C92.9323 74.3203 93.1218 74.004 93.271 73.6683L93.3151 73.6118C94.0583 72.6968 94.1196 73.0182 94.1711 73.3322Z" fill="#59496B"/>
<path d="M94.1712 73.3321C94.1957 73.467 94.0756 73.7688 93.926 74.2398C93.5951 75.1868 93.3794 76.1702 93.2834 77.1688C93.1689 77.2157 93.0518 77.2558 92.9326 77.289C92.2936 77.5728 91.6335 77.8065 90.9583 77.9882C89.5676 78.366 87.7698 78.6113 86.6637 77.7968C86.4143 77.6059 86.2204 77.3519 86.1021 77.0609C86.669 77.1422 87.2044 77.3715 87.6546 77.7257C89.2929 78.8738 90.8283 77.6055 92.2018 76.2317C92.6498 75.7708 92.9716 75.2022 93.1362 74.5807C93.2262 74.2599 93.2862 73.9314 93.3152 73.5995C94.0584 72.6967 94.1197 73.0181 94.1712 73.3321Z" fill="#4D3A5E"/>
<path d="M90.2886 73.6731C90.4701 73.6731 90.6173 73.3776 90.6173 73.0132C90.6173 72.6487 90.4701 72.3533 90.2886 72.3533C90.1071 72.3533 89.96 72.6487 89.96 73.0132C89.96 73.3776 90.1071 73.6731 90.2886 73.6731Z" fill="#59496B"/>
<path d="M87.3213 73.3419C87.5028 73.3419 87.65 73.0464 87.65 72.682C87.65 72.3175 87.5028 72.0221 87.3213 72.0221C87.1398 72.0221 86.9927 72.3175 86.9927 72.682C86.9927 73.0464 87.1398 73.3419 87.3213 73.3419Z" fill="#59496B"/>
<path d="M91.6082 71.8602C91.5869 71.8605 91.5657 71.8564 91.546 71.8484C91.5262 71.8404 91.5082 71.8286 91.493 71.8136C90.6149 70.9354 89.7565 71.48 89.7197 71.5045C89.7017 71.5165 89.6815 71.5247 89.6603 71.5288C89.639 71.5329 89.6172 71.5328 89.596 71.5285C89.5748 71.5242 89.5547 71.5157 89.5368 71.5036C89.5189 71.4915 89.5035 71.476 89.4916 71.4579C89.4797 71.4399 89.4715 71.4197 89.4674 71.3984C89.4632 71.3772 89.4634 71.3554 89.4677 71.3342C89.472 71.313 89.4805 71.2929 89.4926 71.275C89.5047 71.2571 89.5202 71.2417 89.5382 71.2298C89.8868 71.0247 90.2959 70.9475 90.6952 71.0116C91.0945 71.0756 91.459 71.2768 91.726 71.5806C91.7487 71.6037 91.7641 71.633 91.7702 71.6649C91.7764 71.6968 91.7729 71.7298 91.7603 71.7597C91.7477 71.7896 91.7266 71.8151 91.6995 71.833C91.6724 71.8509 91.6407 71.8604 91.6082 71.8602Z" fill="#59496B"/>
<path d="M86.9924 71.3108C86.9627 71.3114 86.9336 71.3028 86.909 71.2863C86.8905 71.2752 86.8743 71.2605 86.8614 71.2432C86.8486 71.2258 86.8392 71.2061 86.834 71.1851C86.8288 71.1642 86.8277 71.1424 86.8309 71.121C86.8341 71.0996 86.8415 71.0791 86.8526 71.0606C87.2597 70.386 88.3413 70.9772 88.3879 71.0017C88.4214 71.0255 88.4449 71.0609 88.454 71.101C88.463 71.1411 88.4569 71.1832 88.4368 71.2191C88.4167 71.255 88.3841 71.2822 88.3452 71.2955C88.3063 71.3088 88.2639 71.3073 88.2261 71.2912C88.2261 71.2912 87.375 70.8349 87.1346 71.2323C87.1198 71.2566 87.0988 71.2766 87.0739 71.2904C87.0489 71.3041 87.0209 71.3112 86.9924 71.3108Z" fill="#59496B"/>
<path d="M88.3043 73.3444V75.2431H87.6494L87.7475 74.9585L88.3043 73.3444Z" fill="#EFB6AB"/>
<path d="M88.3043 75.2431H87.6494L87.7475 74.9561C87.9452 75.0261 88.1325 75.1226 88.3043 75.2431Z" fill="#E18C86"/>
<path d="M88.6036 76.9505C88.4009 76.9463 88.2013 76.9006 88.0169 76.8162C87.8326 76.7318 87.6675 76.6106 87.5318 76.4599C87.5014 76.4287 87.4844 76.3869 87.4844 76.3434C87.4844 76.2998 87.5014 76.258 87.5318 76.2268C87.5472 76.2095 87.5661 76.1957 87.5873 76.1862C87.6084 76.1768 87.6313 76.1719 87.6544 76.1719C87.6776 76.1719 87.7005 76.1768 87.7216 76.1862C87.7428 76.1957 87.7617 76.2095 87.7771 76.2268C87.8815 76.3468 88.0094 76.4441 88.1528 76.5129C88.2962 76.5816 88.4521 76.6204 88.611 76.6267C88.9511 76.6045 89.2725 76.4629 89.5185 76.2268C89.549 76.1943 89.5913 76.1752 89.6359 76.1739C89.6805 76.1725 89.7238 76.1889 89.7564 76.2195C89.7889 76.25 89.8079 76.2923 89.8093 76.3369C89.8107 76.3815 89.7943 76.4249 89.7637 76.4574C89.451 76.7591 89.0379 76.9347 88.6036 76.9505Z" fill="#F27370"/>
<path d="M94.1715 73.3322C94.196 73.4671 94.0758 73.7688 93.9262 74.2398C93.5954 75.1869 93.3796 76.1703 93.2836 77.1689C93.1691 77.2157 93.052 77.2559 92.9329 77.2891C92.2938 77.5728 91.6337 77.8066 90.9585 77.9883C91.449 76.3078 92.8887 77.267 93.3253 75.6725C93.4774 75.1254 93.3572 74.7893 93.1364 74.5857C93.2265 74.2649 93.2864 73.9364 93.3155 73.6045C94.0586 72.6968 94.1199 73.0182 94.1715 73.3322Z" fill="#3C2F49"/>
<path d="M71.0307 76.6415V105.677H42.0087C42.0087 105.677 42.3349 105.677 43.3233 104.684C44.3117 103.69 42.3422 103.702 41.344 104.352C40.3458 105.002 38.7074 105.346 38.7074 105.346C38.7074 105.346 38.5652 105.231 38.3322 105.029C38.0992 104.828 37.7558 104.522 37.3634 104.161C37.0642 103.889 36.7355 103.58 36.3823 103.248V76.6415H71.0307Z" fill="#F4DA8B"/>
<path d="M83.8973 76.6415V102.471C82.9456 103.432 82.0112 104.264 81.5109 104.693C81.2779 104.899 81.1405 105.012 81.1405 105.012C81.1405 105.012 79.4899 104.684 78.5015 104.031C77.5131 103.378 75.5313 103.371 76.5198 104.36C77.5082 105.348 77.8393 105.353 77.8393 105.353H74.9918C75.0407 105.475 75.1104 105.587 75.1978 105.684H71.0283V76.6415H83.8973Z" fill="#FAC885"/>
<path d="M83.8973 94.5127V102.471C82.9456 103.432 82.0112 104.264 81.5109 104.693C81.2779 104.899 81.1405 105.012 81.1405 105.012C81.1405 105.012 79.4899 104.684 78.5015 104.031C77.5131 103.378 75.5313 103.371 76.5198 104.36C77.5082 105.348 77.8393 105.353 77.8393 105.353H74.9918C75.0407 105.475 75.1104 105.587 75.1978 105.684H71.0283V76.6415H72.9904C73.4123 80.6916 75.058 88.9416 81.4569 92.744C82.3267 93.2516 83.1441 93.8441 83.8973 94.5127Z" fill="#F7AF74"/>
<path d="M79.2787 76.6415H76.6396V80.2697H79.2787V76.6415Z" fill="#8383B3"/>
<path d="M53.877 76.6415H50.2495V80.2697H53.877V76.6415Z" fill="#AFAFDB"/>
<path d="M66.7436 80.2698H59.8174V82.2495H66.7436V80.2698Z" fill="#E3AA79"/>
<path d="M71.0307 102.839V105.677H42.0087C42.0087 105.677 42.3349 105.677 43.3233 104.684C44.3117 103.69 42.3422 103.702 41.344 104.352C40.3458 105.002 38.7074 105.346 38.7074 105.346C38.7074 105.346 38.5652 105.231 38.3322 105.029C38.0992 104.828 37.7558 104.522 37.3634 104.161C37.0642 103.889 36.7355 103.58 36.3823 103.248V80.937C41.6751 85.8777 52.1527 95.2144 58.716 98.2097C62.7177 100.014 66.8311 101.561 71.0307 102.839Z" fill="#FAC885"/>
<path d="M43.3355 104.684C44.3165 103.702 42.3544 103.702 41.3562 104.352C40.358 105.002 38.7196 105.346 38.7196 105.346C38.7196 105.346 38.5774 105.231 38.3444 105.029C38.1114 104.828 37.768 104.522 37.3756 104.161C37.0764 103.889 36.7477 103.58 36.3945 103.248V96.3354C39.9214 99.6816 46.8109 104.554 53.7101 104.922C55.7899 105.029 57.2615 105.304 58.2941 105.677H42.0086C42.0086 105.677 42.3348 105.677 43.3355 104.684Z" fill="#F0B07B"/>
<path d="M229.878 156.816H3.11247C2.69916 156.804 2.2877 156.875 1.90244 157.025C1.51718 157.176 1.16594 157.402 0.869477 157.69C0.573017 157.978 0.33736 158.323 0.176444 158.704C0.0155271 159.085 -0.0673828 159.494 -0.0673828 159.908C-0.0673828 160.321 0.0155271 160.731 0.176444 161.112C0.33736 161.493 0.573017 161.837 0.869477 162.126C1.16594 162.414 1.51718 162.64 1.90244 162.79C2.2877 162.94 2.69916 163.012 3.11247 163H229.878C230.291 163.012 230.703 162.94 231.088 162.79C231.473 162.64 231.824 162.414 232.121 162.126C232.417 161.837 232.653 161.493 232.814 161.112C232.975 160.731 233.058 160.321 233.058 159.908C233.058 159.494 232.975 159.085 232.814 158.704C232.653 158.323 232.417 157.978 232.121 157.69C231.824 157.402 231.473 157.176 231.088 157.025C230.703 156.875 230.291 156.804 229.878 156.816Z" fill="#589958"/>
</g>
<defs>
<linearGradient id="paint0_linear" x1="119.036" y1="61.4246" x2="145.467" y2="115.517" gradientUnits="userSpaceOnUse">
<stop stop-color="#E6E6FF"/>
<stop offset="1" stop-color="#CECEEF"/>
</linearGradient>
<linearGradient id="paint1_linear" x1="7207.6" y1="4705.89" x2="7530.78" y2="4705.89" gradientUnits="userSpaceOnUse">
<stop stop-color="#E6E6FF"/>
<stop offset="1" stop-color="#CECEEF"/>
</linearGradient>
<linearGradient id="paint2_linear" x1="3973.39" y1="4705.89" x2="4296.57" y2="4705.89" gradientUnits="userSpaceOnUse">
<stop stop-color="#E6E6FF"/>
<stop offset="1" stop-color="#CECEEF"/>
</linearGradient>
<linearGradient id="paint3_linear" x1="4748.16" y1="4705.89" x2="5071.34" y2="4705.89" gradientUnits="userSpaceOnUse">
<stop stop-color="#E6E6FF"/>
<stop offset="1" stop-color="#CECEEF"/>
</linearGradient>
<linearGradient id="paint4_linear" x1="132.724" y1="124.277" x2="132.724" y2="129.232" gradientUnits="userSpaceOnUse">
<stop stop-color="#9C8FF2"/>
<stop offset="1" stop-color="#817ADD"/>
</linearGradient>
<clipPath id="clip0">
<rect width="233" height="163" fill="white"/>
</clipPath>
</defs>
</svg>
