<svg width="40" height="40" viewBox="0 0 40 40" fill="none" xmlns="http://www.w3.org/2000/svg">
<path d="M20 40C31.0457 40 40 31.0457 40 20C40 8.9543 31.0457 0 20 0C8.9543 0 0 8.9543 0 20C0 31.0457 8.9543 40 20 40Z" fill="#2D3892"/>
<path d="M28.5836 17.5628C24.9111 17.5628 21.2386 17.5628 17.5663 17.5628C18.502 16.6271 19.4378 15.6913 20.3735 14.7552C22.5321 12.5967 19.1694 9.2589 17.0054 11.4232C14.7244 13.7043 12.4436 15.9853 10.1625 18.2664C9.24702 19.1819 9.27168 20.7076 10.1805 21.6165C12.4616 23.8972 14.7423 26.1783 17.0234 28.459C19.182 30.6175 22.5198 27.2548 20.3555 25.0909C19.4254 24.1608 18.4954 23.2308 17.5653 22.3011C21.2268 22.3011 24.8882 22.3011 28.5494 22.3011C31.6084 22.3011 31.6355 17.5628 28.5836 17.5628Z" fill="white"/>
</svg>
