<svg width="18" height="21" viewBox="0 0 18 21" fill="none" xmlns="http://www.w3.org/2000/svg">
<path fill-rule="evenodd" clip-rule="evenodd" d="M17.0921 13.2967C16.4095 12.6223 15.7041 11.9248 15.7041 8.63261C15.7041 5.29674 13.2549 2.52249 10.0603 2.01271C10.2075 1.79885 10.2861 1.5453 10.2857 1.28571C10.2857 0.575638 9.71008 0 9.00001 0C8.28993 0 7.71429 0.575638 7.71429 1.28571C7.71393 1.54531 7.79253 1.79887 7.93966 2.01275C4.74514 2.52253 2.29593 5.29678 2.29593 8.63265C2.29593 11.9246 1.59076 12.6221 0.908044 13.2965C-1.02438 15.2052 0.390785 18 2.68872 18H6.42858C6.42858 19.4202 7.57986 20.5714 9.00001 20.5714C10.4202 20.5714 11.5714 19.4202 11.5714 18H15.3113C17.6091 18 19.0244 15.2043 17.0921 13.2967ZM9.00001 18.9643C8.46829 18.9643 8.03572 18.5317 8.03572 18H9.96429C9.96429 18.5317 9.53173 18.9643 9.00001 18.9643ZM2.68796 16.0714H15.3117C15.9824 16.0714 16.3237 15.2542 15.8474 14.778C14.7085 13.6379 13.7755 12.5561 13.7755 8.63265C13.7755 5.99942 11.6332 3.85714 9.00001 3.85714C6.36679 3.85714 4.2245 5.99942 4.2245 8.63265C4.2245 12.5391 3.30072 13.6295 2.15221 14.778C1.67807 15.2522 2.01448 16.0714 2.68796 16.0714Z" fill="#2D3892"/>
</svg>
