<svg width="20" height="20" viewBox="0 0 20 20" fill="none" xmlns="http://www.w3.org/2000/svg">
<path d="M1.6665 3.3275C1.66803 3.10865 1.75559 2.89918 1.91026 2.74435C2.06494 2.58951 2.27432 2.50175 2.49317 2.5H17.5065C17.9632 2.5 18.3332 2.87083 18.3332 3.3275V16.6725C18.3316 16.8914 18.2441 17.1008 18.0894 17.2557C17.9347 17.4105 17.7254 17.4983 17.5065 17.5H2.49317C2.27385 17.4998 2.06358 17.4125 1.90858 17.2573C1.75357 17.1022 1.6665 16.8918 1.6665 16.6725V3.3275ZM3.33317 4.16667V15.8333H16.6665V4.16667H3.33317ZM4.99984 5.83333H9.99984V10.8333H4.99984V5.83333ZM6.6665 7.5V9.16667H8.33317V7.5H6.6665ZM4.99984 12.5H14.9998V14.1667H4.99984V12.5ZM11.6665 5.83333H14.9998V7.5H11.6665V5.83333ZM11.6665 9.16667H14.9998V10.8333H11.6665V9.16667Z" fill="white"/>
</svg>
