<svg width="14" height="14" viewBox="0 0 14 14" fill="none" xmlns="http://www.w3.org/2000/svg">
<path fill-rule="evenodd" clip-rule="evenodd" d="M13.8418 12.6543L12.6543 13.8418L8.7207 9.9082V9.27734L8.49805 9.05469C7.55794 9.87109 6.44466 10.2793 5.1582 10.2793C3.72331 10.2793 2.50488 9.7845 1.50293 8.79492C0.500977 7.80534 0 6.5931 0 5.1582C0 3.72331 0.500977 2.50488 1.50293 1.50293C2.50488 0.500977 3.72331 0 5.1582 0C6.5931 0 7.80534 0.500977 8.79492 1.50293C9.7845 2.50488 10.2793 3.72331 10.2793 5.1582C10.2793 6.44466 9.87109 7.55794 9.05469 8.49805L9.27734 8.7207H9.9082L13.8418 12.6543ZM2.63477 7.68164C3.32747 8.37435 4.16862 8.7207 5.1582 8.7207C6.14779 8.7207 6.98893 8.37435 7.68164 7.68164C8.37435 6.98893 8.7207 6.14779 8.7207 5.1582C8.7207 4.16862 8.37435 3.32747 7.68164 2.63477C6.98893 1.94206 6.14779 1.5957 5.1582 1.5957C4.16862 1.5957 3.32747 1.94206 2.63477 2.63477C1.94206 3.32747 1.5957 4.16862 1.5957 5.1582C1.5957 6.14779 1.94206 6.98893 2.63477 7.68164Z" fill="#363565"/>
</svg>
