<svg width="21" height="18" viewBox="0 0 21 18" fill="none" xmlns="http://www.w3.org/2000/svg">
<path fill-rule="evenodd" clip-rule="evenodd" d="M0.308493 1.60158C-0.05116 0.771559 0.788362 -0.0714309 1.61986 0.284796L19.0476 7.75115C19.8563 8.0976 19.8558 9.24421 19.0468 9.58991L1.59284 17.0484C0.764767 17.4022 -0.0724709 16.567 0.279387 15.7381L2.67024 10.1056C2.82014 9.75243 3.15885 9.51618 3.54202 9.49749L20.4747 8.67153L3.51066 7.61765C3.13524 7.59433 2.80465 7.3623 2.6551 7.01716L0.308493 1.60158Z" fill="#2D3892"/>
<mask id="mask0" mask-type="alpha" maskUnits="userSpaceOnUse" x="0" y="0" width="21" height="18">
<path fill-rule="evenodd" clip-rule="evenodd" d="M0.308493 1.60158C-0.05116 0.771559 0.788362 -0.0714309 1.61986 0.284796L19.0476 7.75115C19.8563 8.0976 19.8558 9.24421 19.0468 9.58991L1.59284 17.0484C0.764767 17.4022 -0.0724709 16.567 0.279387 15.7381L2.67024 10.1056C2.82014 9.75243 3.15885 9.51618 3.54202 9.49749L20.4747 8.67153L3.51066 7.61765C3.13524 7.59433 2.80465 7.3623 2.6551 7.01716L0.308493 1.60158Z" fill="white"/>
</mask>
<g mask="url(#mask0)">
</g>
</svg>
