<svg width="20" height="20" viewBox="0 0 20 20" fill="none" xmlns="http://www.w3.org/2000/svg">
<path d="M1.6665 9.99993C1.6665 9.2791 1.75817 8.58076 1.92984 7.91326C2.39023 7.93746 2.84834 7.83389 3.25354 7.61399C3.65874 7.39408 3.99524 7.06642 4.22584 6.66722C4.45645 6.26801 4.57218 5.81282 4.56023 5.35195C4.54829 4.89108 4.40914 4.44249 4.15817 4.05576C5.16562 3.06457 6.40883 2.34617 7.77067 1.96826C7.97983 2.37949 8.2987 2.72482 8.69199 2.96602C9.08528 3.20722 9.53764 3.33489 9.999 3.33489C10.4604 3.33489 10.9127 3.20722 11.306 2.96602C11.6993 2.72482 12.0182 2.37949 12.2273 1.96826C13.5892 2.34617 14.8324 3.06457 15.8398 4.05576C15.5886 4.44256 15.4492 4.89132 15.4372 5.3524C15.4252 5.81348 15.5409 6.2689 15.7717 6.66827C16.0024 7.06764 16.3391 7.3954 16.7446 7.61527C17.15 7.83515 17.6084 7.93857 18.069 7.91409C18.2407 8.58076 18.3323 9.2791 18.3323 9.99993C18.3323 10.7208 18.2407 11.4191 18.069 12.0866C17.6085 12.0622 17.1503 12.1657 16.745 12.3855C16.3397 12.6054 16.003 12.933 15.7723 13.3322C15.5416 13.7315 15.4258 14.1867 15.4377 14.6477C15.4497 15.1086 15.5888 15.5573 15.8398 15.9441C14.8324 16.9353 13.5892 17.6537 12.2273 18.0316C12.0182 17.6204 11.6993 17.275 11.306 17.0338C10.9127 16.7926 10.4604 16.665 9.999 16.665C9.53764 16.665 9.08528 16.7926 8.69199 17.0338C8.2987 17.275 7.97983 17.6204 7.77067 18.0316C6.40883 17.6537 5.16562 16.9353 4.15817 15.9441C4.40943 15.5573 4.54878 15.1085 4.56081 14.6475C4.57284 14.1864 4.45709 13.731 4.22635 13.3316C3.99561 12.9322 3.65888 12.6045 3.25343 12.3846C2.84797 12.1647 2.38959 12.0613 1.929 12.0858C1.75817 11.4199 1.6665 10.7216 1.6665 9.99993ZM5.66984 12.4999C6.19484 13.4091 6.34484 14.4549 6.13984 15.4366C6.47984 15.6783 6.8415 15.8874 7.22067 16.0616C7.98456 15.3773 8.97427 14.9992 9.99984 14.9999C11.0498 14.9999 12.0315 15.3924 12.779 16.0616C13.1582 15.8874 13.5198 15.6783 13.8598 15.4366C13.6494 14.4332 13.8167 13.3875 14.3298 12.4999C14.842 11.6119 15.664 10.9442 16.6382 10.6249C16.6767 10.2092 16.6767 9.7907 16.6382 9.37493C15.6637 9.05581 14.8414 8.38811 14.329 7.49993C13.8159 6.61237 13.6485 5.56662 13.859 4.56326C13.5191 4.32153 13.1572 4.11228 12.7782 3.93826C12.0145 4.62237 11.0251 5.00044 9.99984 4.99993C8.97427 5.00064 7.98456 4.62256 7.22067 3.93826C6.84161 4.11228 6.47974 4.32153 6.13984 4.56326C6.35031 5.56662 6.18294 6.61237 5.66984 7.49993C5.15765 8.38795 4.33566 9.05563 3.3615 9.37493C3.32296 9.7907 3.32296 10.2092 3.3615 10.6249C4.33597 10.944 5.15828 11.6117 5.67067 12.4999H5.66984ZM9.99984 12.4999C9.3368 12.4999 8.70091 12.2365 8.23207 11.7677C7.76323 11.2989 7.49984 10.663 7.49984 9.99993C7.49984 9.33689 7.76323 8.701 8.23207 8.23216C8.70091 7.76332 9.3368 7.49993 9.99984 7.49993C10.6629 7.49993 11.2988 7.76332 11.7676 8.23216C12.2364 8.701 12.4998 9.33689 12.4998 9.99993C12.4998 10.663 12.2364 11.2989 11.7676 11.7677C11.2988 12.2365 10.6629 12.4999 9.99984 12.4999ZM9.99984 10.8333C10.2209 10.8333 10.4328 10.7455 10.5891 10.5892C10.7454 10.4329 10.8332 10.2209 10.8332 9.99993C10.8332 9.77891 10.7454 9.56695 10.5891 9.41067C10.4328 9.25439 10.2209 9.1666 9.99984 9.1666C9.77882 9.1666 9.56686 9.25439 9.41058 9.41067C9.2543 9.56695 9.1665 9.77891 9.1665 9.99993C9.1665 10.2209 9.2543 10.4329 9.41058 10.5892C9.56686 10.7455 9.77882 10.8333 9.99984 10.8333Z" fill="white"/>
</svg>
