<svg width="94" height="25" viewBox="0 0 94 25" fill="none" xmlns="http://www.w3.org/2000/svg">
<path d="M9.99803 6.77841H14.0378C14.0037 3.5142 11.4043 1.30682 7.34746 1.30682C3.35882 1.30682 0.486662 3.48011 0.51223 6.72727C0.503708 9.37784 2.36166 10.8693 5.37871 11.5597L7.20257 11.9858C9.12019 12.429 9.98098 12.9489 9.99803 13.929C9.98098 14.9943 8.98382 15.7358 7.2878 15.7358C5.42132 15.7358 4.19405 14.8665 4.1003 13.1875H0.0605257C0.111662 17.2699 2.94973 19.2216 7.33894 19.2216C11.6855 19.2216 14.2594 17.2528 14.2764 13.9375C14.2594 11.1506 12.3759 9.44602 8.93269 8.6875L7.43269 8.34659C5.84746 8.00568 4.84178 7.47727 4.87587 6.4375C4.88439 5.48295 5.70257 4.79261 7.33894 4.79261C8.98382 4.79261 9.88723 5.53409 9.99803 6.77841ZM17.1271 19H21.2947V5.90909H17.1271V19ZM19.2152 4.38352C20.3998 4.38352 21.3544 3.48864 21.3544 2.3892C21.3544 1.28977 20.3998 0.403408 19.2152 0.403408C18.039 0.403408 17.076 1.28977 17.076 2.3892C17.076 3.48864 18.039 4.38352 19.2152 4.38352ZM30.7697 24.1818C34.7157 24.1818 37.4089 22.3835 37.4089 19.0511V5.90909H33.2583V8.15057H33.139C32.6362 6.94886 31.4941 5.73864 29.4316 5.73864C26.6958 5.73864 24.2157 7.84375 24.2157 12.4375C24.2157 16.8864 26.5765 18.821 29.4487 18.821C31.3748 18.821 32.6617 17.9261 33.1561 16.7159H33.301V19.017C33.301 20.6875 32.2782 21.2926 30.8805 21.2926C29.5424 21.2926 28.7413 20.7812 28.5197 19.9716L24.5737 20.1932C24.8805 22.4858 27.0367 24.1818 30.7697 24.1818ZM30.8975 15.7869C29.3549 15.7869 28.4941 14.5341 28.4941 12.4375C28.4941 10.3494 29.3464 8.99432 30.8975 8.99432C32.4231 8.99432 33.3095 10.3153 33.3095 12.4375C33.3095 14.5426 32.4146 15.7869 30.8975 15.7869ZM44.9535 11.5341C44.962 10.0426 45.8313 9.15625 47.1523 9.15625C48.4734 9.15625 49.2575 10.0256 49.2489 11.4744V19H53.4165V10.6562C53.4251 7.70739 51.6268 5.73864 48.8739 5.73864C46.9393 5.73864 45.4734 6.71875 44.8938 8.3125H44.7489V5.90909H40.7859V19H44.9535V11.5341ZM73.1527 1.54545V12.4375C73.1527 14.2528 71.8658 15.5568 69.9823 15.5568C68.0902 15.5568 66.8118 14.2528 66.8118 12.4375V1.54545H62.5931V12.804C62.5931 16.7074 65.5419 19.2216 69.9823 19.2216C74.3885 19.2216 77.3629 16.7074 77.3629 12.804V1.54545H73.1527ZM80.7271 23.9091H84.8947V16.8778H84.98C85.5084 18.0881 86.6845 19.1875 88.6618 19.1875C91.5595 19.1875 93.8947 16.9205 93.8947 12.4631C93.8947 7.84375 91.4231 5.73864 88.6873 5.73864C86.6163 5.73864 85.4828 6.94886 84.98 8.15057H84.8521V5.90909H80.7271V23.9091ZM84.8095 12.4545C84.8095 10.3153 85.6959 8.99432 87.2214 8.99432C88.7641 8.99432 89.6163 10.3494 89.6163 12.4545C89.6163 14.5682 88.7641 15.9403 87.2214 15.9403C85.6959 15.9403 84.8095 14.5767 84.8095 12.4545Z" fill="#2D3892"/>
</svg>
