<svg width="208" height="19" viewBox="0 0 208 19" fill="none" xmlns="http://www.w3.org/2000/svg">
<path d="M21.9858 18H16.8498L14.0178 7.224L11.0898 18H5.97784L0.337843 1.176H5.66584L8.68984 12.864L11.6898 1.176H16.5618L19.5858 12.84L22.5618 1.176H27.6738L21.9858 18ZM34.1882 18.168C32.6042 18.168 31.2922 17.876 30.2522 17.292C29.1722 16.66 28.3842 15.84 27.8882 14.832C27.4002 13.816 27.1562 12.712 27.1562 11.52C27.1562 9.376 27.8002 7.716 29.0882 6.54C30.3762 5.364 32.0282 4.776 34.0442 4.776C36.3322 4.776 38.0402 5.432 39.1682 6.744C40.2962 8.056 40.8602 9.792 40.8602 11.952L40.8362 12.648H32.0522C32.5162 13.944 33.3642 14.592 34.5962 14.592C35.6362 14.592 36.5962 14.176 37.4762 13.344L39.9962 15.816C38.6042 17.384 36.6682 18.168 34.1882 18.168ZM36.0602 10.272C36.0602 9.68 35.9002 9.164 35.5802 8.724C35.2602 8.284 34.7642 8.064 34.0922 8.064C32.9082 8.064 32.1962 8.8 31.9562 10.272H36.0602ZM48.2612 18.24C46.8852 18.24 45.7092 17.808 44.7332 16.944C43.7572 16.08 43.2692 14.752 43.2692 12.96V0.191999H48.1172V12.816C48.1172 13.648 48.4932 14.064 49.2452 14.064C49.6132 14.064 50.0132 13.96 50.4452 13.752L50.7812 17.736C49.8852 18.072 49.0452 18.24 48.2612 18.24ZM58.6616 18.168C56.5016 18.168 54.8296 17.544 53.6456 16.296C52.4616 15.048 51.8696 13.456 51.8696 11.52C51.8696 9.584 52.4456 7.976 53.5976 6.696C54.7496 5.416 56.4536 4.776 58.7096 4.776C61.4616 4.776 63.4696 5.912 64.7336 8.184L61.0136 10.008C60.5336 9.144 59.8376 8.712 58.9256 8.712C58.1896 8.712 57.6456 8.984 57.2936 9.528C56.9416 10.072 56.7656 10.728 56.7656 11.496C56.7656 12.28 56.9416 12.948 57.2936 13.5C57.6456 14.052 58.1896 14.328 58.9256 14.328C59.8696 14.328 60.5576 13.848 60.9896 12.888L64.7576 14.784C63.5736 17.04 61.5416 18.168 58.6616 18.168ZM73.0569 18.168C70.9289 18.168 69.1849 17.588 67.8249 16.428C66.4649 15.268 65.7849 13.616 65.7849 11.472C65.7849 9.36 66.4649 7.716 67.8249 6.54C69.1849 5.364 70.9289 4.776 73.0569 4.776C75.2009 4.776 76.9369 5.36 78.2649 6.528C79.6249 7.68 80.3049 9.328 80.3049 11.472C80.3049 13.424 79.6769 15.028 78.4209 16.284C77.1649 17.54 75.3769 18.168 73.0569 18.168ZM73.0569 14.424C73.6969 14.424 74.2489 14.192 74.7129 13.728C75.1769 13.264 75.4089 12.528 75.4089 11.52C75.4089 10.72 75.2169 10.036 74.8329 9.468C74.4489 8.9 73.8569 8.616 73.0569 8.616C72.1929 8.616 71.5809 8.916 71.2209 9.516C70.8609 10.116 70.6809 10.784 70.6809 11.52C70.6809 12.32 70.8769 13.004 71.2689 13.572C71.6609 14.14 72.2569 14.424 73.0569 14.424ZM105.183 18H100.335V11.112C100.335 10.36 100.155 9.82 99.7948 9.492C99.4348 9.164 99.0148 9 98.5348 9C97.8148 9.096 97.2948 9.38 96.9748 9.852C96.6548 10.324 96.4948 10.888 96.4948 11.544V18H91.6468V11.112C91.6468 10.36 91.4668 9.82 91.1068 9.492C90.7468 9.164 90.3268 9 89.8468 9C88.4708 9.16 87.7828 10.008 87.7828 11.544V18H82.9348V4.944H87.7828V6.936C88.7108 5.48 90.0628 4.752 91.8388 4.752C93.8868 4.752 95.3188 5.696 96.1348 7.584C97.0468 5.696 98.5188 4.752 100.551 4.752C101.847 4.752 102.943 5.16 103.839 5.976C104.735 6.792 105.183 8.04 105.183 9.72V18ZM114.499 18.168C112.915 18.168 111.603 17.876 110.563 17.292C109.483 16.66 108.695 15.84 108.199 14.832C107.711 13.816 107.467 12.712 107.467 11.52C107.467 9.376 108.111 7.716 109.399 6.54C110.687 5.364 112.339 4.776 114.355 4.776C116.643 4.776 118.351 5.432 119.479 6.744C120.607 8.056 121.171 9.792 121.171 11.952L121.147 12.648H112.363C112.827 13.944 113.675 14.592 114.907 14.592C115.947 14.592 116.907 14.176 117.787 13.344L120.307 15.816C118.915 17.384 116.979 18.168 114.499 18.168ZM116.371 10.272C116.371 9.68 116.211 9.164 115.891 8.724C115.571 8.284 115.075 8.064 114.403 8.064C113.219 8.064 112.507 8.8 112.267 10.272H116.371ZM140.303 18H131.687V1.176H139.943C141.799 1.176 143.339 1.528 144.563 2.232C145.787 2.936 146.399 4 146.399 5.424C146.399 6.416 146.139 7.208 145.619 7.8C145.099 8.392 144.407 8.808 143.543 9.048C144.551 9.272 145.367 9.732 145.991 10.428C146.615 11.124 146.927 12.08 146.927 13.296C146.927 14.832 146.299 16 145.043 16.8C143.787 17.6 142.207 18 140.303 18ZM139.679 14.256C141.071 14.256 141.767 13.728 141.767 12.672C141.767 11.776 141.071 11.288 139.679 11.208H136.655V14.256H139.679ZM139.679 7.776C140.687 7.776 141.223 7.288 141.287 6.312C141.287 5.448 140.751 4.984 139.679 4.92H136.655V7.776H139.679ZM153.161 18.216C152.121 18.216 151.277 18.032 150.629 17.664C149.981 17.296 149.505 16.8 149.201 16.176C148.897 15.552 148.745 14.864 148.745 14.112C148.745 11.584 150.425 10.264 153.785 10.152H156.977C156.977 8.968 156.225 8.376 154.721 8.376C153.697 8.376 152.385 8.688 150.785 9.312L149.585 6.096C151.761 5.2 153.857 4.752 155.873 4.752C158.281 4.752 159.981 5.424 160.973 6.768C161.477 7.472 161.729 8.392 161.729 9.528V18H156.977V16.56C156.161 17.664 154.889 18.216 153.161 18.216ZM154.769 15.048C155.761 15.048 156.497 14.6 156.977 13.704V12.528H154.769C153.825 12.528 153.337 12.936 153.305 13.752C153.305 14.568 153.793 15 154.769 15.048ZM170.811 18.168C168.651 18.168 166.979 17.544 165.795 16.296C164.611 15.048 164.019 13.456 164.019 11.52C164.019 9.584 164.595 7.976 165.747 6.696C166.899 5.416 168.603 4.776 170.859 4.776C173.611 4.776 175.619 5.912 176.883 8.184L173.163 10.008C172.683 9.144 171.987 8.712 171.075 8.712C170.339 8.712 169.795 8.984 169.443 9.528C169.091 10.072 168.915 10.728 168.915 11.496C168.915 12.28 169.091 12.948 169.443 13.5C169.795 14.052 170.339 14.328 171.075 14.328C172.019 14.328 172.707 13.848 173.139 12.888L176.907 14.784C175.723 17.04 173.691 18.168 170.811 18.168ZM193.288 18H187.552L185.176 13.464L184.192 14.496V18H179.344V0.191999H184.192V8.856L187.792 4.944H193.264L188.488 9.984L193.288 18ZM205.245 18.192C204.653 18.192 204.129 18.004 203.673 17.628C203.217 17.252 202.989 16.68 202.989 15.912C202.989 15.16 203.217 14.6 203.673 14.232C204.129 13.864 204.653 13.68 205.245 13.68C205.997 13.68 206.565 13.904 206.949 14.352C207.333 14.8 207.525 15.32 207.525 15.912C207.525 16.52 207.333 17.052 206.949 17.508C206.565 17.964 205.997 18.192 205.245 18.192ZM206.805 12H203.901L203.037 5.592V1.224H207.645V5.592L206.805 12Z" fill="#2D3892"/>
</svg>
