<svg width="40" height="40" viewBox="0 0 40 40" fill="none" xmlns="http://www.w3.org/2000/svg">
<path d="M33.0001 25.8662C31.1253 25.8662 29.6001 27.3918 29.6001 29.2662C29.6001 31.141 31.1253 32.6662 33.0001 32.6662C34.8745 32.6662 36.4001 31.141 36.4001 29.2662C36.4001 27.3918 34.8745 25.8662 33.0001 25.8662ZM33.0001 30.2662C32.4485 30.2662 32.0001 29.8178 32.0001 29.2662C32.0001 28.7146 32.4485 28.2662 33.0001 28.2662C33.5517 28.2662 34.0001 28.7146 34.0001 29.2662C34.0001 29.8178 33.5517 30.2662 33.0001 30.2662Z" fill="#2D3892"/>
<path d="M32.6744 11.7332H26.8C26.358 11.7332 26 12.0916 26 12.5332V28.1332C26 28.5747 26.358 28.9332 26.8 28.9332H27.6484C28.0444 28.9332 28.3952 28.6479 28.4464 28.2552C28.7604 25.8496 30.6792 24.3576 33.0004 24.3576C35.3216 24.3576 37.2404 25.8496 37.5544 28.2552C37.6056 28.648 37.9559 28.9332 38.3524 28.9332H39.1999C39.6415 28.9332 39.9999 28.5747 39.9999 28.1332V20.3332C39.9999 20.1452 39.9339 19.9635 39.8135 19.82L33.2879 12.02C33.136 11.8384 32.9112 11.7332 32.6744 11.7332ZM27.6 18.1332V14.1332C27.6 13.6916 27.958 13.3332 28.4 13.3332H31.924C32.1612 13.3332 32.3864 13.4388 32.5384 13.6211L35.8716 17.6211C36.3056 18.1423 35.9352 18.9332 35.2568 18.9332H28.4C27.958 18.9332 27.6 18.5752 27.6 18.1332Z" fill="#2D3892"/>
<path d="M0.8 28.9335H2.84843C3.24444 28.9335 3.59523 28.6483 3.64641 28.2555C3.96039 25.8499 5.87922 24.3579 8.20039 24.3579C10.5216 24.3579 12.4404 25.85 12.7544 28.2555C12.8056 28.6483 13.1559 28.9335 13.5524 28.9335H23.6C24.0416 28.9335 24.4 28.5751 24.4 28.1335V8.1335C24.4 7.69193 24.0416 7.3335 23.6 7.3335H0.8C0.357974 7.3335 0 7.69193 0 8.1335V28.1335C0 28.5751 0.357974 28.9335 0.8 28.9335Z" fill="#2D3892"/>
<path d="M8.1998 25.8662C6.32503 25.8662 4.7998 27.3918 4.7998 29.2662C4.7998 31.141 6.32503 32.6662 8.1998 32.6662C10.0742 32.6662 11.5998 31.141 11.5998 29.2662C11.5998 27.3918 10.0742 25.8662 8.1998 25.8662ZM8.1998 30.2662C7.64824 30.2662 7.1998 29.8178 7.1998 29.2662C7.1998 28.7146 7.64824 28.2662 8.1998 28.2662C8.75137 28.2662 9.1998 28.7146 9.1998 29.2662C9.1998 29.8178 8.75137 30.2662 8.1998 30.2662Z" fill="#2D3892"/>
</svg>
