<svg width="96" height="38" viewBox="0 0 96 38" fill="none" xmlns="http://www.w3.org/2000/svg">
<path fill-rule="evenodd" clip-rule="evenodd" d="M9.78275 19.7571C9.73394 20.1643 9.69907 20.4286 9.69907 20.5286C9.69907 21.85 10.4033 22.5 11.7909 22.5C12.5439 22.5 13.3388 22.2714 14.1756 21.8143L14.587 21.55L13.297 28.1786C12.1326 28.5857 10.6892 28.8143 9.28071 28.8143C6.94484 28.8143 5.07615 28.2 3.70252 27C2.31495 25.8071 1.62465 24.1357 1.62465 21.9857C1.62465 21.1572 1.69438 20.4357 1.83383 19.8071L3.34691 12.1357H0L1.22023 6.05H4.51833L5.70369 0H13.6526L12.4672 6.05H17.6201L16.4557 12.1357H11.2889L9.78275 19.7571Z" fill="white"/>
<path fill-rule="evenodd" clip-rule="evenodd" d="M95.6729 19.3642C97.423 10.6571 91.9774 2.1428 83.4776 0.335658C74.9778 -1.4572 66.6663 4.11423 64.9162 12.8214C63.1521 21.5285 68.6117 30.0428 77.0906 31.8571C80.2143 32.5071 83.3381 32.1928 86.1202 31.0499L90.5689 37.9999L95.8054 34.4785L91.3568 27.5357C93.4974 25.3642 95.0244 22.5714 95.6729 19.3642ZM71.9447 11.3285H79.4125L79.3985 12.1928H71.3799L71.9447 11.3285ZM71.603 19.1428H74.4828L74.5176 20.0071H72.126L71.603 19.1428ZM89.5299 18.0499C88.4631 23.2571 83.4497 26.6357 78.3875 25.5428C75.8494 25.0142 73.7506 23.4499 72.4328 21.3928H80.298C80.2841 23.3285 81.7762 23.9285 82.6687 23.9428C83.5264 23.9571 85.158 23.3785 85.2835 21.3928H86.5874C87.5636 21.3428 87.6194 19.9142 86.6362 19.8785L86.8106 15.2857L84.0842 12.4214H81.8669L81.9715 9.87137H73.1091C75.2707 7.27137 78.7431 5.89994 82.2295 6.64994C87.2777 7.72137 90.5758 12.8571 89.5299 18.0499ZM82.7943 19.9642C83.638 19.9642 84.2585 20.6142 84.2237 21.4785C84.2097 22.3428 83.4846 23.0142 82.6966 23.0142C81.9087 23.0142 81.2393 22.3428 81.2533 21.4785C81.2881 20.6142 82.0063 19.9642 82.7943 19.9642ZM82.4526 15.3214L82.5223 13.3999H83.4009L85.1859 15.3214H82.4526Z" fill="white"/>
<path fill-rule="evenodd" clip-rule="evenodd" d="M27.8424 8.15001C29.746 6.17859 32.4793 5.19287 36.0493 5.19287L34.6617 12.5286C33.9714 12.4429 33.3718 12.3857 32.8558 12.3857C31.0847 12.3857 29.6483 12.8286 28.5815 13.7072C27.5007 14.5714 26.7756 15.9572 26.42 17.8429L24.2375 28.8214H16.2886L20.8209 5.58573H28.3444L27.8424 8.15001Z" fill="white"/>
<path fill-rule="evenodd" clip-rule="evenodd" d="M58.6894 28.3856L63.2007 5.18561H55.2518L52.9996 16.6713C52.658 18.3785 52.0374 19.6785 51.1449 20.557C50.2524 21.4213 49.1367 21.857 47.7631 21.857C45.7201 21.857 44.7091 20.8356 44.7091 18.8142C44.7091 18.307 44.7579 17.7785 44.8834 17.2285L47.2192 5.17847H39.2703L36.7601 17.9999C36.5719 18.9642 36.4673 19.9142 36.4673 20.8642C36.4673 23.3999 37.2064 25.3642 38.6637 26.7356C40.121 28.107 42.0943 28.7927 44.5905 28.7927C45.8805 28.7927 47.1146 28.5642 48.3349 28.107C49.5551 27.6499 50.6359 26.9427 51.6121 25.9999L51.1519 28.407H51.1588L51.0891 28.8499L58.6127 28.8356L58.6964 28.407V28.3927L58.6894 28.3856Z" fill="white"/>
</svg>
