<svg width="40" height="40" viewBox="0 0 40 40" fill="none" xmlns="http://www.w3.org/2000/svg">
<path d="M29.2308 14.2309H40V9.23089C40 6.04972 37.412 3.46167 34.2308 3.46167H5.76922C2.58805 3.46167 0 6.04972 0 9.23089V30.7693C0 33.9505 2.58805 36.5385 5.76922 36.5385H34.2308C37.412 36.5385 40 33.9505 40 30.7693V25.7693H29.2308C26.0496 25.7693 23.4616 23.1813 23.4616 20.0001C23.4616 16.8189 26.0496 14.2309 29.2308 14.2309Z" fill="#2D3892"/>
<path d="M29.2306 16.5383C27.3219 16.5383 25.769 18.0911 25.769 19.9999C25.769 21.9086 27.3219 23.4614 29.2306 23.4614H39.9998V16.5384H29.2306V16.5383ZM30.769 21.1537H29.2306C28.5933 21.1537 28.0768 20.6371 28.0768 19.9999C28.0768 19.3627 28.5934 18.8461 29.2306 18.8461H30.769C31.4063 18.8461 31.9229 19.3627 31.9229 19.9999C31.9229 20.6371 31.4063 21.1537 30.769 21.1537Z" fill="#2D3892"/>
</svg>
