<svg width="20" height="20" viewBox="0 0 20 20" fill="none" xmlns="http://www.w3.org/2000/svg">
<path d="M14.9998 5.83333H17.4998C17.7209 5.83333 17.9328 5.92113 18.0891 6.07741C18.2454 6.23369 18.3332 6.44565 18.3332 6.66667V16.6667C18.3332 16.8877 18.2454 17.0996 18.0891 17.2559C17.9328 17.4122 17.7209 17.5 17.4998 17.5H2.49984C2.27882 17.5 2.06686 17.4122 1.91058 17.2559C1.7543 17.0996 1.6665 16.8877 1.6665 16.6667V3.33333C1.6665 3.11232 1.7543 2.90036 1.91058 2.74408C2.06686 2.5878 2.27882 2.5 2.49984 2.5H14.9998V5.83333ZM3.33317 7.5V15.8333H16.6665V7.5H3.33317ZM3.33317 4.16667V5.83333H13.3332V4.16667H3.33317ZM12.4998 10.8333H14.9998V12.5H12.4998V10.8333Z" fill="white"/>
</svg>
