<svg width="16" height="16" viewBox="0 0 16 16" fill="none" xmlns="http://www.w3.org/2000/svg">
<g clip-path="url(#clip0)">
<path d="M8.28613 15.9905C9.50965 15.8167 10.5822 14.5397 11.2572 12.6538C10.2815 12.4353 9.28583 12.318 8.28613 12.3041V15.9905Z" fill="#ABB3BB"/>
<path d="M10.2407 15.6906C10.313 15.6697 10.3851 15.6486 10.4566 15.6254C10.5169 15.606 10.5764 15.5851 10.6359 15.5643C10.7062 15.54 10.7763 15.515 10.8461 15.4884C10.9056 15.4658 10.9645 15.4418 11.0236 15.4178C11.0917 15.3892 11.1597 15.3607 11.227 15.3321C11.2858 15.3062 11.3442 15.2791 11.4025 15.2519C11.4686 15.2208 11.5343 15.1891 11.5995 15.1561C11.6568 15.127 11.7139 15.0972 11.7711 15.0666C11.8352 15.0323 11.8989 14.9972 11.9621 14.9612C12.0194 14.9288 12.0745 14.8963 12.1302 14.8628C12.1922 14.8247 12.2539 14.7865 12.3152 14.7484C12.3701 14.7135 12.4248 14.6781 12.4789 14.6415C12.5392 14.6008 12.5987 14.5585 12.6579 14.5162C12.7111 14.4781 12.764 14.4401 12.8159 14.4019C12.8732 14.3578 12.9318 14.3121 12.9892 14.2663C13.0402 14.2257 13.091 14.1853 13.1411 14.1436C13.1982 14.0961 13.2529 14.047 13.3084 13.9978C13.357 13.9547 13.4058 13.9119 13.4533 13.8677C13.5079 13.8167 13.5611 13.7639 13.6143 13.7116C13.6604 13.6661 13.707 13.6213 13.7521 13.5746C13.7605 13.566 13.7684 13.5566 13.7771 13.5477C13.1534 13.2256 12.4965 12.9727 11.8178 12.7937C11.4648 13.9193 10.8366 14.9394 9.99023 15.7613C10.0134 15.7553 10.0366 15.7504 10.0598 15.7444C10.1209 15.7272 10.181 15.7083 10.2407 15.6906Z" fill="#ABB3BB"/>
<path d="M16.0001 8.29248H12.5715C12.5585 9.63119 12.3643 10.9619 11.9941 12.2486C12.7489 12.4502 13.4774 12.7401 14.1643 13.1121C15.2922 11.7528 15.9378 10.0579 16.0001 8.29248Z" fill="#ABB3BB"/>
<path d="M8.28613 7.72062H11.9997C11.9852 6.42924 11.7957 5.14583 11.4367 3.90527C10.4027 4.1411 9.34657 4.26704 8.28613 4.281V7.72062Z" fill="#ABB3BB"/>
<path d="M8.28613 0.022583V3.70907C9.28583 3.69496 10.2815 3.57782 11.2572 3.35931C10.5822 1.47341 9.50965 0.196414 8.28613 0.022583Z" fill="#ABB3BB"/>
<path d="M8.28613 11.7321C9.34657 11.7462 10.4027 11.8722 11.4367 12.108C11.7957 10.8674 11.9852 9.58386 11.9997 8.29248H8.28613V11.7321Z" fill="#ABB3BB"/>
<path d="M14.1643 2.90088C13.4774 3.27298 12.7489 3.56283 11.9941 3.76445C12.3643 5.05108 12.5585 6.38184 12.5715 7.72055H16.0001C15.9377 5.95529 15.2921 4.26039 14.1643 2.90088Z" fill="#ABB3BB"/>
<path d="M13.7779 2.46717C13.7695 2.45865 13.7616 2.44943 13.7533 2.44064C13.7081 2.394 13.6612 2.34905 13.6151 2.30367C13.562 2.25131 13.5091 2.19839 13.4544 2.14757C13.4071 2.10345 13.358 2.0617 13.3095 2.01772C13.254 1.96857 13.1986 1.919 13.1416 1.87153C13.0922 1.82979 13.0415 1.78985 12.9913 1.74978C12.934 1.70343 12.8754 1.65735 12.8164 1.61309C12.7648 1.57413 12.7124 1.53644 12.6598 1.49874C12.6 1.45573 12.54 1.41287 12.4791 1.37196C12.4256 1.33594 12.3713 1.30075 12.317 1.26626C12.2552 1.22647 12.1934 1.18752 12.1305 1.14982C12.0753 1.11673 12.0196 1.08406 11.9638 1.05236C11.8998 1.01578 11.8357 0.980315 11.7711 0.945689C11.7138 0.917066 11.6567 0.88593 11.5995 0.857307C11.5337 0.824076 11.4674 0.792103 11.3994 0.760687C11.3421 0.733461 11.2841 0.706932 11.2251 0.681102C11.1574 0.651083 11.089 0.623996 11.0207 0.595373C10.9618 0.571358 10.9032 0.547622 10.8437 0.525003C10.7743 0.498474 10.7039 0.473621 10.6336 0.449327C10.5741 0.428383 10.5146 0.407579 10.4543 0.388032C10.3828 0.364854 10.3113 0.343771 10.2379 0.322548C10.1784 0.305095 10.1186 0.287363 10.0584 0.271446C10.0354 0.265163 10.0119 0.260276 9.98877 0.254272C10.8352 1.0761 11.4632 2.09605 11.8163 3.22183C12.4957 3.04284 13.1536 2.78984 13.7779 2.46717Z" fill="#ABB3BB"/>
<path d="M0 7.72055H3.4286C3.44158 6.38184 3.6358 5.05108 4.0058 3.76445C3.25114 3.56297 2.52272 3.27312 1.83577 2.90088C0.707892 4.26025 0.0622722 5.95529 0 7.72055Z" fill="#ABB3BB"/>
<path d="M7.71422 15.9905V12.3041C6.71451 12.3182 5.71885 12.4353 4.74316 12.6538C5.41797 14.5397 6.49069 15.8167 7.71422 15.9905Z" fill="#ABB3BB"/>
<path d="M7.71407 8.29248H4.00049C4.01501 9.58386 4.20434 10.8674 4.56345 12.108C5.59751 11.872 6.65348 11.7461 7.71407 11.7321V8.29248Z" fill="#ABB3BB"/>
<path d="M7.71422 0.022583C6.49069 0.196414 5.41797 1.47341 4.74316 3.35931C5.71885 3.57796 6.71451 3.6951 7.71422 3.70907V0.022583Z" fill="#ABB3BB"/>
<path d="M7.71407 4.281C6.65362 4.26704 5.59751 4.1411 4.56345 3.90527C4.20434 5.14583 4.01501 6.42924 4.00049 7.72062H7.71407V4.281Z" fill="#ABB3BB"/>
<path d="M6.00919 0.253906C5.98601 0.25991 5.96283 0.264797 5.93966 0.270801C5.87906 0.286997 5.8193 0.305009 5.75898 0.322461C5.68722 0.343405 5.61601 0.364488 5.54396 0.387387C5.48323 0.407073 5.42347 0.428017 5.36371 0.448821C5.29376 0.473534 5.22367 0.498108 5.15441 0.524357C5.09465 0.547256 5.03573 0.570992 4.97653 0.595286C4.90853 0.623909 4.8404 0.652532 4.77324 0.681015C4.71432 0.706845 4.65609 0.733932 4.59773 0.761159C4.53169 0.792295 4.46593 0.82399 4.40072 0.856941C4.34348 0.886122 4.28623 0.916002 4.22912 0.94644C4.16504 0.980787 4.10151 1.01597 4.0384 1.052C3.98115 1.08397 3.92488 1.11678 3.86973 1.15029C3.8076 1.18771 3.74616 1.22638 3.68501 1.26464C3.63 1.29983 3.5754 1.33529 3.52137 1.37187C3.46105 1.4125 3.40157 1.45481 3.34237 1.49712C3.28917 1.53523 3.23626 1.57321 3.18418 1.61161C3.12567 1.65559 3.06982 1.70138 3.0109 1.74704C2.96008 1.78767 2.90884 1.82802 2.85913 1.87005C2.80189 1.91724 2.74757 1.96611 2.69242 2.01498C2.64355 2.05854 2.59427 2.10085 2.54651 2.14595C2.4922 2.19663 2.43928 2.24927 2.38623 2.30149C2.34015 2.347 2.29324 2.39196 2.248 2.43874C2.23976 2.44739 2.2318 2.45689 2.22314 2.46568C2.84671 2.78794 3.50378 3.04079 4.18249 3.21979C4.53546 2.0947 5.16321 1.07531 6.00919 0.253906Z" fill="#ABB3BB"/>
<path d="M2.38504 13.7095C2.43823 13.7618 2.49115 13.8148 2.54574 13.8657C2.59322 13.9097 2.64208 13.9515 2.69081 13.9954C2.74624 14.0447 2.80167 14.0941 2.85864 14.1416C2.90807 14.1831 2.95847 14.2232 3.00901 14.2634C3.06626 14.3097 3.12337 14.3558 3.18396 14.4003C3.23548 14.439 3.28784 14.4764 3.3402 14.5148C3.39996 14.5577 3.46028 14.6006 3.52115 14.6418C3.57463 14.6778 3.62894 14.713 3.68326 14.7476C3.74511 14.7872 3.80682 14.8262 3.86979 14.8639C3.92495 14.8971 3.98066 14.9297 4.03651 14.9615C4.10045 14.9981 4.16454 15.0335 4.22919 15.068C4.28629 15.0967 4.34354 15.1278 4.40078 15.1564C4.46655 15.1896 4.53287 15.2216 4.60086 15.2532C4.65811 15.2801 4.71619 15.3067 4.77511 15.3326C4.84283 15.3626 4.91111 15.3897 4.97952 15.4184C5.03844 15.4424 5.09709 15.4661 5.15657 15.4887C5.22596 15.5154 5.29633 15.5402 5.3667 15.5645C5.42618 15.5853 5.48566 15.6063 5.54598 15.6257C5.61746 15.6489 5.68895 15.6701 5.76239 15.6912C5.82187 15.7086 5.88163 15.7264 5.94167 15.7424C5.96485 15.7487 5.9883 15.7536 6.01148 15.7596C5.16508 14.9376 4.53706 13.9177 4.18395 12.7919C3.50524 12.971 2.84817 13.2239 2.22461 13.5463C2.23299 13.5548 2.24095 13.564 2.24932 13.5728C2.29219 13.6191 2.3384 13.6641 2.38504 13.7095Z" fill="#ABB3BB"/>
<path d="M1.83577 13.1121C2.52272 12.7401 3.25114 12.4502 4.0058 12.2486C3.6358 10.9619 3.44158 9.63119 3.4286 8.29248H0C0.0624118 10.0577 0.707892 11.7526 1.83577 13.1121Z" fill="#ABB3BB"/>
</g>
<defs>
<clipPath id="clip0">
<rect width="16" height="16" fill="white"/>
</clipPath>
</defs>
</svg>
