<svg width="25" height="25" viewBox="0 0 25 25" fill="none" xmlns="http://www.w3.org/2000/svg">
<circle cx="12.5" cy="12.5" r="12.5" fill="white"/>
<g clip-path="url(#clip0)">
<path d="M12.9142 12.7804C13.7084 12.7804 14.396 12.4956 14.9579 11.9337C15.5197 11.3718 15.8045 10.6843 15.8045 9.89013C15.8045 9.09618 15.5197 8.40862 14.9578 7.84658C14.3958 7.28482 13.7083 7 12.9142 7C12.12 7 11.4326 7.28482 10.8707 7.84668C10.3088 8.40853 10.0239 9.09609 10.0239 9.89013C10.0239 10.6843 10.3088 11.3719 10.8708 11.9338C11.4327 12.4955 12.1203 12.7804 12.9142 12.7804Z" fill="#2D3892"/>
<path d="M17.9717 16.2273C17.9555 15.9935 17.9228 15.7384 17.8745 15.4691C17.8258 15.1977 17.7631 14.9412 17.688 14.7067C17.6105 14.4644 17.505 14.2251 17.3746 13.9957C17.2393 13.7577 17.0804 13.5504 16.902 13.3798C16.7155 13.2014 16.4872 13.058 16.2232 12.9533C15.9601 12.8492 15.6685 12.7965 15.3565 12.7965C15.234 12.7965 15.1156 12.8467 14.8868 12.9957C14.746 13.0875 14.5813 13.1937 14.3974 13.3112C14.2402 13.4113 14.0273 13.5052 13.7643 13.5901C13.5076 13.6732 13.2471 13.7153 12.9899 13.7153C12.7327 13.7153 12.4723 13.6732 12.2154 13.5901C11.9526 13.5053 11.7397 13.4114 11.5827 13.3113C11.4006 13.1949 11.2358 13.0887 11.0929 12.9956C10.8643 12.8466 10.7458 12.7964 10.6233 12.7964C10.3113 12.7964 10.0198 12.8492 9.75674 12.9534C9.49288 13.0579 9.26446 13.2013 9.07779 13.3799C8.89953 13.5506 8.74051 13.7578 8.60537 13.9957C8.4751 14.2251 8.36963 14.4643 8.29199 14.7068C8.21701 14.9413 8.1543 15.1977 8.10559 15.4691C8.05734 15.7381 8.02457 15.9932 8.00836 16.2276C7.99243 16.4572 7.98438 16.6955 7.98438 16.9362C7.98438 17.5626 8.1835 18.0697 8.57617 18.4437C8.96399 18.8128 9.47714 19 10.1012 19H15.8792C16.5032 19 17.0162 18.8128 17.4041 18.4437C17.7969 18.07 17.996 17.5628 17.996 16.9361C17.9959 16.6943 17.9878 16.4558 17.9717 16.2273Z" fill="#2D3892"/>
</g>
<defs>
<clipPath id="clip0">
<rect width="12" height="12" fill="white" transform="translate(7 7)"/>
</clipPath>
</defs>
</svg>
