<svg width="25" height="25" viewBox="0 0 25 25" fill="none" xmlns="http://www.w3.org/2000/svg">
<circle cx="12.5" cy="12.5" r="12.5" fill="white"/>
<path d="M16.304 8H7.69691C7.24711 8.00069 6.81593 8.18801 6.49785 8.5209C6.17977 8.8538 6.00074 9.30512 6 9.77595V15.3666C6.00057 15.8375 6.17954 16.2889 6.49765 16.6219C6.81575 16.9549 7.24704 17.1423 7.69691 17.1429H16.304C16.7538 17.1421 17.1848 16.9547 17.5028 16.6217C17.8207 16.2887 17.9995 15.8374 18 15.3666V9.77595C17.9993 9.30526 17.8205 8.85404 17.5026 8.52115C17.1847 8.18826 16.7537 8.00086 16.304 8ZM15.782 10.5127L12.7045 12.5667C12.494 12.7066 12.2499 12.7808 12.0006 12.7808C11.7514 12.7808 11.5072 12.7066 11.2968 12.5667L8.2192 10.5127C8.17625 10.4841 8.1391 10.4469 8.10988 10.4032C8.08066 10.3596 8.05994 10.3103 8.0489 10.2583C8.03786 10.2063 8.03673 10.1525 8.04555 10.1C8.05438 10.0475 8.073 9.9973 8.10034 9.95234C8.12769 9.90738 8.16323 9.86849 8.20493 9.8379C8.24663 9.80732 8.29368 9.78563 8.34339 9.77408C8.3931 9.76252 8.44449 9.76133 8.49464 9.77057C8.54479 9.77981 8.59271 9.7993 8.63567 9.82792L11.7133 11.8819C11.7992 11.9389 11.8988 11.9692 12.0005 11.9692C12.1022 11.9692 12.2018 11.9389 12.2877 11.8819L15.3653 9.82792C15.452 9.77271 15.5559 9.75527 15.6547 9.77933C15.7536 9.8034 15.8395 9.86706 15.894 9.95665C15.9486 10.0463 15.9674 10.1546 15.9464 10.2586C15.9255 10.3626 15.8665 10.4538 15.782 10.5127Z" fill="#2D3892"/>
</svg>
