<svg width="25" height="25" viewBox="0 0 25 25" fill="none" xmlns="http://www.w3.org/2000/svg">
<circle cx="12.5" cy="12.5" r="12.5" fill="white"/>
<path d="M12 7C9.67261 7 7.78125 8.89141 7.78125 11.2188C7.78125 12.0062 7.99927 12.7727 8.41409 13.4336L11.714 18.8339C11.7703 18.9254 11.8547 18.9816 11.9531 18.9957C12.0867 19.0168 12.2344 18.9605 12.3117 18.8269L15.6211 13.3773C16.0148 12.7305 16.2188 11.9781 16.2188 11.2188C16.2188 8.89141 14.3274 7 12 7ZM12 13.3281C10.8188 13.3281 9.89062 12.3719 9.89062 11.2188C9.89062 10.0586 10.8398 9.10938 12 9.10938C13.1602 9.10938 14.1094 10.0586 14.1094 11.2188C14.1094 12.3648 13.1953 13.3281 12 13.3281Z" fill="#2D3892"/>
<path d="M12 7V9.10938C13.1602 9.10938 14.1094 10.0586 14.1094 11.2188C14.1094 12.3648 13.1953 13.3281 12 13.3281V18.9998C12.12 19.0026 12.2434 18.9451 12.3117 18.8269L15.6211 13.3773C16.0148 12.7305 16.2188 11.9781 16.2188 11.2188C16.2188 8.89141 14.3274 7 12 7Z" fill="#2D3892"/>
</svg>
