<svg width="25" height="25" viewBox="0 0 25 25" fill="none" xmlns="http://www.w3.org/2000/svg">
<circle cx="12.5" cy="12.5" r="12.5" fill="white"/>
<g clip-path="url(#clip0)">
<path d="M17.0371 14.8766C16.3024 14.8766 15.5811 14.7617 14.8975 14.5358C14.5625 14.4216 14.1507 14.5264 13.9463 14.7363L12.597 15.7549C11.0322 14.9196 10.0683 13.9561 9.24447 12.403L10.2331 11.0889C10.4899 10.8324 10.582 10.4577 10.4717 10.1062C10.2448 9.41897 10.1295 8.69794 10.1295 7.96294C10.1296 7.43197 9.69759 7 9.16666 7H6.96291C6.43197 7 6 7.43197 6 7.96291C6 14.0488 10.9512 19 17.0371 19C17.5681 19 18 18.568 18 18.0371V15.8395C18 15.3086 17.568 14.8766 17.0371 14.8766Z" fill="#2D3892"/>
</g>
<defs>
<clipPath id="clip0">
<rect width="12" height="12" fill="white" transform="translate(6 7)"/>
</clipPath>
</defs>
</svg>
